<svg width="212" height="200" viewBox="0 0 212 200" fill="none" xmlns="http://www.w3.org/2000/svg">
<path d="M81.7866 44.0078L84.0726 41.7409L83.2659 40.928L81.8068 39.4563L84.2858 37L85.745 38.4716L86.5515 39.2846L88.8375 37.0202L91.2951 39.4992L89.0092 41.7636L91.2737 44.0507L88.7946 46.5071L86.5289 44.2226L84.2429 46.4869L81.7866 44.0078Z" fill="#EB6F5E"/>
<path d="M158.326 58.6888L161.048 55.9886L160.088 55.0204L158.35 53.2675L161.303 50.3418L163.04 52.0947L164.001 53.0629L166.724 50.3658L169.651 53.3186L166.928 56.0157L169.626 58.7399L166.673 61.6656L163.974 58.9445L161.251 61.6416L158.326 58.6888Z" fill="#EB6F5E"/>
<path d="M60.4932 66.0586L64.3155 62.268L62.9667 60.9088L60.5269 58.448L64.6721 54.3408L67.112 56.8016L68.4606 58.1608L72.2829 54.3745L76.3923 58.5198L72.5699 62.3061L76.3564 66.1303L72.2112 70.2376L68.4227 66.4176L64.6004 70.2039L60.4932 66.0586Z" fill="#F9B59E"/>
<path d="M121.879 72.2653C131.18 72.2653 138.721 64.7248 138.721 55.4232C138.721 46.1215 131.18 38.5811 121.879 38.5811C112.577 38.5811 105.037 46.1215 105.037 55.4232C105.037 64.7248 112.577 72.2653 121.879 72.2653Z" fill="#6A6AB0"/>
<path d="M116.315 58.0614L118.99 55.4084L118.046 54.4571L116.339 52.7349L119.24 49.8604L120.947 51.5826L121.891 52.5338L124.566 49.8839L127.442 52.7851L124.767 55.435L127.417 58.1116L124.516 60.9861L121.865 58.3126L119.189 60.9625L116.315 58.0614Z" fill="white"/>
<path fill-rule="evenodd" clip-rule="evenodd" d="M108.289 84.0475L106.565 83.3714L109.114 76.8691L109.796 76.8722L108.289 84.0475Z" fill="#EB6F5E"/>
<path fill-rule="evenodd" clip-rule="evenodd" d="M98.1696 83.6397L96.3179 83.5926L96.4955 76.611L97.1322 76.5986L98.1696 83.6397Z" fill="#EB6F5E"/>
<path fill-rule="evenodd" clip-rule="evenodd" d="M95.2891 121.272L97.0136 121.948L94.4648 128.451L93.7827 128.448L95.2891 121.272Z" fill="#EB6F5E"/>
<path fill-rule="evenodd" clip-rule="evenodd" d="M105.409 121.68L107.26 121.727L107.083 128.708L106.446 128.721L105.409 121.68Z" fill="#EB6F5E"/>
<path d="M119.753 92.6289H108.455V98.278H119.753V92.6289Z" fill="#EF5A4C"/>
<path d="M161.224 101.161C173.487 101.161 182.943 104.905 187.836 111.902C191.954 117.792 192.219 125.464 188.544 132.428C184.817 139.517 183.998 145.301 186.11 149.62C188.549 154.608 195.096 158.087 205.569 159.961C206.183 160.071 206.592 160.658 206.482 161.272C206.372 161.886 205.79 162.299 205.171 162.185C193.792 160.149 186.892 156.364 184.08 150.613C181.634 145.611 182.463 139.138 186.544 131.374C189.866 125.082 189.662 118.456 185.984 113.197C180.409 105.224 168.078 101.893 152.15 104.066C151.537 104.148 150.963 103.718 150.878 103.099C150.794 102.481 151.227 101.911 151.845 101.826C155.119 101.381 158.254 101.161 161.224 101.161Z" fill="#EC6F5E"/>
<path fill-rule="evenodd" clip-rule="evenodd" d="M142.336 94.3828H152.017V113.011H141.206" fill="#EF5A4C"/>
<path d="M119.753 107.316H108.455V112.966H119.753V107.316Z" fill="#EF5A4C"/>
<path fill-rule="evenodd" clip-rule="evenodd" d="M134.435 117.485H119.753V88.1094H134.435C138.182 88.1094 141.22 91.1467 141.22 94.8935V110.701C141.22 114.447 138.182 117.485 134.435 117.485Z" fill="#EF5A4C"/>
<path d="M152.017 93.6548H142.335C142.29 93.6548 142.251 93.6727 142.208 93.6806C141.622 89.9129 138.365 87.0176 134.435 87.0176H119.753C119.15 87.0176 118.661 87.5065 118.661 88.1092V92.119H108.455C108.173 92.119 107.945 92.3471 107.945 92.6286V98.2779C107.945 98.5594 108.173 98.7875 108.455 98.7875H118.661V106.806H108.455C108.173 106.806 107.945 107.034 107.945 107.316V112.965C107.945 113.247 108.173 113.475 108.455 113.475H118.661V117.485C118.661 118.087 119.15 118.576 119.753 118.576H134.435C137.702 118.576 140.509 116.578 141.7 113.739H152.017C152.42 113.739 152.745 113.414 152.745 113.011V94.3826C152.745 93.9803 152.42 93.6548 152.017 93.6548ZM108.964 97.7684V93.1381H118.661V97.7684H108.964ZM108.964 112.456V107.826H118.661V112.456H108.964ZM140.128 110.7C140.128 113.839 137.574 116.393 134.435 116.393H120.845V89.2009H134.435C137.574 89.2009 140.128 91.7544 140.128 94.8936V110.7ZM151.29 112.284H142.151C142.256 111.772 142.311 111.243 142.311 110.7V95.1055C142.32 95.1057 142.327 95.1103 142.335 95.1103H151.29V112.284Z" fill="white"/>
<path d="M113.305 93.998H112.385V96.7567H113.305V93.998Z" fill="white"/>
<path d="M113.305 109.17H112.385V111.929H113.305V109.17Z" fill="white"/>
<path d="M51.7763 104.583C39.5127 104.583 30.0571 100.839 25.1637 93.842C21.0455 87.9524 20.7807 80.2797 24.4565 73.3165C28.183 66.2276 29.0023 60.4427 26.8905 56.1243C24.451 51.1361 17.9038 47.6572 7.43084 45.7832C6.81683 45.6734 6.40804 45.0864 6.51782 44.4719C6.6276 43.8579 7.21017 43.4452 7.82914 43.5589C19.2085 45.5951 26.1076 49.3801 28.9201 55.1313C31.3662 60.1333 30.537 66.606 26.4557 74.3702C23.1336 80.6626 23.3377 87.2882 27.0157 92.5466C32.5909 100.521 44.9218 103.852 60.8502 101.678C61.4631 101.596 62.0374 102.027 62.1218 102.646C62.2062 103.263 61.7732 103.833 61.1547 103.918C57.8811 104.363 54.746 104.583 51.7763 104.583Z" fill="#EC6F5E"/>
<path fill-rule="evenodd" clip-rule="evenodd" d="M71.0648 112.154H61.3833V93.5254H71.0648" fill="#EF5A4C"/>
<path fill-rule="evenodd" clip-rule="evenodd" d="M77.955 88.1094H92.6375V117.485H77.955C74.2082 117.485 71.1709 114.447 71.1709 110.701V94.8935C71.1709 91.1467 74.2082 88.1094 77.955 88.1094Z" fill="#EF5A4C"/>
<path fill-rule="evenodd" clip-rule="evenodd" d="M92.6376 87.0176H77.9552C74.3391 87.0176 71.2923 89.47 70.3713 92.797H61.383C60.9808 92.797 60.6553 93.1225 60.6553 93.5248V112.153C60.6553 112.555 60.9808 112.881 61.383 112.881H70.393C71.3414 116.165 74.369 118.576 77.9552 118.576H92.6376C93.2402 118.576 93.7292 118.087 93.7292 117.485V88.1092C93.7292 87.5065 93.2402 87.0176 92.6376 87.0176ZM62.1108 111.425V94.2525H70.1115C70.0945 94.4645 70.0792 94.6772 70.0792 94.8936V110.7C70.0792 110.945 70.0941 111.186 70.1158 111.425H62.1108ZM84.4922 116.393H77.9552C74.816 116.393 72.2625 113.839 72.2625 110.7V94.8936C72.2625 91.7544 74.816 89.2009 77.9552 89.2009H84.4922V116.393ZM91.5459 116.393H85.9477V89.2009H91.5459V116.393Z" fill="white"/>
</svg>
