<svg width="212" height="200" viewBox="0 0 212 200" fill="none" xmlns="http://www.w3.org/2000/svg">
<path d="M63.5 90.0001C37.8757 100.082 18.5 107.5 21.5 136.5C24.5 165.5 83.5 200.5 138 184.5C192.5 168.5 221.5 132.5 182 112.5C142.5 92.5002 172.5 65.5001 135.5 51.0001C91 33.5608 94 78 63.5 90.0001Z" fill="#FF3C3C"/>
<path d="M63.5 90.0001C37.8757 100.082 18.5 107.5 21.5 136.5C24.5 165.5 83.5 200.5 138 184.5C192.5 168.5 221.5 132.5 182 112.5C142.5 92.5002 172.5 65.5001 135.5 51.0001C91 33.5608 94 78 63.5 90.0001Z" fill="white" fill-opacity="0.9"/>
<path d="M201.487 124.968C201.333 124.968 201.179 124.91 201.061 124.793L198.087 121.846C197.849 121.61 197.848 121.227 198.082 120.99L200.373 118.676L198.061 116.386C197.946 116.272 197.882 116.118 197.881 115.958C197.881 115.797 197.944 115.643 198.057 115.529L201.006 112.555C201.241 112.317 201.624 112.316 201.862 112.551L204.175 114.841L206.466 112.53C206.701 112.293 207.084 112.291 207.323 112.527L210.297 115.474C210.411 115.587 210.475 115.74 210.476 115.901C210.477 116.062 210.413 116.216 210.3 116.33L208.009 118.641L210.321 120.934C210.558 121.17 210.56 121.553 210.325 121.791L207.378 124.765C207.143 125.002 206.76 125.004 206.521 124.769L204.209 122.478L201.917 124.789C201.799 124.908 201.643 124.968 201.487 124.968ZM199.369 121.411L201.484 123.506L203.775 121.196C204.011 120.958 204.394 120.957 204.632 121.191L206.943 123.482L209.038 121.368L206.726 119.074C206.612 118.961 206.547 118.807 206.547 118.647C206.546 118.486 206.609 118.332 206.722 118.218L209.014 115.907L206.9 113.813L204.608 116.124C204.373 116.363 203.989 116.363 203.752 116.128L201.439 113.837L199.343 115.951L201.656 118.241C201.893 118.476 201.895 118.86 201.66 119.097L199.369 121.411Z" fill="#EC6F5E"/>
<path d="M54.5059 85.5791C54.3519 85.5791 54.1978 85.5205 54.0798 85.4034L51.7541 83.0993C51.5164 82.8645 51.5146 82.4807 51.75 82.2435L53.4482 80.5279L51.734 78.8293C51.6199 78.7164 51.5551 78.5626 51.5545 78.4023C51.5539 78.2415 51.6169 78.0871 51.7302 77.973L54.0358 75.6476C54.2708 75.4098 54.6544 75.4086 54.8918 75.6434L56.6066 77.3419L58.3057 75.6286C58.5408 75.3909 58.9243 75.3891 59.1618 75.6251L61.4872 77.9292C61.6013 78.0422 61.6661 78.1959 61.6667 78.3562C61.6673 78.5171 61.6043 78.6714 61.491 78.7856L59.7919 80.4989L61.5064 82.1992C61.7439 82.4346 61.7456 82.8178 61.5103 83.0555L59.2061 85.3809C58.9702 85.6181 58.5869 85.6199 58.3498 85.3845L56.6353 83.6866L54.9359 85.3999C54.8176 85.5193 54.6618 85.5791 54.5059 85.5791ZM53.0366 82.6652L54.5021 84.1171L56.2015 82.4038C56.4366 82.1661 56.8201 82.1643 57.0576 82.4003L58.772 84.0982L60.2236 82.6327L58.5092 80.9324C58.395 80.8194 58.3306 80.6657 58.33 80.5048C58.3294 80.3445 58.3924 80.1902 58.5056 80.076L60.2044 78.3627L58.7395 76.9114L57.0401 78.6241C56.8041 78.8613 56.4212 78.8619 56.184 78.6283L54.4696 76.9303L53.0168 78.3952L54.7307 80.0938C54.9684 80.3286 54.9702 80.7124 54.7348 80.9495L53.0366 82.6652Z" fill="#EC6F5E"/>
<path d="M195.996 88.1566C189.777 88.1566 184.717 83.0971 184.717 76.8778C184.717 70.6586 189.777 65.5991 195.996 65.5991C202.215 65.5991 207.275 70.6586 207.275 76.8778C207.275 83.0971 202.215 88.1566 195.996 88.1566ZM195.996 66.8103C190.444 66.8103 185.928 71.3263 185.928 76.8778C185.928 82.4294 190.444 86.9454 195.996 86.9454C201.548 86.9454 206.063 82.4294 206.063 76.8778C206.063 71.3263 201.548 66.8103 195.996 66.8103ZM195.996 83.4886C195.109 83.4886 194.247 83.3147 193.433 82.9711C193.255 82.896 193.123 82.7399 193.079 82.5506C193.035 82.362 193.084 82.1632 193.211 82.0166L200.681 73.3968C200.808 73.2507 200.999 73.1715 201.191 73.1904C201.384 73.207 201.558 73.3152 201.658 73.4814C202.278 74.5128 202.607 75.6873 202.607 76.8778C202.607 80.5233 199.641 83.4886 195.996 83.4886ZM194.72 82.1254C195.135 82.2265 195.562 82.2774 195.996 82.2774C198.973 82.2774 201.396 79.855 201.396 76.8778C201.396 76.1918 201.261 75.5117 201.003 74.8742L194.72 82.1254ZM190.852 80.567C190.835 80.567 190.818 80.5665 190.8 80.5647C190.607 80.5481 190.434 80.4399 190.334 80.2737C189.713 79.2423 189.385 78.0678 189.385 76.8778C189.385 73.2324 192.351 70.2671 195.996 70.2671C196.882 70.2671 197.744 70.441 198.557 70.7834C198.736 70.8591 198.868 71.0152 198.912 71.2045C198.956 71.3931 198.907 71.5918 198.78 71.7385L191.31 80.3583C191.194 80.4913 191.028 80.567 190.852 80.567ZM195.996 71.4783C193.018 71.4783 190.596 73.9007 190.596 76.8778C190.596 77.5633 190.73 78.2434 190.987 78.8809L197.27 71.6303C196.856 71.5292 196.429 71.4783 195.996 71.4783Z" fill="#EC6F5E"/>
<path d="M140.756 159.178L63.0111 159.162L69.171 94.5601L146.916 94.576L140.756 159.178Z" fill="#F2A497"/>
<path d="M147.055 94.5034L149.747 145.346L140.756 159.177" fill="#EF6B5D"/>
<path d="M79.1514 99.9954C75.9865 99.9954 73.4115 97.0508 73.4115 93.432C73.4115 89.8132 75.9865 86.8691 79.1514 86.8691C82.3163 86.8691 84.8913 89.8132 84.8913 93.432C84.8913 93.9335 84.4847 94.3404 83.9829 94.3404C83.4811 94.3404 83.0745 93.9335 83.0745 93.432C83.0745 90.815 81.3145 88.6859 79.1514 88.6859C76.9883 88.6859 75.2283 90.815 75.2283 93.432C75.2283 96.0496 76.9883 98.1786 79.1514 98.1786C79.6532 98.1786 80.0598 98.5855 80.0598 99.087C80.0598 99.5885 79.6532 99.9954 79.1514 99.9954Z" fill="#EC6F5E"/>
<path d="M93.2515 99.9954C90.0866 99.9954 87.5116 97.0508 87.5116 93.432C87.5116 89.8132 90.0866 86.8691 93.2515 86.8691C96.4164 86.8691 98.9914 89.8132 98.9914 93.432C98.9914 93.9335 98.5848 94.3404 98.083 94.3404C97.5812 94.3404 97.1746 93.9335 97.1746 93.432C97.1746 90.815 95.4145 88.6859 93.2515 88.6859C91.0884 88.6859 89.3284 90.815 89.3284 93.432C89.3284 96.0496 91.0884 98.1786 93.2515 98.1786C93.7533 98.1786 94.1599 98.5855 94.1599 99.087C94.1599 99.5885 93.7533 99.9954 93.2515 99.9954Z" fill="#EC6F5E"/>
<path d="M107.351 99.9954C104.186 99.9954 101.612 97.0508 101.612 93.432C101.612 89.8132 104.186 86.8691 107.351 86.8691C110.516 86.8691 113.091 89.8132 113.091 93.432C113.091 93.9335 112.684 94.3404 112.183 94.3404C111.681 94.3404 111.275 93.9335 111.275 93.432C111.275 90.815 109.515 88.6859 107.351 88.6859C105.188 88.6859 103.428 90.815 103.428 93.432C103.428 96.0496 105.188 98.1786 107.351 98.1786C107.853 98.1786 108.26 98.5855 108.26 99.087C108.26 99.5885 107.853 99.9954 107.351 99.9954Z" fill="#EC6F5E"/>
<path d="M121.452 99.9954C118.286 99.9954 115.711 97.0508 115.711 93.432C115.711 89.8132 118.286 86.8691 121.452 86.8691C124.616 86.8691 127.191 89.8132 127.191 93.432C127.191 93.9335 126.784 94.3404 126.283 94.3404C125.781 94.3404 125.374 93.9335 125.374 93.432C125.374 90.815 123.614 88.6859 121.452 88.6859C119.288 88.6859 117.528 90.815 117.528 93.432C117.528 96.0496 119.288 98.1786 121.452 98.1786C121.953 98.1786 122.36 98.5855 122.36 99.087C122.36 99.5885 121.953 99.9954 121.452 99.9954Z" fill="#EC6F5E"/>
<path d="M135.551 99.9954C132.387 99.9954 129.812 97.0508 129.812 93.432C129.812 89.8132 132.387 86.8691 135.551 86.8691C138.716 86.8691 141.291 89.8132 141.291 93.432C141.291 93.9335 140.885 94.3404 140.383 94.3404C139.882 94.3404 139.475 93.9335 139.475 93.432C139.475 90.815 137.715 88.6859 135.551 88.6859C133.388 88.6859 131.628 90.815 131.628 93.432C131.628 96.0496 133.388 98.1786 135.551 98.1786C136.053 98.1786 136.46 98.5855 136.46 99.087C136.46 99.5885 136.053 99.9954 135.551 99.9954Z" fill="#EC6F5E"/>
<path d="M87.6857 119.728L76.1512 119.725L77.065 110.141L88.5996 110.143L87.6857 119.728Z" fill="#6A6AB0"/>
<path d="M102.9 119.728L91.3659 119.725L92.2798 110.141L103.814 110.143L102.9 119.728Z" fill="white"/>
<path d="M118.115 119.728L106.581 119.725L107.495 110.141L119.029 110.143L118.115 119.728Z" fill="white"/>
<path d="M133.33 119.728L121.795 119.725L122.709 110.141L134.244 110.143L133.33 119.728Z" fill="white"/>
<path d="M86.3025 132.867L74.768 132.865L75.6819 123.28L87.2165 123.283L86.3025 132.867Z" fill="white"/>
<path d="M101.517 132.867L89.9827 132.865L90.8966 123.28L102.431 123.283L101.517 132.867Z" fill="#6A6AB0"/>
<path d="M116.732 132.867L105.198 132.865L106.111 123.28L117.646 123.283L116.732 132.867Z" fill="white"/>
<path d="M131.947 132.867L120.412 132.865L121.326 123.28L132.861 123.283L131.947 132.867Z" fill="#EF5A4C"/>
<path d="M84.9193 146.008L73.3848 146.005L74.2987 136.421L85.8332 136.423L84.9193 146.008Z" fill="#EF5A4C"/>
<path d="M100.134 146.008L88.5996 146.005L89.5135 136.421L101.048 136.423L100.134 146.008Z" fill="white"/>
<path d="M115.349 146.008L103.814 146.005L104.728 136.421L116.263 136.423L115.349 146.008Z" fill="white"/>
<path d="M130.564 146.008L119.029 146.005L119.943 136.421L131.478 136.423L130.564 146.008Z" fill="white"/>
<path d="M81.308 117.487L79.8179 115.554L80.5856 114.963L81.3831 115.997L85.4812 111.666L86.185 112.332L81.308 117.487Z" fill="white"/>
<path d="M95.1392 130.628L93.6494 128.695L94.4171 128.103L95.2149 129.139L99.3131 124.807L100.017 125.473L95.1392 130.628Z" fill="white"/>
<path d="M128.857 126.523L128.214 125.88L126.696 127.399L125.179 125.88L124.536 126.523L126.054 128.041L124.536 129.559L125.179 130.201L126.696 128.683L128.214 130.201L128.857 129.559L127.339 128.041L128.857 126.523Z" fill="white"/>
<path d="M81.8293 139.662L81.1871 139.02L79.6692 140.538L78.1514 139.02L77.5091 139.662L79.0271 141.181L77.5091 142.699L78.1514 143.341L79.6692 141.823L81.1871 143.341L81.8293 142.699L80.3113 141.181L81.8293 139.662Z" fill="white"/>
<path d="M34.3197 133.802V109.079C34.3197 108.678 33.9942 108.352 33.5927 108.352H6.82927C6.42774 108.352 6.10224 108.678 6.10224 109.079V133.353C6.10224 133.379 6.10124 133.404 6.09877 133.43C5.98156 134.657 5.41026 136.705 3.04219 138.094C3.02127 138.106 3.02789 138.137 3.05213 138.137L30.3772 138.137C31.5435 138.137 32.6454 137.573 33.2979 136.607C33.7288 135.968 34.1288 135.102 34.3197 133.957C34.3286 133.904 34.3274 133.852 34.3197 133.802Z" fill="#DCEAF7"/>
<path d="M3.57265 130.218C3.57265 130.244 3.57154 130.269 3.56906 130.295C3.45185 131.522 2.88059 133.57 0.512523 134.959C0.491602 134.971 0.498255 135.002 0.522392 135.002H27.8476C29.0138 135.002 30.1157 134.438 30.7684 133.472C31.1991 132.833 31.5992 131.967 31.79 130.822C31.7989 130.769 31.7977 130.717 31.79 130.666V113.103H3.57265V130.218Z" fill="white"/>
<path d="M16.9672 129.289H10.8861V128.01L13.0699 125.802C13.7163 125.14 14.1388 124.681 14.3372 124.425C14.5357 124.169 14.6785 123.932 14.7657 123.714C14.8529 123.496 14.8967 123.27 14.8967 123.036C14.8967 122.687 14.8003 122.427 14.6081 122.256C14.4156 122.085 14.1586 122 13.8375 122C13.5001 122 13.1731 122.078 12.8558 122.232C12.5382 122.387 12.207 122.607 11.8619 122.893L10.8624 121.709C11.2906 121.344 11.6457 121.086 11.9273 120.935C12.2091 120.784 12.5166 120.668 12.8496 120.587C13.1828 120.506 13.5557 120.465 13.9682 120.465C14.5117 120.465 14.9916 120.564 15.4083 120.762C15.8249 120.961 16.1481 121.238 16.3782 121.596C16.6082 121.953 16.7233 122.361 16.7233 122.821C16.7233 123.222 16.6529 123.598 16.5121 123.949C16.3711 124.3 16.1532 124.66 15.8575 125.029C15.562 125.398 15.0413 125.924 14.2955 126.605L13.1769 127.659V127.742H16.9672V129.289Z" fill="#EC6F5E"/>
<path d="M24.1194 127.486H23.0723V129.289H21.2753V127.486H17.5622V126.206L21.3765 120.59H23.0723V126.058H24.1194V127.486ZM21.2753 126.058V124.582C21.2753 124.336 21.2851 123.979 21.3049 123.511C21.3247 123.043 21.3407 122.772 21.3525 122.696H21.3049C21.1582 123.021 20.9817 123.339 20.7753 123.648L19.1809 126.058H21.2753Z" fill="#EC6F5E"/>
<path d="M30.0909 106.286H5.35335C4.9821 106.286 4.68137 106.628 4.68137 107.051V114.584H30.7628V107.051C30.7628 106.628 30.462 106.286 30.0909 106.286Z" fill="#EC6F5E"/>
<path d="M17.3851 108.435C15.5272 108.435 14.0155 106.874 14.0155 104.955C14.0155 103.037 15.5272 101.476 17.3851 101.476C19.243 101.476 20.7543 103.037 20.7543 104.955C20.7543 105.29 20.4832 105.561 20.1487 105.561C19.8143 105.561 19.5431 105.29 19.5431 104.955C19.5431 103.705 18.575 102.687 17.3851 102.687C16.1949 102.687 15.2267 103.705 15.2267 104.955C15.2267 106.206 16.1949 107.224 17.3851 107.224C17.7195 107.224 17.9907 107.495 17.9907 107.83C17.9907 108.164 17.7195 108.435 17.3851 108.435Z" fill="#D64132"/>
<path d="M8.59233 108.435C6.73442 108.435 5.22308 106.874 5.22308 104.955C5.22308 103.037 6.73442 101.476 8.59233 101.476C10.4502 101.476 11.9616 103.037 11.9616 104.955C11.9616 105.29 11.6904 105.561 11.356 105.561C11.0215 105.561 10.7504 105.29 10.7504 104.955C10.7504 103.705 9.78224 102.687 8.59233 102.687C7.40242 102.687 6.43429 103.705 6.43429 104.955C6.43429 106.206 7.40242 107.224 8.59233 107.224C8.92677 107.224 9.19793 107.495 9.19793 107.83C9.19793 108.164 8.92677 108.435 8.59233 108.435Z" fill="#D64132"/>
<path d="M25.891 108.435C24.0331 108.435 22.5218 106.874 22.5218 104.955C22.5218 103.037 24.0331 101.476 25.891 101.476C27.7489 101.476 29.2603 103.037 29.2603 104.955C29.2603 105.29 28.9891 105.561 28.6547 105.561C28.3202 105.561 28.049 105.29 28.049 104.955C28.049 103.705 27.0809 102.687 25.891 102.687C24.7011 102.687 23.733 103.705 23.733 104.955C23.733 106.206 24.7011 107.224 25.891 107.224C26.2254 107.224 26.4966 107.495 26.4966 107.83C26.4966 108.164 26.2254 108.435 25.891 108.435Z" fill="#D64132"/>
<path d="M151.87 70.1075V47.1137C151.87 46.7402 151.568 46.4375 151.194 46.4375H126.302C125.929 46.4375 125.626 46.7402 125.626 47.1137V69.6906C125.626 69.7149 125.625 69.738 125.623 69.7622C125.514 70.9034 124.982 72.8077 122.78 74.0995C122.76 74.1109 122.767 74.14 122.789 74.14H148.204C149.288 74.14 150.313 73.6156 150.92 72.7166C151.321 72.1228 151.693 71.3171 151.87 70.2519C151.879 70.2024 151.878 70.1545 151.87 70.1075Z" fill="#DCEAF7"/>
<path d="M148.954 67.1915V44.1977C148.954 43.8242 148.652 43.5215 148.278 43.5215H123.386C123.013 43.5215 122.71 43.8242 122.71 44.1977V66.7746C122.71 66.7989 122.709 66.822 122.707 66.8462C122.598 67.9874 122.066 69.8917 119.864 71.1834C119.844 71.1949 119.85 71.224 119.873 71.224L145.287 71.224C146.372 71.224 147.397 70.6997 148.004 69.8006C148.405 69.2068 148.777 68.4011 148.954 67.3359C148.963 67.2864 148.961 67.2385 148.954 67.1915Z" fill="white"/>
<path d="M135.969 62.2081C135.969 63.7274 135.72 64.8523 135.222 65.5821C134.725 66.3119 133.958 66.6768 132.923 66.6768C131.919 66.6768 131.162 66.3 130.653 65.5466C130.143 64.7925 129.888 63.6801 129.888 62.2081C129.888 60.6728 130.136 59.5414 130.632 58.8134C131.128 58.086 131.892 57.7217 132.923 57.7217C133.927 57.7217 134.685 58.1025 135.199 58.8643C135.713 59.626 135.969 60.7408 135.969 62.2081ZM131.715 62.2081C131.715 63.2756 131.807 64.0403 131.992 64.5022C132.176 64.9641 132.487 65.1953 132.923 65.1953C133.351 65.1953 133.66 64.9611 133.851 64.4933C134.041 64.0249 134.137 63.2638 134.137 62.2081C134.137 61.1412 134.041 60.3747 133.848 59.9087C133.656 59.4427 133.347 59.2091 132.923 59.2091C132.491 59.2091 132.181 59.4427 131.994 59.9087C131.808 60.3747 131.715 61.1412 131.715 62.2081Z" fill="#EC6F5E"/>
<path d="M142.634 59.804C142.634 60.3475 142.469 60.8094 142.14 61.1903C141.811 61.5711 141.349 61.8325 140.754 61.9757V62.0111C141.456 62.0987 141.987 62.3116 142.348 62.6511C142.709 62.9899 142.89 63.4471 142.89 64.0225C142.89 64.8594 142.587 65.5111 141.979 65.9771C141.372 66.4432 140.505 66.6762 139.379 66.6762C138.435 66.6762 137.598 66.5194 136.868 66.206V64.6411C137.205 64.8121 137.576 64.9504 137.981 65.0581C138.385 65.1651 138.786 65.2183 139.183 65.2183C139.79 65.2183 140.238 65.1154 140.527 64.909C140.817 64.7026 140.962 64.3715 140.962 63.9155C140.962 63.5068 140.795 63.217 140.462 63.0467C140.129 62.8764 139.597 62.7906 138.867 62.7906H138.207V61.3807H138.879C139.554 61.3807 140.046 61.2926 140.358 61.1158C140.669 60.9395 140.825 60.6367 140.825 60.2085C140.825 59.5497 140.413 59.2209 139.588 59.2209C139.302 59.2209 139.011 59.2682 138.716 59.3634C138.42 59.4586 138.092 59.623 137.731 59.8572L136.88 58.5899C137.673 58.0186 138.619 57.7329 139.718 57.7329C140.619 57.7329 141.33 57.9157 141.851 58.2806C142.373 58.6455 142.634 59.1535 142.634 59.804Z" fill="#EC6F5E"/>
<path d="M147.49 43.3042H124.439C124.094 43.3042 123.813 43.6508 123.813 44.0784V51.7016H148.116V44.0784C148.116 43.6508 147.836 43.3042 147.49 43.3042Z" fill="#EC6F5E"/>
<path d="M128.196 46.5575C126.445 46.5575 125.021 45.0867 125.021 43.2788C125.021 41.4708 126.445 40 128.196 40C129.948 40 131.372 41.4708 131.372 43.2788C131.372 43.494 131.352 43.7093 131.312 43.9193C131.249 44.2481 130.932 44.4586 130.603 44.4007C130.275 44.338 130.059 44.0204 130.122 43.6922C130.148 43.5567 130.161 43.4177 130.161 43.2788C130.161 42.1385 129.28 41.2112 128.196 41.2112C127.113 41.2112 126.232 42.1385 126.232 43.2788C126.232 44.419 127.113 45.3463 128.196 45.3463C128.531 45.3463 128.802 45.6172 128.802 45.9519C128.802 46.2867 128.531 46.5575 128.196 46.5575Z" fill="#D64132"/>
<path d="M135.832 46.5575C134.081 46.5575 132.656 45.0867 132.656 43.2788C132.656 41.4708 134.081 40 135.832 40C137.583 40 139.008 41.4708 139.008 43.2788C139.008 43.6135 138.737 43.8844 138.402 43.8844C138.068 43.8844 137.797 43.6135 137.797 43.2788C137.797 42.1385 136.916 41.2112 135.832 41.2112C134.749 41.2112 133.867 42.1385 133.867 43.2788C133.867 44.419 134.749 45.3463 135.832 45.3463C136.167 45.3463 136.438 45.6172 136.438 45.9519C136.438 46.2867 136.167 46.5575 135.832 46.5575Z" fill="#D64132"/>
<path d="M143.468 46.5575C141.717 46.5575 140.292 45.0867 140.292 43.2788C140.292 41.4708 141.717 40 143.468 40C145.22 40 146.644 41.4708 146.644 43.2788C146.644 43.6135 146.373 43.8844 146.039 43.8844C145.704 43.8844 145.433 43.6135 145.433 43.2788C145.433 42.1385 144.551 41.2112 143.468 41.2112C142.384 41.2112 141.503 42.1385 141.503 43.2788C141.503 44.419 142.384 45.3463 143.468 45.3463C143.802 45.3463 144.073 45.6172 144.073 45.9519C144.073 46.2867 143.802 46.5575 143.468 46.5575Z" fill="#D64132"/>
</svg>
