<svg width="100" height="100" viewBox="0 0 100 100" fill="none" xmlns="http://www.w3.org/2000/svg">
<path d="M76.6666 89.9327C76.6117 94.6141 72.7816 98.3697 68.1 98.3327H45.9833C45.1361 98.3305 44.3079 98.0815 43.6 97.616C43.3632 97.4511 43.1402 97.2672 42.9333 97.066C41.7617 95.8976 41.3625 94.1616 41.906 92.5988C42.4494 91.0359 43.8396 89.9222 45.4833 89.7327C49.3566 89.3442 53.137 88.3075 56.6666 86.666C63.3333 83.3327 63.3333 81.666 70 81.666H70.15C73.4166 81.716 76.65 83.416 76.6666 89.9327Z" fill="#7F8E94"/>
<path d="M70.1499 81.6665H69.9999C68.9273 81.6545 67.8553 81.7174 66.7915 81.8548C69.4182 82.4365 71.6532 84.5215 71.6665 89.9331C71.6116 94.6146 67.7814 98.3702 63.0999 98.3331H68.0999C72.7814 98.3702 76.6116 94.6146 76.6665 89.9331C76.6499 83.4165 73.4165 81.7165 70.1499 81.6665Z" fill="#545C60"/>
<path d="M29.3997 98.2169C28.9711 98.2978 28.5358 98.3369 28.0997 98.3336H5.98301C3.70023 98.3294 1.81566 96.548 1.68317 94.2691C1.55067 91.9901 3.2161 90.0023 5.48301 89.7336C6.13301 89.6503 6.84968 89.5669 7.59968 89.4336C10.683 93.4503 17.0497 97.4836 29.3997 98.2169Z" fill="#7F8E94"/>
<path d="M7.59997 89.4336C6.84997 89.5669 6.1333 89.6503 5.4833 89.7336C4.77112 89.8185 4.09184 90.0816 3.5083 90.4986C6.8683 94.1386 13.1433 97.5486 24.4 98.2169C23.9714 98.2978 23.5361 98.3369 23.1 98.3336H28.1C28.5361 98.3369 28.9714 98.2978 29.4 98.2169C17.05 97.4836 10.6833 93.4503 7.59997 89.4336Z" fill="#545C60"/>
<path d="M70.9667 64.7003C70.6074 62.447 70.0039 60.2396 69.1667 58.117C66.6256 51.7453 61.4449 46.7895 54.9667 44.5337C52.0127 43.4329 48.9429 42.6724 45.8167 42.267C43.3962 39.5263 40.2086 37.5754 36.6667 36.667V40.0003C36.6667 40.0003 35 38.3337 30 38.3337C30.8972 39.4062 31.4492 40.7251 31.5833 42.117C29.9365 42.3882 28.326 42.8467 26.7833 43.4837C21.5488 45.7162 17.4874 50.0375 15.5833 55.4003C15.083 56.6374 14.649 57.9003 14.2833 59.1837C15.5584 58.6182 16.9385 58.3286 18.3333 58.3337C23.3068 58.3345 27.5237 61.9902 28.2301 66.9132C28.9366 71.8362 25.9179 76.5302 21.1454 77.9296C16.3729 79.3291 11.2973 77.0086 9.23333 72.4837C7.13333 74.567 5 76.2003 5 82.6003C5.10433 85.0995 6.01667 87.4973 7.6 89.4337C10.6833 93.4503 17.05 97.4837 29.4 98.217H29.4167C30.7333 98.3003 32.1167 98.3337 33.5667 98.3337C36.9242 98.3435 40.2779 98.1039 43.6 97.617C43.3632 97.4521 43.1403 97.2681 42.9333 97.067C41.7618 95.8986 41.3626 94.1626 41.906 92.5997C42.4494 91.0369 43.8396 89.9231 45.4833 89.7337C49.3566 89.3451 53.137 88.3085 56.6667 86.667C63.3333 83.3337 63.3333 81.667 70 81.667H70.15C71.1461 79.4852 71.6633 77.1154 71.6667 74.717C71.7148 71.3644 71.4807 68.0137 70.9667 64.7003ZM46.6667 81.667C41.1438 81.667 36.6667 77.1898 36.6667 71.667C36.6667 66.1441 41.1438 61.667 46.6667 61.667C52.1895 61.667 56.6667 66.1441 56.6667 71.667C56.6667 77.1898 52.1895 81.667 46.6667 81.667Z" fill="#F5F5F5"/>
<path d="M31.6667 39.9997V38.403C31.1567 38.3597 30.605 38.333 30 38.333C30.2864 38.6589 30.5315 39.0189 30.73 39.4047C31.0671 39.5608 31.382 39.7609 31.6667 39.9997Z" fill="#CFD8DC"/>
<path d="M44.1667 61.9998C40.1121 60.9344 35.8235 62.511 33.4245 65.9489C31.0255 69.3868 31.0255 73.9561 33.4245 77.394C35.8235 80.8319 40.1121 82.4086 44.1667 81.3431C39.7533 80.2076 36.6684 76.2285 36.6684 71.6715C36.6684 67.1144 39.7533 63.1353 44.1667 61.9998Z" fill="#CFD8DC"/>
<path d="M14.5265 58.4121C14.4465 58.6688 14.3599 58.9238 14.2832 59.1838C14.7814 58.9662 15.2972 58.7911 15.8249 58.6604C15.3983 58.5479 14.9645 58.465 14.5265 58.4121Z" fill="#CFD8DC"/>
<path d="M70.9665 64.7003C70.6073 62.447 70.0038 60.2396 69.1665 58.117C66.6255 51.7453 61.4448 46.7895 54.9665 44.5337C52.0126 43.4329 48.9428 42.6724 45.8165 42.267C43.396 39.5263 40.2085 37.5754 36.6665 36.667V38.7937C38.2098 39.7458 39.6075 40.9156 40.8165 42.267C43.9428 42.6724 47.0126 43.4329 49.9665 44.5337C56.4448 46.7895 61.6255 51.7453 64.1665 58.117C65.0038 60.2396 65.6073 62.447 65.9665 64.7003C66.4805 68.0137 66.7147 71.3644 66.6665 74.717C66.6632 77.1154 66.146 79.4852 65.1499 81.667H64.9999C58.3332 81.667 58.3332 83.3337 51.6665 86.667C48.1369 88.3085 44.3565 89.3451 40.4832 89.7337C38.8395 89.9231 37.4493 91.0369 36.9059 92.5997C36.3624 94.1626 36.7617 95.8986 37.9332 97.067C38.1401 97.2681 38.3631 97.4521 38.5999 97.617C35.9171 97.9964 33.2138 98.2129 30.5049 98.2653C31.4932 98.307 32.5049 98.3337 33.5665 98.3337C36.9241 98.3435 40.2778 98.1039 43.5999 97.617C43.3631 97.4521 43.1401 97.2681 42.9332 97.067C41.7617 95.8986 41.3624 94.1626 41.9059 92.5997C42.4493 91.0369 43.8395 89.9231 45.4832 89.7337C49.3565 89.3451 53.1369 88.3085 56.6665 86.667C63.3332 83.3337 63.3332 81.667 69.9999 81.667H70.1499C71.146 79.4852 71.6632 77.1154 71.6665 74.717C71.7147 71.3644 71.4805 68.0137 70.9665 64.7003Z" fill="#CFD8DC"/>
<path d="M13.3334 78.3334C14.1842 78.3302 15.031 78.2181 15.8534 78.0001C12.9299 77.2494 10.499 75.2236 9.23339 72.4834C8.19177 73.4024 7.27658 74.4555 6.51172 75.6151C8.35584 77.3578 10.7961 78.3302 13.3334 78.3334Z" fill="#CFD8DC"/>
<path d="M28.3332 68.334C28.335 73.0402 25.0552 77.1107 20.4564 78.11C15.8576 79.1092 11.1844 76.7666 9.23315 72.484C11.2937 70.6083 12.6076 68.0515 12.9332 65.284C13.2671 63.2268 13.7179 61.1901 14.2832 59.184C15.5582 58.6186 16.9384 58.329 18.3332 58.3341C23.856 58.3341 28.3332 62.8112 28.3332 68.334Z" fill="#37474F"/>
<path d="M26.7832 43.4828C21.5486 45.7154 17.4872 50.0367 15.5832 55.3995C12.732 53.6106 11.2369 50.2822 11.7935 46.9626C12.3501 43.643 14.849 40.9842 18.1277 40.2231C21.4064 39.462 24.8211 40.748 26.7832 43.4828Z" fill="#EF314C"/>
<path d="M73.3332 50.0001C73.3333 53.219 71.7822 56.2407 69.1665 58.1168C66.6255 51.7451 61.4448 46.7893 54.9666 44.5334C57.3876 40.8352 61.9494 39.1651 66.1859 40.4261C70.4225 41.6871 73.3286 45.5799 73.3332 50.0001Z" fill="#EF314C"/>
<path d="M63.3333 40C62.4814 39.9994 61.6329 40.1075 60.8083 40.3217C65.232 41.4517 68.3285 45.4343 68.3334 50C68.3326 51.5343 67.9754 53.0474 67.29 54.42C68.0177 55.5977 68.6455 56.8342 69.1667 58.1167C72.6886 55.5821 74.1741 51.0654 72.8442 46.9351C71.5143 42.8048 67.6725 40.0034 63.3333 40Z" fill="#BB193B"/>
<path d="M96.6332 87.1002C96.1195 86.8113 95.5392 86.6619 94.9499 86.6669H91.5665C88.6999 86.6669 85.8165 88.3669 85.0165 94.6669C84.9241 95.6123 85.2384 96.5524 85.8809 97.2522C86.5234 97.9519 87.4333 98.3451 88.3832 98.3335L68.0999 98.3338C72.7814 98.3706 76.6116 94.6149 76.6665 89.9335C76.6499 83.4169 73.4165 81.7169 70.1499 81.6669C71.146 79.4851 71.6632 77.1153 71.6665 74.7169C71.7147 71.3642 71.4805 68.0135 70.9665 64.7002C74.616 64.9337 78.219 65.6453 81.6832 66.8169C85.5269 68.0719 88.9708 70.3199 91.6665 73.3335C92.0173 73.7273 92.3403 74.145 92.6332 74.5835C95.2105 78.2508 96.6061 82.6179 96.6332 87.1002Z" fill="#607D8B"/>
<path d="M85.0164 94.667C85.723 89.102 88.0547 87.1287 90.5664 86.7437C90.3635 86.7001 90.1571 86.6744 89.9497 86.667H86.5664C83.6997 86.667 80.8164 88.367 80.0164 94.667C79.9239 95.6124 80.2382 96.5526 80.8807 97.2523C81.5232 97.9521 82.4331 98.3453 83.383 98.3337H88.383C87.4331 98.3453 86.5232 97.9521 85.8807 97.2523C85.2382 96.5526 84.9239 95.6124 85.0164 94.667Z" fill="#37474F"/>
<path d="M92.6332 74.5835C92.3403 74.145 92.0173 73.7273 91.6665 73.3335C88.9708 70.3199 85.5269 68.0719 81.6832 66.8169C78.219 65.6453 74.616 64.9337 70.9666 64.7002C71.0032 64.9169 71.0232 65.1319 71.0565 65.3485C72.968 65.6885 74.8494 66.1795 76.6832 66.8169C80.5269 68.0719 83.9708 70.3199 86.6665 73.3335C87.0173 73.7273 87.3403 74.145 87.6332 74.5835C90.1304 78.1264 91.5143 82.3334 91.6082 86.6669H94.9415C95.5309 86.6619 96.1112 86.8113 96.6249 87.1002C96.6002 82.6188 95.2076 78.2518 92.6332 74.5835Z" fill="#37474F"/>
<path d="M98.3331 66.6663C98.3313 70.2558 96.0367 73.4429 92.6331 74.583C92.3402 74.1445 92.0172 73.7268 91.6664 73.333C88.9707 70.3194 85.5268 68.0713 81.6831 66.8163C81.6694 66.7676 81.6637 66.7169 81.6664 66.6663C81.6664 62.064 85.3974 58.333 89.9998 58.333C94.6021 58.333 98.3331 62.064 98.3331 66.6663Z" fill="#F5F5F5"/>
<path d="M90 58.334C89.1497 58.3457 88.3064 58.489 87.5 58.759C90.2701 59.6206 92.389 61.8663 93.0882 64.6818C93.7874 67.4972 92.9652 70.4734 90.92 72.5307C91.1717 72.794 91.42 73.054 91.6667 73.334C92.0174 73.7278 92.3404 74.1455 92.6333 74.584C96.5281 73.304 98.9133 69.3812 98.2575 65.3343C97.6016 61.2873 94.0997 58.3186 90 58.334Z" fill="#CFD8DC"/>
<path d="M98.3333 89.9995V94.9995C98.3159 96.8528 96.8032 98.343 94.9499 98.3329H88.3833C87.4334 98.3445 86.5234 97.9513 85.881 97.2515C85.2385 96.5518 84.9242 95.6116 85.0166 94.6662C85.8166 88.3662 88.6999 86.6662 91.5666 86.6662H94.9499C95.8414 86.6569 96.6998 87.0035 97.3349 87.6292C97.97 88.2549 98.3293 89.108 98.3333 89.9995Z" fill="#7F8E94"/>
<path d="M96.633 87.1004C96.1194 86.8115 95.539 86.6621 94.9497 86.6671H91.5664C91.2316 86.6676 90.8973 86.6933 90.5664 86.7438C90.9396 86.8011 91.3004 86.9217 91.633 87.1004C92.6788 87.6923 93.3275 88.7989 93.333 90.0004V95.0004C93.3156 96.8537 91.803 98.344 89.9497 98.3338L94.9497 98.3338C96.803 98.344 98.3156 96.8537 98.333 95.0004V90.0004C98.3275 88.7989 97.6788 87.6923 96.633 87.1004Z" fill="#545C60"/>
<path d="M46.6667 81.667C52.1896 81.667 56.6667 77.1898 56.6667 71.667C56.6667 66.1441 52.1896 61.667 46.6667 61.667C41.1439 61.667 36.6667 66.1441 36.6667 71.667C36.6667 77.1898 41.1439 81.667 46.6667 81.667Z" fill="#37474F"/>
<path d="M65 31.667H48.3334C46.9173 31.6677 45.6554 30.7736 45.1865 29.4374C44.7176 28.1013 45.1441 26.6147 46.25 25.7303L55.5 18.3337H48.3334C46.4924 18.3337 45 16.8413 45 15.0003C45 13.1594 46.4924 11.667 48.3334 11.667H65C66.4161 11.6663 67.678 12.5604 68.1469 13.8966C68.6158 15.2327 68.1893 16.7193 67.0834 17.6037L57.8334 25.0003H65C66.841 25.0003 68.3334 26.4927 68.3334 28.3337C68.3334 30.1746 66.841 31.667 65 31.667Z" fill="#02A9F4"/>
<path d="M95 21.667H78.3334C76.9173 21.6677 75.6554 20.7736 75.1865 19.4374C74.7176 18.1013 75.1441 16.6147 76.25 15.7303L85.5 8.33366H78.3334C76.4924 8.33366 75 6.84128 75 5.00033C75 3.15938 76.4924 1.66699 78.3334 1.66699H95C96.4161 1.66633 97.678 2.5604 98.1469 3.89656C98.6158 5.23272 98.1893 6.7193 97.0834 7.60366L87.8334 15.0003H95C96.841 15.0003 98.3334 16.4927 98.3334 18.3337C98.3334 20.1746 96.841 21.667 95 21.667Z" fill="#02A9F4"/>
<path d="M99.9999 66.6665C99.9976 61.5444 96.1253 57.2521 91.0304 56.7243C85.9356 56.1964 81.2656 59.6036 80.2132 64.6165C77.6638 63.9037 75.0556 63.4212 72.4199 63.1748C72.1099 61.6332 71.6911 60.1155 71.1666 58.6332C74.4082 55.7047 75.7404 51.2096 74.6178 46.9878C73.4952 42.766 70.1062 39.5263 65.8382 38.5947C61.5701 37.6632 57.1395 39.1963 54.3599 42.5665C51.8516 41.7109 49.2703 41.0867 46.6483 40.7015C44.0568 37.949 40.7369 35.9891 37.0749 35.0498C36.5765 34.9239 36.0478 35.035 35.6423 35.351C35.2367 35.6669 34.9997 36.1524 34.9999 36.6665V37.3232C33.3752 36.8566 31.69 36.6352 29.9999 36.6665C29.3392 36.6722 28.7442 37.0678 28.4833 37.6748C28.2216 38.2869 28.3436 38.9955 28.7949 39.4848C29.127 39.8854 29.3849 40.342 29.5566 40.8332C28.7666 41.0232 28.0166 41.2498 27.2949 41.4998C24.4892 38.5073 20.1404 37.5319 16.3253 39.0393C12.5102 40.5466 10.0026 44.2311 9.99992 48.3332C9.99117 51.2877 11.2992 54.0925 13.5683 55.9848C12.5355 58.9142 11.7724 61.9317 11.2883 64.9998C11.0197 67.4374 9.8649 69.6913 8.04325 71.3332C8.02492 71.3515 8.00492 71.3682 7.98825 71.3865L7.65492 71.7082C5.63159 73.6798 3.33325 75.9182 3.33325 82.5998C3.36611 84.5494 3.86075 86.4634 4.77659 88.1848C1.77467 88.8004 -0.273279 91.5893 0.0380674 94.6379C0.349414 97.6864 2.91887 100.004 5.98325 99.9998H28.0999C28.5428 99.9941 28.9847 99.9545 29.4216 99.8815C30.7416 99.9581 32.1199 99.9998 33.5666 99.9998C36.8165 100.004 40.0627 99.781 43.2816 99.3331C44.1151 99.767 45.0402 99.9956 45.9799 99.9998H94.9549C97.7275 100.009 99.9843 97.7723 99.9999 94.9998V89.9998C99.9938 88.5524 99.3543 87.1803 98.2499 86.2448C98.1011 82.3789 97.01 78.6079 95.0716 75.2598C98.1189 73.4689 99.993 70.2011 99.9999 66.6665ZM81.1283 68.3882C84.702 69.5467 87.9051 71.6313 90.4116 74.4298C90.7294 74.7883 91.0223 75.1681 91.2882 75.5665C93.2684 78.3476 94.4813 81.6011 94.8049 84.9998H91.5749C88.9516 84.9998 84.3949 86.2281 83.3699 94.4531C83.283 95.2012 83.3726 95.9593 83.6316 96.6665H75.6866C77.392 94.8403 78.3383 92.4335 78.3333 89.9348C78.3132 83.3281 75.2682 81.0215 72.4482 80.2998C73.0312 78.4959 73.3298 76.6122 73.3333 74.7165C73.3715 71.9993 73.2474 69.2822 72.9616 66.5798C75.7422 66.8793 78.4811 67.4857 81.1283 68.3882ZM63.3333 41.6665C66.5671 41.6597 69.5118 43.5281 70.8829 46.457C72.254 49.3858 71.803 52.8439 69.7266 55.3232C67.1238 50.2534 62.8696 46.2232 57.6666 43.8982C59.2036 42.4618 61.2295 41.664 63.3333 41.6665ZM13.3333 48.3332C13.3264 45.8108 14.7477 43.5017 17.0028 42.3716C19.2578 41.2414 21.9582 41.4847 23.9749 42.9998C20.0433 45.2252 16.8988 48.6155 14.9749 52.7032C13.9147 51.4945 13.3311 49.941 13.3333 48.3332ZM14.5766 65.5598C14.8566 63.9015 15.1983 62.1882 15.6449 60.4848C18.769 59.411 22.2325 60.288 24.4691 62.7192C26.7056 65.1505 27.2912 68.675 25.9609 71.6988C24.6306 74.7227 21.6368 76.6725 18.3333 76.6665C15.4725 76.6567 12.8149 75.1864 11.2866 72.7682C13.0967 70.7598 14.2453 68.2432 14.5766 65.5598ZM5.98325 96.6665C4.5799 96.6621 3.42358 95.5638 3.34706 94.1626C3.27054 92.7613 4.30039 91.5436 5.69492 91.3865L5.99325 91.3481C6.26159 91.3148 6.56659 91.2631 6.85159 91.2248C8.97539 93.5854 11.5976 95.4442 14.5283 96.6665H5.98325ZM6.66659 82.5998C6.66659 78.3898 7.60659 76.6365 8.92659 75.1798C12.1656 79.6277 18.0745 81.204 23.0986 78.9603C28.1227 76.7167 30.8928 71.2647 29.7427 65.8839C28.5926 60.5032 23.8356 56.6601 18.3333 56.6665C17.8276 56.67 17.3227 56.7056 16.8216 56.7732C19.1549 50.6198 23.3949 45.2132 31.8666 43.7582C32.7479 43.6057 33.3517 42.7849 33.2349 41.8982C33.1628 41.3335 33.0429 40.7759 32.8766 40.2315C33.8065 40.3465 34.6989 40.6683 35.4883 41.1732C35.9643 41.649 36.6798 41.7919 37.302 41.5353C37.9243 41.2786 38.3311 40.6729 38.3333 39.9998V38.9565C40.7218 39.9313 42.8549 41.4411 44.5682 43.3698C44.832 43.668 45.1939 43.862 45.5883 43.9165C67.0999 46.9115 69.9999 61.1665 69.9999 74.7165C69.9902 76.5324 69.6514 78.3315 68.9999 80.0265C65.8788 79.9853 62.8251 80.9353 60.2783 82.7398C59.1232 83.4382 57.8116 84.2298 55.9182 85.1748C52.5619 86.7299 48.9689 87.7124 45.2882 88.0815C43.4296 88.2947 41.7786 89.3677 40.8288 90.9796C39.8791 92.5915 39.7407 94.5556 40.4549 96.2848C38.1668 96.5289 35.8677 96.6562 33.5666 96.6665C12.2899 96.6665 6.66659 87.4648 6.66659 82.5998ZM61.6666 96.6665H45.9799C44.5798 96.6633 43.4244 95.5703 43.3436 94.1726C43.2628 92.7748 44.2845 91.556 45.6749 91.3915C49.7406 90.9783 53.7079 89.8853 57.4116 88.1581C59.4232 87.1581 60.8549 86.2865 62.0049 85.5931C64.3126 83.9052 67.1501 83.1031 69.9999 83.3331C72.1383 83.3331 74.9833 84.0181 74.9999 89.9448C75.0028 91.6981 74.3021 93.3792 73.0549 94.6115C71.7394 95.9239 69.9581 96.6626 68.0999 96.6665H61.6666ZM96.6666 94.9998C96.6529 95.9322 95.8873 96.6776 94.9549 96.6665H88.3883C87.8827 96.6683 87.4007 96.4528 87.0649 96.0748C86.7674 95.7462 86.6264 95.3051 86.6783 94.8648C87.4999 88.3331 90.5649 88.3331 91.5749 88.3331H94.9549C95.8873 88.322 96.6529 89.0675 96.6666 89.9998V94.9998ZM93.1666 72.5315C93.0866 72.4365 93.0166 72.3465 92.9316 72.2481C90.3386 69.3435 87.0783 67.1128 83.4316 65.7482C83.8659 62.6394 86.4139 60.2571 89.5449 60.0325C92.6758 59.8079 95.5378 61.8021 96.4114 64.8171C97.285 67.832 95.9326 71.0474 93.1666 72.5315Z" fill="black"/>
<path d="M58.3333 71.6667C58.3333 65.2233 53.11 60 46.6667 60C40.2233 60 35 65.2233 35 71.6667C35 78.11 40.2233 83.3333 46.6667 83.3333C53.1069 83.326 58.326 78.1069 58.3333 71.6667ZM38.3333 71.6667C38.3333 67.0643 42.0643 63.3333 46.6667 63.3333C51.269 63.3333 55 67.0643 55 71.6667C55 76.269 51.269 80 46.6667 80C42.0666 79.9945 38.3388 76.2668 38.3333 71.6667Z" fill="black"/>
<path d="M18.3334 71.6673H21.6668C22.5872 71.6673 23.3334 70.9211 23.3334 70.0006C23.3334 69.0802 22.5872 68.334 21.6668 68.334H18.3334C17.4129 68.334 16.6667 69.0802 16.6667 70.0006C16.6667 70.9211 17.4129 71.6673 18.3334 71.6673Z" fill="black"/>
<path d="M48.3334 71.6667C48.3334 70.7462 47.5872 70 46.6668 70H43.3334C42.4129 70 41.6667 70.7462 41.6667 71.6667C41.6667 72.5871 42.4129 73.3333 43.3334 73.3333H46.6668C47.5872 73.3333 48.3334 72.5871 48.3334 71.6667Z" fill="black"/>
<path d="M30.9217 78.5085L28.6617 79.6385L27.845 78.8219C27.1911 78.1903 26.1516 78.1993 25.5087 78.8422C24.8658 79.4851 24.8567 80.5246 25.4884 81.1785L27.155 82.8452C27.4675 83.1578 27.8914 83.3334 28.3334 83.3335C28.5912 83.3357 28.846 83.2787 29.0784 83.1669L32.4117 81.5002C33.2355 81.0888 33.5698 80.0874 33.1584 79.2635C32.7469 78.4397 31.7455 78.1054 30.9217 78.5169V78.5085Z" fill="black"/>
<path d="M43.615 29.9883C44.3179 31.9922 46.2098 33.3334 48.3334 33.3333H65C67.7614 33.3333 70 31.0948 70 28.3333C70 25.5719 67.7614 23.3333 65 23.3333H62.5867L68.1234 18.9033C69.7806 17.5766 70.4195 15.3481 69.7167 13.3449C69.014 11.3417 67.1229 10.0006 65 10H48.3334C45.5719 10 43.3334 12.2386 43.3334 15C43.3334 17.7614 45.5719 20 48.3334 20H50.7467L45.21 24.43C43.5522 25.7563 42.9127 27.9848 43.615 29.9883ZM47.2917 27.0317L56.5384 19.635C57.0908 19.1932 57.3042 18.4508 57.0707 17.783C56.8371 17.1153 56.2074 16.6677 55.5 16.6667H48.3334C47.4129 16.6667 46.6667 15.9205 46.6667 15C46.6667 14.0795 47.4129 13.3333 48.3334 13.3333H65C65.708 13.333 66.339 13.78 66.5734 14.4481C66.8079 15.1162 66.5947 15.8595 66.0417 16.3017L56.795 23.6983C56.2425 24.1401 56.0291 24.8826 56.2627 25.5503C56.4963 26.218 57.126 26.6656 57.8334 26.6667H65C65.9205 26.6667 66.6667 27.4129 66.6667 28.3333C66.6667 29.2538 65.9205 30 65 30H48.3334C47.6253 30.0003 46.9944 29.5533 46.7599 28.8852C46.5255 28.2171 46.7387 27.4738 47.2917 27.0317Z" fill="black"/>
<path d="M94.9999 13.3333H92.5866L98.1233 8.90333C99.7805 7.57664 100.419 5.34807 99.7166 3.34487C99.0139 1.34166 97.1228 0.000596367 94.9999 0H78.3333C75.5718 0 73.3333 2.23858 73.3333 5C73.3333 7.76142 75.5718 10 78.3333 10H80.7466L75.2099 14.43C73.5527 15.7567 72.9138 17.9853 73.6166 19.9885C74.3193 21.9917 76.2104 23.3327 78.3333 23.3333H94.9999C97.7614 23.3333 99.9999 21.0948 99.9999 18.3333C99.9999 15.5719 97.7614 13.3333 94.9999 13.3333ZM94.9999 20H78.3333C77.6252 20.0003 76.9943 19.5533 76.7598 18.8852C76.5254 18.2171 76.7386 17.4739 77.2916 17.0317L86.5383 9.635C87.0907 9.1932 87.3041 8.45076 87.0706 7.78302C86.837 7.11529 86.2073 6.66775 85.4999 6.66667H78.3333C77.4128 6.66667 76.6666 5.92048 76.6666 5C76.6666 4.07953 77.4128 3.33333 78.3333 3.33333H94.9999C95.708 3.333 96.3389 3.78004 96.5734 4.44812C96.8078 5.1162 96.5946 5.85949 96.0416 6.30167L86.7949 13.6983C86.2424 14.1401 86.029 14.8826 86.2626 15.5503C86.4962 16.218 87.1258 16.6656 87.8333 16.6667H94.9999C95.9204 16.6667 96.6666 17.4129 96.6666 18.3333C96.6666 19.2538 95.9204 20 94.9999 20Z" fill="black"/>
</svg>
