<svg width="212" height="200" viewBox="0 0 212 200" fill="none" xmlns="http://www.w3.org/2000/svg">
<path d="M63.5 90.0001C37.8757 100.082 18.5 107.5 21.5 136.5C24.5 165.5 83.5 200.5 138 184.5C192.5 168.5 221.5 132.5 182 112.5C142.5 92.5002 172.5 65.5001 135.5 51.0001C91 33.5608 94 78 63.5 90.0001Z" fill="#FF3C3C"/>
<path d="M63.5 90.0001C37.8757 100.082 18.5 107.5 21.5 136.5C24.5 165.5 83.5 200.5 138 184.5C192.5 168.5 221.5 132.5 182 112.5C142.5 92.5002 172.5 65.5001 135.5 51.0001C91 33.5608 94 78 63.5 90.0001Z" fill="white" fill-opacity="0.9"/>
<path d="M34.312 99.2386C33.9555 99.2386 33.6582 98.9583 33.6411 98.5979C33.538 96.4008 34.2221 94.2949 35.5665 92.6696C36.9266 91.0258 38.7968 90.0674 40.8338 89.9723C42.8806 89.8797 44.8223 90.6569 46.3302 92.1661C47.821 93.6588 48.698 95.6912 48.801 97.8883C48.8181 98.2592 48.5319 98.5736 48.161 98.5914C47.796 98.6189 47.4757 98.3216 47.4579 97.9513C47.3706 96.089 46.6328 94.3717 45.379 93.116C44.1422 91.8773 42.5609 91.23 40.8968 91.3153C39.2432 91.3928 37.7176 92.1779 36.6023 93.5262C35.4713 94.8936 34.8969 96.6726 34.9842 98.5349C35.0013 98.9058 34.715 99.2202 34.3442 99.238C34.3336 99.2386 34.3225 99.2386 34.312 99.2386Z" fill="#EC6F5E"/>
<path d="M37.9212 98.7437C37.5648 98.7437 37.2674 98.4628 37.2503 98.103C37.1394 95.7201 38.8383 93.6976 41.038 93.5946C43.2305 93.4961 45.1178 95.3473 45.2301 97.7295C45.2471 98.1004 44.9609 98.4148 44.59 98.4326C44.2178 98.4575 43.9047 98.1634 43.887 97.7925C43.8102 96.1501 42.5531 94.8589 41.101 94.9377C39.6417 95.0059 38.5166 96.3976 38.5934 98.04C38.6105 98.4109 38.3243 98.726 37.9534 98.7431C37.9422 98.7437 37.9317 98.7437 37.9212 98.7437Z" fill="#EC6F5E"/>
<path d="M96.6729 68.8045C96.3165 68.8045 96.0191 68.5242 96.0021 68.1638C95.8839 65.645 96.6677 63.232 98.2077 61.3696C99.7641 59.4889 101.903 58.3926 104.233 58.2837C109.025 58.0539 113.105 62.1278 113.35 67.3518C113.367 67.7227 113.081 68.0371 112.71 68.0548C112.357 68.0791 112.025 67.7857 112.007 67.4148C111.797 62.9306 108.338 59.4187 104.296 59.6268C102.349 59.718 100.555 60.641 99.2442 62.2269C97.9169 63.8306 97.2427 65.9168 97.3451 68.1008C97.3622 68.4717 97.076 68.7861 96.7051 68.8039C96.6946 68.8045 96.6834 68.8045 96.6729 68.8045Z" fill="#EC6F5E"/>
<path d="M100.854 68.2327C100.497 68.2327 100.2 67.9518 100.183 67.5921C100.057 64.8908 101.98 62.5978 104.469 62.481C105.687 62.4193 106.853 62.8886 107.752 63.7893C108.633 64.6722 109.153 65.8728 109.213 67.1693C109.23 67.5402 108.944 67.8553 108.573 67.8724C108.205 67.8966 107.888 67.6026 107.87 67.2323C107.825 66.2706 107.445 65.3851 106.8 64.7385C106.172 64.1103 105.362 63.7886 104.532 63.8241C102.783 63.9061 101.434 65.5682 101.526 67.529C101.543 67.8999 101.257 68.215 100.886 68.2321C100.875 68.2327 100.864 68.2327 100.854 68.2327Z" fill="#EC6F5E"/>
<path d="M126.76 103.351L126.794 103.377L126.768 102.745C126.768 101.971 126.734 101.29 126.683 100.711L126.437 94.8132C126.437 94.804 126.437 94.7948 126.437 94.7856L126.462 93.9655C126.494 92.4711 125.938 90.6487 124.266 90.1105C124.229 90.0985 124.189 90.0922 124.15 90.0911L123.182 90.0647C123.18 90.0646 123.178 90.0647 123.177 90.0648C122.264 90.1381 121.483 90.9464 121.441 91.861L121 101.475C120.99 101.687 120.811 101.851 120.599 101.842C120.387 101.833 120.222 101.654 120.23 101.441L120.453 96.0472V95.0122L120.494 95.0409L120.747 88.9127C120.748 88.876 120.745 88.8388 120.737 88.8029C120.459 87.5897 119.325 86.6588 117.958 86.6291L117.44 86.617C117.123 86.6098 116.823 86.6716 116.546 86.787C115.713 87.1332 115.196 87.9777 115.159 88.8788L114.83 96.8591L114.797 96.8577V96.9571L114.701 96.8537L114.444 96.8432C114.234 96.8345 114.07 96.6566 114.078 96.4457L114.512 85.9089C114.514 85.8609 114.509 85.8123 114.494 85.7666C114.132 84.6687 113.059 83.8542 111.781 83.8264L111.261 83.813C110.888 83.8049 110.518 83.9019 110.17 84.0597C109.257 84.4731 108.67 85.3853 108.627 86.3867L108.31 93.7837C108.301 93.9958 108.122 94.1605 107.91 94.1518L107.901 94.1514C107.692 94.1428 107.528 93.9698 107.531 93.7613L107.731 79.8343L107.569 73.7702C107.601 72.26 106.902 70.6203 105.304 70.5841L104.784 70.5721C103.185 70.5358 101.85 71.7427 101.815 73.2526L101.693 94.05C101.693 94.1164 101.677 94.1793 101.644 94.2367C101.22 94.9694 100.282 96.1746 98.7305 96.1622C98.6056 96.1612 98.4932 96.088 98.4354 95.9772C97.7127 94.5908 93.7732 85.1243 87.8552 86.8503C86.4819 87.2513 86.8869 89.6395 87.3697 90.1237C91.6832 94.4608 92.4824 101.651 92.5543 101.924C92.5561 101.931 92.5576 101.936 92.5599 101.943L95.2231 110.157C95.2293 110.176 95.2329 110.194 95.2349 110.215C95.2592 110.444 95.6493 111.067 99.1091 116.449C99.1096 116.449 99.1101 116.45 99.1106 116.451L100.084 118.2C100.399 118.712 102.043 121.404 102.311 122.381H105.599C107.102 122.416 108.981 122.409 110.921 122.381H121.515C121.524 122.339 121.53 122.296 121.524 122.25C121.507 122.132 121.504 122.001 121.512 121.858L122.823 118.561C125.865 112.099 126.678 106.873 126.76 103.351ZM113.772 95.8577V95.8385L113.841 95.9321L113.772 95.8577Z" fill="#F9B59E"/>
<path d="M122.265 122.382H121.515H110.922C108.981 122.41 107.102 122.416 105.599 122.382H102.311H100.89C100.265 122.382 99.7525 123.049 99.7525 123.864V131.702C99.7525 132.376 100.106 132.942 100.581 133.119C100.68 133.156 100.782 133.182 100.89 133.182L120.624 135.035L122.056 135.17C122.681 135.17 123.193 134.504 123.193 133.691L123.399 123.864C123.399 123.049 122.89 122.382 122.265 122.382Z" fill="#F2F2F2"/>
<path d="M100.889 133.268C100.782 133.268 100.68 133.243 100.581 133.208L97.5068 188.328L122.082 188.144L120.624 135.041L100.889 133.268Z" fill="#EF5A4C"/>
<path d="M121.19 132.766C122.145 132.766 122.919 131.991 122.919 131.036C122.919 130.081 122.145 129.307 121.19 129.307C120.234 129.307 119.46 130.081 119.46 131.036C119.46 131.991 120.234 132.766 121.19 132.766Z" fill="#EF5A4C"/>
<path d="M174.204 105.921C174.15 105.921 174.095 105.914 174.04 105.901C173.68 105.811 173.461 105.446 173.55 105.086C173.995 103.304 173.783 101.475 172.955 99.9366C172.139 98.4189 170.818 97.3667 169.236 96.9728C167.656 96.5796 165.995 96.8888 164.562 97.8452C163.109 98.8154 162.064 100.331 161.62 102.113C161.53 102.473 161.167 102.689 160.805 102.603C160.445 102.513 160.226 102.148 160.315 101.788C160.84 99.6806 162.084 97.8833 163.815 96.7273C165.567 95.5568 167.608 95.1827 169.562 95.6678C171.515 96.1549 173.141 97.4441 174.139 99.2999C175.126 101.133 175.38 103.304 174.855 105.411C174.779 105.717 174.505 105.921 174.204 105.921Z" fill="#EC6F5E"/>
<path d="M170.875 104.761C170.821 104.761 170.766 104.755 170.711 104.742C170.352 104.652 170.132 104.287 170.222 103.926C170.414 103.156 170.323 102.366 169.967 101.704C169.622 101.063 169.067 100.619 168.405 100.454C167.74 100.288 167.042 100.42 166.438 100.824C165.812 101.242 165.362 101.897 165.17 102.668C165.08 103.028 164.719 103.244 164.355 103.158C163.995 103.068 163.776 102.703 163.865 102.342C164.139 101.246 164.787 100.31 165.691 99.7061C166.615 99.089 167.693 98.8921 168.729 99.1488C169.764 99.4067 170.624 100.088 171.151 101.067C171.666 102.024 171.8 103.155 171.527 104.252C171.45 104.557 171.176 104.761 170.875 104.761Z" fill="#EC6F5E"/>
<path d="M62.4814 74.5264C62.4807 74.5264 62.4801 74.5264 62.4788 74.5264C62.2332 74.5257 62.0074 74.3905 61.8906 74.1745L58.6156 68.1359L52.5993 64.8175C52.3846 64.6987 52.2514 64.4723 52.252 64.2261C52.2527 63.9806 52.3879 63.7548 52.6039 63.6379L58.6425 60.3629L61.9608 54.3473C62.0796 54.1333 62.3048 54 62.5497 54C62.5503 54 62.551 54 62.5523 54C62.7978 54.0007 63.0236 54.1359 63.1405 54.3519L66.4155 60.3905L72.4318 63.7082C72.6464 63.827 72.7797 64.0534 72.779 64.2996C72.7784 64.5451 72.6431 64.7709 72.4272 64.8878L66.3879 68.1628L63.0702 74.1791C62.9514 74.3931 62.7262 74.5264 62.4814 74.5264ZM54.3251 64.234L59.4374 67.0534C59.5497 67.1158 59.6423 67.209 59.7033 67.3219L62.4866 72.4533L65.3054 67.3409C65.3678 67.2287 65.461 67.1361 65.5739 67.0751L70.706 64.2917L65.5936 61.473C65.4813 61.4106 65.3888 61.3174 65.3277 61.2045L62.5444 56.0731L59.725 61.1848C59.6626 61.297 59.5694 61.3896 59.4565 61.4506L54.3251 64.234Z" fill="#EC6F5E"/>
<path d="M203.95 148.522C203.95 148.522 203.949 148.522 203.948 148.522C203.702 148.521 203.476 148.386 203.36 148.17L200.91 143.651L196.408 141.169C196.194 141.051 196.061 140.824 196.061 140.578C196.062 140.332 196.197 140.107 196.413 139.99L200.931 137.54L203.413 133.039C203.532 132.825 203.757 132.691 204.002 132.691C204.003 132.691 204.003 132.691 204.005 132.691C204.25 132.692 204.476 132.827 204.593 133.043L207.043 137.562L211.544 140.044C211.759 140.162 211.892 140.389 211.891 140.635C211.891 140.881 211.755 141.106 211.539 141.223L207.021 143.673L204.539 148.174C204.421 148.388 204.195 148.522 203.95 148.522ZM198.134 140.586L201.732 142.569C201.844 142.631 201.936 142.724 201.997 142.837L203.956 146.449L205.939 142.851C206.001 142.739 206.094 142.646 206.207 142.585L209.818 140.627L206.221 138.644C206.109 138.582 206.016 138.488 205.955 138.376L203.997 134.764L202.013 138.362C201.951 138.474 201.858 138.567 201.745 138.628L198.134 140.586Z" fill="#EC6F5E"/>
<path d="M148.97 188.817H166.447L168.494 162.057L168.865 159.681C168.868 159.682 168.871 159.682 168.873 159.683C169.04 159.712 170.299 150.768 170.31 150.599C170.317 150.507 170.336 150.407 170.365 150.301L171.891 148.024C175.24 143.638 176.703 139.824 177.338 137.178L177.359 137.203L177.442 136.722C177.568 136.136 177.653 135.617 177.709 135.171L178.197 131.954C178.198 131.947 178.2 131.94 178.202 131.933L179.499 127.494C179.766 126.371 179.643 124.904 178.467 124.226C178.441 124.211 178.412 124.2 178.383 124.192L177.656 124.015C177.655 124.015 177.654 124.015 177.652 124.014C176.951 123.921 176.23 124.405 176.049 125.089L173.793 132.501C173.751 132.659 173.589 132.754 173.431 132.713C173.272 132.672 173.176 132.51 173.218 132.351L173.762 130.636L173.931 129.855L173.957 129.883L175.672 122.798C175.679 122.77 175.683 122.741 175.683 122.713C175.67 121.751 174.965 120.864 173.937 120.619L173.548 120.526C173.31 120.469 173.074 120.467 172.845 120.509C172.16 120.635 171.632 121.189 171.457 121.863L169.384 130.335L169.36 130.329L169.343 130.404L169.287 130.31L169.095 130.26C168.938 130.22 168.843 130.058 168.884 129.901L171.828 117.773C171.837 117.737 171.84 117.699 171.836 117.662C171.742 116.775 171.064 115.985 170.103 115.756L169.713 115.661C169.433 115.595 169.137 115.608 168.849 115.67C168.092 115.834 167.501 116.428 167.305 117.177L164.96 126.952C164.919 127.111 164.757 127.206 164.598 127.165L164.591 127.163C164.435 127.123 164.34 126.966 164.376 126.809L166.791 116.323L168.514 108.85C168.784 107.715 168.523 106.363 167.321 106.076L166.93 105.982C165.729 105.695 164.524 106.389 164.252 107.523L159.92 126.077C159.909 126.128 159.887 126.172 159.852 126.21C159.413 126.695 158.508 127.452 157.339 127.191C157.245 127.17 157.172 127.096 157.146 127.003C156.826 125.839 155.338 119.237 150.588 119.578C149.485 119.658 149.403 121.527 149.689 121.972C152.241 125.948 152.014 129.364 152.024 129.582C152.024 129.587 152.025 129.591 152.025 129.597L152.701 136.233C152.702 136.249 152.702 136.263 152.7 136.279C152.681 136.456 152.588 137.946 154.326 142.573C154.326 142.573 154.327 142.574 154.327 142.575L154.777 144.054C157.329 148.386 154.152 155.925 154.064 156.494L148.97 188.817ZM168.751 129.392L168.788 129.474L168.748 129.407L168.751 129.392Z" fill="#F9B59E"/>
<path d="M57.4234 142.561C57.4032 142.472 57.3926 142.37 57.3903 142.26L58.199 139.641C60.1488 134.479 60.4562 130.405 60.3052 127.689L60.3328 127.706L60.2742 127.221C60.2271 126.625 60.1592 126.103 60.085 125.66L59.6296 122.437C59.6288 122.43 59.6281 122.423 59.6278 122.416L59.5971 117.792C59.5306 116.639 58.9917 115.27 57.6711 114.957C57.6417 114.95 57.6105 114.948 57.5805 114.949L56.8333 114.988C56.8321 114.988 56.8308 114.988 56.8297 114.988C56.1314 115.1 55.5792 115.77 55.6025 116.477L55.5673 124.225C55.5728 124.389 55.4449 124.526 55.2815 124.532C55.1173 124.538 54.9793 124.41 54.9731 124.246L55.0031 122.448L54.9401 121.651L54.9737 121.67L54.5837 114.391C54.5825 114.362 54.5781 114.334 54.5695 114.307C54.2814 113.389 53.3512 112.741 52.2966 112.802L51.8972 112.824C51.653 112.838 51.4258 112.904 51.2191 113.009C50.5989 113.327 50.2518 114.008 50.278 114.705L50.7225 123.415L50.6972 123.416L50.7031 123.493L50.6227 123.419L50.4244 123.426C50.2616 123.433 50.1246 123.306 50.1184 123.143L49.4591 110.68C49.4578 110.643 49.4503 110.606 49.436 110.572C49.091 109.748 48.2148 109.186 47.2289 109.243L46.8273 109.264C46.5399 109.281 46.2609 109.378 46.0021 109.521C45.3242 109.895 44.9283 110.633 44.9562 111.407L45.5139 121.444C45.5198 121.608 45.392 121.745 45.228 121.752L45.2211 121.752C45.0601 121.758 44.9236 121.635 44.9132 121.474L44.2186 110.737L43.7248 103.083C43.6575 101.918 43.0196 100.698 41.7864 100.767L41.385 100.79C40.1519 100.859 39.1968 101.87 39.2618 103.035L40.4347 122.052C40.4383 122.103 40.4304 122.152 40.4082 122.199C40.1263 122.789 39.4769 123.774 38.2815 123.859C38.1854 123.866 38.0944 123.816 38.0432 123.734C37.402 122.711 34.0826 116.814 29.6302 118.503C28.597 118.896 29.0545 120.71 29.4556 121.054C33.0416 124.131 33.8042 127.469 33.8761 127.674C33.8779 127.679 33.8794 127.683 33.8815 127.688L36.4326 133.852C36.4387 133.866 36.4425 133.88 36.4454 133.896C36.4779 134.071 36.8163 135.525 39.8084 139.459C39.8089 139.459 39.8094 139.46 39.8097 139.46L40.6656 140.748C43.594 143.462 43.6411 149.148 43.5761 151.66L58.5486 150.363C58.244 147.871 57.4522 142.687 57.4234 142.561ZM49.8468 122.708L49.8454 122.694L49.9047 122.762L49.8468 122.708Z" fill="#F9B59E"/>
<path d="M58.5486 150.362L43.5761 151.66L43.2822 151.685L43.3075 154.89L58.7377 153.586L59.6285 150.269L58.5486 150.362Z" fill="#F2F2F2"/>
<path d="M60.2583 153.458L58.7377 153.587L43.3075 154.89L43.3011 154.891L43.4763 188.999H63.5699L60.2583 153.458Z" fill="#6A6AB0"/>
<path d="M30.5 188C3.5 169.218 18.5 107.5 21.5 136.5C24.5 165.5 83.5 200.5 138 184.5C153.588 179.924 167.09 173.711 177.5 166.705C203.485 149.215 205.708 185.967 174.5 191C159 193.5 120.886 199.107 101.5 197C78.5 194.5 42 196 30.5 188Z" fill="white"/>
<path d="M30.5 188C3.5 169.218 18.5 107.5 21.5 136.5C24.5 165.5 83.5 200.5 138 184.5C153.588 179.924 167.09 173.711 177.5 166.705C203.485 149.215 205.708 185.967 174.5 191C159 193.5 120.886 199.107 101.5 197C78.5 194.5 42 196 30.5 188Z" fill="white"/>
</svg>
