<svg width="414" height="372" viewBox="0 0 414 372" fill="none" xmlns="http://www.w3.org/2000/svg">
<g clip-path="url(#clip0_1085_11439)">
<rect width="414" height="372" fill="#FF3C3C"/>
<path d="M388 289H423V403H-9V270H25V306H49V218H65V280H88V257H105V300H116V239H169V270H193L213 306V257H255V218H271V289H292V270H322V345H332V306H358V250H388V289Z" fill="url(#paint0_linear_1085_11439)"/>
<path d="M26 289H-9V403H423V270H389V306H365V218H349V280H326V257H309V300H298V239H245V270H221L201 306V257H159V218H143V289H122V270H92V345H82V306H56V250H26V289Z" fill="#FF3C3C"/>
<path d="M26 289H-9V403H423V270H389V306H365V218H349V280H326V257H309V300H298V239H245V270H221L201 306V257H159V218H143V289H122V270H92V345H82V306H56V250H26V289Z" fill="url(#paint1_linear_1085_11439)"/>
<g clip-path="url(#clip1_1085_11439)">
<path d="M252.757 98.4233L277.77 128.96L242.777 92.4027C242.533 92.2788 242.288 92.1549 242.044 92.0361L271.483 134.253L237.78 93.0895L264.805 139.029L234.351 95.3459L257.785 143.268L230.76 97.3287L250.459 146.949L227.036 99.0223L242.884 150.042L223.19 100.422L235.09 152.531L219.247 101.511L227.128 154.4L215.233 102.286L219.048 155.634L211.173 102.745L210.643 152.185L207.087 102.885L202.721 156.187L203.007 102.699L194.581 155.5L198.952 102.198L186.511 154.178L194.947 101.377L178.569 152.227L191.015 100.246L170.801 149.655L187.184 98.8106L163.251 146.48L183.47 97.0757L155.971 142.726L179.909 95.0568L148.992 138.404L176.501 92.759L142.37 133.55L172.008 92C171.692 92.1549 171.381 92.315 171.066 92.475L136.139 128.196L160.831 98.6918C152.181 104.878 144.611 112.917 138.738 122.655C115.712 160.87 127.607 210.765 165.309 234.103C203.007 257.442 252.237 245.386 275.263 207.176C297.439 170.376 287.219 122.738 252.757 98.4233Z" fill="url(#paint2_linear_1085_11439)"/>
</g>
<g clip-path="url(#clip2_1085_11439)">
<path d="M290.271 330.554C290.046 336.925 287.47 338.925 284.383 338.664C281.297 338.397 278.17 336.539 278.395 330.174C278.62 323.804 282.198 312.738 285.284 313.005C288.37 313.272 290.609 321.008 290.271 330.554Z" fill="white"/>
<path d="M292.54 333.868C291.758 338.011 293.038 339.686 294.957 339.977C296.876 340.262 299.05 339.531 299.832 335.381C300.614 331.237 300.033 323.561 298.12 323.276C296.201 322.991 293.713 327.657 292.54 333.868Z" fill="white"/>
<path d="M282.506 331.658C282.754 336.348 280.344 337.809 277.257 337.583C274.171 337.358 270.931 335.963 270.682 331.272C270.434 326.582 273.164 318.455 276.25 318.674C279.337 318.9 282.138 324.623 282.506 331.658Z" fill="white"/>
<path d="M128.836 331.258C129.754 336.684 128.297 338.821 126.117 339.124C123.932 339.427 121.456 338.388 120.538 332.956C119.625 327.529 120.241 317.549 122.427 317.247C124.607 316.95 127.462 323.118 128.836 331.258Z" fill="white"/>
<path d="M121.201 332.226C122.599 336.619 121.343 338.709 119.193 339.392C117.049 340.074 114.484 339.688 113.092 335.295C111.694 330.902 111.421 322.37 113.572 321.688C115.716 321.005 119.11 325.642 121.201 332.226Z" fill="white"/>
<path d="M140.446 330.017C141.228 337.485 138.361 337.503 135.909 337.759C133.451 338.014 130.726 336.417 129.944 328.948C129.162 321.485 130.305 307.926 132.764 307.67C135.222 307.415 139.279 318.826 140.446 330.017Z" fill="white"/>
<path d="M206.916 164.691L193.069 204.168V239.015H220.913V205.43L222.723 205.69L210.536 167.482L206.916 164.691Z" fill="white"/>
<path d="M202.616 289.115H174.3V337.216H202.616V289.115Z" fill="white"/>
<path d="M204.126 338.732H172.784V287.6H204.126V338.732ZM175.816 335.7H201.1V290.632H175.816V335.7Z" fill="#FF3C3C"/>
<path d="M174.3 337.217H140.109V289.116L157.202 272.289L174.3 289.116V337.217Z" fill="white"/>
<path d="M175.816 338.734H138.593V288.483L156.452 270.906L158.159 271.114L175.81 288.489V338.734H175.816ZM141.625 335.701H172.784V289.751L157.202 274.417L141.62 289.751V335.701H141.625Z" fill="#FF3C3C"/>
<path d="M202.61 289.116H174.3L157.202 272.289H185.72L202.61 289.116Z" fill="#FF3C3C"/>
<path d="M206.282 290.633H173.683L156.072 273.298L153.956 270.773H186.348L206.282 290.633ZM174.917 287.601H198.944L185.091 273.806H160.903L174.917 287.601Z" fill="#FF3C3C"/>
<path d="M207.349 337.216H193.582V288.204L185.979 280.716V248.082H207.349V337.216Z" fill="white"/>
<path d="M208.865 338.732H192.066V288.845L184.463 281.356V246.572H208.865V338.732ZM195.099 335.7H205.838V249.599H187.495V280.082L195.099 287.571V335.7Z" fill="#FF3C3C"/>
<path d="M240.403 289.115H212.087V337.216H240.403V289.115Z" fill="white"/>
<path d="M241.914 338.732H210.571V287.6H241.914V338.732ZM213.603 335.7H238.887V290.632H213.603V335.7Z" fill="#FF3C3C"/>
<path d="M240.403 337.217H274.594V289.116L257.496 272.289L240.403 289.116V337.217Z" fill="white"/>
<path d="M276.104 338.733H238.887V288.483L255.34 272.29L258.118 270.773L259.064 271.702L276.11 288.477V338.733H276.104ZM241.914 335.701H273.078V289.751L257.496 274.417L241.914 289.751V335.701Z" fill="#FF3C3C"/>
<path d="M212.087 289.118H240.403L257.496 272.291H228.984L212.087 289.118Z" fill="#FF3C3C"/>
<path d="M241.02 290.635H208.421L228.355 270.781H261.035L258.574 273.358L241.02 290.635ZM215.754 287.603H239.781L253.8 273.808H229.612L215.754 287.603Z" fill="#FF3C3C"/>
<path d="M207.349 337.216H221.115V288.51L228.718 280.416V248.082H207.349V337.216Z" fill="white"/>
<path d="M222.631 338.732H205.833V246.572H230.234V281.016L222.631 289.11V338.732ZM208.865 335.7H219.604V287.911L227.208 279.817V249.599H208.865V335.7Z" fill="#FF3C3C"/>
<path d="M226.245 239.152H188.452V248.082H226.245V239.152Z" fill="white"/>
<path d="M227.761 249.598H186.936V237.637H227.761V249.598ZM189.968 246.572H224.735V240.669H189.968V246.572Z" fill="#FF3C3C"/>
<path d="M208.859 239.152H205.833V270.702H208.859V239.152Z" fill="#FF3C3C"/>
<path d="M157.202 300.225C157.202 300.225 152.809 303.314 152.809 308.116C152.809 314.089 152.809 324.655 152.809 324.655H157.202V300.225Z" fill="#FF3C3C"/>
<path d="M157.202 300.225C157.202 300.225 161.594 303.314 161.594 308.116C161.594 314.089 161.594 324.655 161.594 324.655H156.654L157.202 300.225Z" fill="#FF3C3C"/>
<path d="M230.811 300.225C230.811 300.225 228.413 303.314 228.413 308.116C228.413 314.089 228.413 324.655 228.413 324.655H230.811V300.225Z" fill="#FF3C3C"/>
<path d="M230.811 300.225C230.811 300.225 233.209 303.314 233.209 308.116C233.209 314.089 233.209 324.655 233.209 324.655H230.511L230.811 300.225Z" fill="#FF3C3C"/>
<path d="M196.661 257.658C196.661 257.658 193.531 259.855 193.531 263.279C193.531 267.527 193.531 272.093 193.531 272.093H196.661V257.658Z" fill="#FF3C3C"/>
<path d="M196.661 257.658C196.661 257.658 199.791 259.855 199.791 263.279C199.791 267.527 199.791 272.093 199.791 272.093H196.275L196.661 257.658Z" fill="#FF3C3C"/>
<path d="M193.225 291.93L173.527 292.195C173.539 292.287 173.55 292.379 173.562 292.477C173.573 292.552 173.591 292.656 173.614 292.8C173.631 292.898 173.642 293.002 173.66 293.1L193.323 293.365C193.294 292.892 193.26 292.414 193.225 291.93Z" fill="#FF3C3C"/>
<path d="M220.008 293.734C220.1 292.985 220.256 292.241 220.515 291.566L206.985 291.751C206.985 291.924 206.991 292.097 206.991 292.264C206.991 292.696 206.991 293.129 206.985 293.561L220.008 293.734Z" fill="#FF3C3C"/>
<path d="M275.222 290.822L240.104 291.295C240.3 292.194 240.409 293.099 240.467 294.004L274.438 294.466C274.547 293.203 274.778 291.935 275.268 290.863C275.257 290.851 275.239 290.84 275.222 290.822Z" fill="#FF3C3C"/>
<path d="M193.427 295.953L174.069 296.213C174.098 296.518 174.127 296.824 174.156 297.129L193.456 297.389C193.444 296.91 193.438 296.432 193.427 295.953Z" fill="#FF3C3C"/>
<path d="M219.956 296.985C219.927 296.541 219.904 296.074 219.904 295.59L206.962 295.763C206.951 296.368 206.945 296.968 206.934 297.573L220.031 297.752C220.002 297.492 219.979 297.239 219.956 296.985Z" fill="#FF3C3C"/>
<path d="M240.513 295.313C240.524 296.218 240.496 297.123 240.461 298.028L274.323 298.483C274.323 298.282 274.329 298.086 274.329 297.884C274.34 297.002 274.334 295.941 274.409 294.852L240.513 295.313Z" fill="#FF3C3C"/>
<path d="M220.348 299.607L206.899 299.792C206.893 300.391 206.887 300.997 206.893 301.596L221.12 301.786C220.78 301.106 220.532 300.363 220.348 299.607Z" fill="#FF3C3C"/>
<path d="M240.409 299.336C240.38 300.074 240.363 300.818 240.363 301.561C240.363 301.723 240.369 301.884 240.369 302.046L274.277 302.507C274.288 301.296 274.305 300.086 274.317 298.875L240.409 299.336Z" fill="#FF3C3C"/>
<path d="M193.467 299.971L174.311 300.23C174.317 300.541 174.323 300.847 174.323 301.152L193.456 301.412C193.461 300.933 193.467 300.449 193.467 299.971Z" fill="#FF3C3C"/>
<path d="M240.386 303.354C240.403 304.259 240.432 305.164 240.467 306.069L274.277 306.524C274.259 305.314 274.265 304.103 274.271 302.893L240.386 303.354Z" fill="#FF3C3C"/>
<path d="M221.086 305.608C221.097 304.974 221.132 304.294 221.207 303.613L206.928 303.809C206.934 304.092 206.939 304.368 206.951 304.651C206.962 304.974 206.98 305.297 206.991 305.619L221.08 305.81C221.086 305.74 221.086 305.671 221.086 305.608Z" fill="#FF3C3C"/>
<path d="M193.404 303.994L174.3 304.254C174.294 304.559 174.282 304.87 174.271 305.176L193.363 305.435C193.381 304.951 193.392 304.473 193.404 303.994Z" fill="#FF3C3C"/>
<path d="M206.836 277.47L262.459 278.226C261.715 277.384 260.96 276.542 260.165 275.724C259.917 275.47 259.675 275.211 259.433 274.951L206.83 275.666C206.83 276.266 206.83 276.865 206.836 277.47Z" fill="#FF3C3C"/>
<path d="M185.045 275.961L183.2 275.984C183.2 275.99 183.195 275.996 183.195 276.001C183.062 276.491 182.831 276.866 182.532 277.137L185.835 277.183C185.558 276.774 185.287 276.37 185.045 275.961Z" fill="#FF3C3C"/>
<path d="M165.797 276.912L179.234 277.096C178.906 276.825 178.658 276.468 178.525 276.047L165.226 276.226C165.416 276.456 165.607 276.681 165.797 276.912Z" fill="#FF3C3C"/>
<path d="M206.876 281.489L266.079 282.29C265.768 281.979 265.457 281.656 265.163 281.322C264.459 280.521 263.773 279.719 263.076 278.924L206.859 279.685C206.859 280.284 206.87 280.89 206.876 281.489Z" fill="#FF3C3C"/>
<path d="M187.622 279.943L168.345 280.203C168.523 280.422 168.714 280.658 168.789 280.739C168.858 280.82 168.933 280.895 169.002 280.975L188.377 281.24C188.129 280.808 187.875 280.376 187.622 279.943Z" fill="#FF3C3C"/>
<path d="M206.928 285.514L270.8 286.378C269.428 285.208 268.01 284.119 266.702 282.896L206.905 283.704C206.91 284.309 206.922 284.908 206.928 285.514Z" fill="#FF3C3C"/>
<path d="M190.043 283.934L171.498 284.187C171.59 284.36 171.677 284.533 171.757 284.706C171.809 284.816 171.855 284.931 171.902 285.04L190.862 285.3C190.596 284.839 190.326 284.383 190.043 283.934Z" fill="#FF3C3C"/>
<path d="M239.746 289.974L274.853 290.453C273.677 289.259 272.576 287.985 271.337 286.855L237.4 287.317C238.461 287.882 239.302 288.815 239.746 289.974Z" fill="#FF3C3C"/>
<path d="M224.954 287.484L206.957 287.727C206.962 288.332 206.968 288.931 206.974 289.537L221.622 289.733C222.556 288.655 223.691 287.946 224.954 287.484Z" fill="#FF3C3C"/>
<path d="M192.735 289.132C192.62 288.792 192.505 288.452 192.378 288.118C192.372 288.118 192.343 288.049 192.28 287.922L172.968 288.181C173.031 288.47 173.089 288.769 173.135 289.069L192.793 289.334C192.775 289.271 192.758 289.202 192.735 289.132Z" fill="#FF3C3C"/>
<path d="M193.363 325.45C193.363 325.001 193.358 324.545 193.358 324.096L173.493 324.367C173.487 324.666 173.487 324.972 173.481 325.272L193.363 325.543C193.363 325.508 193.363 325.479 193.363 325.45Z" fill="#FF3C3C"/>
<path d="M241.003 323.449C241.101 324.36 241.199 325.271 241.257 326.182L274.807 326.637C274.87 325.421 274.899 324.205 274.893 322.988L241.003 323.449Z" fill="#FF3C3C"/>
<path d="M220.74 323.727L206.265 323.923C206.207 324.516 206.155 325.116 206.103 325.71L220.803 325.906C220.786 325.179 220.763 324.453 220.74 323.727Z" fill="#FF3C3C"/>
<path d="M193.335 328.121L173.441 328.392C173.435 328.692 173.435 328.992 173.435 329.291L193.3 329.562C193.317 329.078 193.329 328.6 193.335 328.121Z" fill="#FF3C3C"/>
<path d="M220.861 329.153C220.861 328.686 220.855 328.213 220.849 327.746L205.959 327.948C205.925 328.542 205.896 329.135 205.879 329.729L220.855 329.931C220.855 329.677 220.861 329.424 220.861 329.153Z" fill="#FF3C3C"/>
<path d="M241.308 327.469C241.326 328.386 241.308 329.297 241.262 330.207L274.519 330.657C274.565 329.948 274.622 329.245 274.68 328.541C274.726 328.034 274.761 327.527 274.79 327.02L241.308 327.469Z" fill="#FF3C3C"/>
<path d="M193.214 332.294C193.214 332.242 193.219 332.191 193.219 332.139L173.47 332.404C173.475 332.704 173.487 333.003 173.498 333.309L193.179 333.574C193.185 333.148 193.196 332.721 193.214 332.294Z" fill="#FF3C3C"/>
<path d="M220.74 331.77L205.867 331.971C205.873 332.156 205.867 332.34 205.879 332.525C205.896 332.934 205.913 333.343 205.936 333.747L220.509 333.943C220.59 333.228 220.677 332.519 220.74 331.77Z" fill="#FF3C3C"/>
<path d="M274.49 331.043L241.182 331.493C241.118 332.403 241.037 333.314 240.951 334.225L274.432 334.68C274.392 333.464 274.421 332.254 274.49 331.043Z" fill="#FF3C3C"/>
<path d="M240.582 338.237L275.136 338.704C274.628 337.574 274.501 336.19 274.444 335.078C274.444 335.072 274.444 335.066 274.444 335.061L240.824 335.516C240.738 336.421 240.651 337.332 240.582 338.237Z" fill="#FF3C3C"/>
<path d="M220.308 335.793L206.19 335.983C206.19 335.995 206.19 336.006 206.19 336.001C206.253 336.346 206.328 336.692 206.409 337.038C206.461 337.286 206.495 337.528 206.518 337.776L220.146 337.96C220.163 337.251 220.233 336.537 220.308 335.793Z" fill="#FF3C3C"/>
<path d="M193.058 337.165C193.081 336.831 193.098 336.496 193.116 336.162L173.7 336.427C173.729 336.733 173.758 337.033 173.792 337.338L193.006 337.598C193.029 337.367 193.058 337.165 193.058 337.165Z" fill="#FF3C3C"/>
<path d="M240.622 310.094L274.398 310.55C274.375 309.979 274.352 309.408 274.328 308.838C274.305 308.198 274.294 307.558 274.282 306.918L240.513 307.373C240.553 308.284 240.588 309.189 240.622 310.094Z" fill="#FF3C3C"/>
<path d="M221.086 307.639L207.089 307.829C207.118 308.434 207.141 309.04 207.158 309.645L221.103 309.835C221.109 309.097 221.097 308.371 221.086 307.639Z" fill="#FF3C3C"/>
<path d="M193.3 308.014L174.132 308.273C174.115 308.579 174.098 308.884 174.081 309.19L193.265 309.449C193.277 308.976 193.288 308.492 193.3 308.014Z" fill="#FF3C3C"/>
<path d="M221.045 311.662L207.21 311.852C207.216 312.458 207.204 313.063 207.187 313.668L220.924 313.853C220.965 313.121 221.005 312.388 221.045 311.662Z" fill="#FF3C3C"/>
<path d="M240.715 314.106C240.715 314.106 240.715 314.112 240.715 314.118L274.599 314.579C274.536 313.368 274.467 312.158 274.415 310.941L240.663 311.397C240.686 312.296 240.709 313.201 240.715 314.106Z" fill="#FF3C3C"/>
<path d="M193.231 312.054C193.231 312.049 193.231 312.043 193.231 312.037L173.902 312.297C173.885 312.602 173.867 312.902 173.844 313.207L193.225 313.473C193.225 313 193.225 312.527 193.231 312.054Z" fill="#FF3C3C"/>
<path d="M240.72 318.135L274.795 318.596C274.744 317.38 274.686 316.169 274.617 314.953L240.715 315.414C240.715 316.319 240.715 317.23 240.72 318.135Z" fill="#FF3C3C"/>
<path d="M220.728 317.242C220.752 316.723 220.78 316.204 220.815 315.686L207.078 315.87C207.072 315.933 207.072 316.003 207.066 316.066C207.02 316.602 206.968 317.144 206.916 317.68L220.711 317.87C220.717 317.657 220.717 317.45 220.728 317.242Z" fill="#FF3C3C"/>
<path d="M193.242 316.055L173.677 316.32C173.677 316.337 173.677 316.354 173.677 316.372C173.666 316.654 173.66 316.942 173.648 317.225L193.265 317.49C193.254 317.017 193.248 316.533 193.242 316.055Z" fill="#FF3C3C"/>
<path d="M240.778 320.694C240.801 321.184 240.836 321.669 240.882 322.159L274.899 322.62C274.893 321.403 274.859 320.187 274.813 318.971L240.743 319.432C240.749 319.853 240.755 320.274 240.778 320.694Z" fill="#FF3C3C"/>
<path d="M220.671 319.703L206.686 319.893C206.622 320.493 206.559 321.092 206.495 321.692L220.694 321.882C220.677 321.162 220.671 320.435 220.671 319.703Z" fill="#FF3C3C"/>
<path d="M193.306 320.078L173.556 320.343C173.55 320.643 173.544 320.943 173.539 321.248L193.329 321.514C193.317 321.035 193.312 320.557 193.306 320.078Z" fill="#FF3C3C"/>
<path d="M206.576 229.152L221.755 229.36C221.737 228.61 221.703 227.867 221.668 227.117L206.49 227.325C206.513 227.936 206.542 228.547 206.576 229.152Z" fill="#FF3C3C"/>
<path d="M206.738 231.405C206.784 232.016 206.83 232.627 206.87 233.238L221.455 233.44C221.587 232.702 221.726 232.01 221.743 231.612C221.749 231.474 221.749 231.336 221.755 231.203L206.738 231.405Z" fill="#FF3C3C"/>
<path d="M206.974 235.452C206.985 236.057 206.985 236.657 206.957 237.262L221.991 237.464C221.518 236.893 221.23 236.184 221.23 235.325C221.23 235.302 221.23 235.279 221.23 235.256L206.974 235.452Z" fill="#FF3C3C"/>
<path d="M225.738 239.344C225.542 239.309 225.346 239.275 225.15 239.229L206.732 239.476C206.709 239.609 206.691 239.747 206.663 239.88C206.812 240.341 206.945 240.808 207.049 241.281L225.801 241.534C225.749 240.808 225.715 240.082 225.738 239.344Z" fill="#FF3C3C"/>
<path d="M207.579 210.878C207.596 211.5 207.579 212.123 207.527 212.745L221.876 212.947C221.91 212.734 221.945 212.521 221.979 212.307C222.072 211.765 222.147 211.218 222.245 210.682L207.579 210.878Z" fill="#FF3C3C"/>
<path d="M207.268 214.993C207.199 215.535 207.124 216.071 207.037 216.607C207.026 216.688 207.008 216.768 206.997 216.849L221.426 217.051C221.461 216.29 221.53 215.546 221.616 214.797L207.268 214.993Z" fill="#FF3C3C"/>
<path d="M206.547 220.955L221.461 221.162C221.432 220.413 221.409 219.663 221.397 218.914L206.674 219.116C206.628 219.727 206.582 220.338 206.547 220.955Z" fill="#FF3C3C"/>
<path d="M206.449 225.064L221.616 225.272C221.599 224.522 221.57 223.767 221.541 223.018L206.467 223.225C206.449 223.842 206.444 224.453 206.449 225.064Z" fill="#FF3C3C"/>
<path d="M206.916 261.387L229.641 261.693C229.652 260.891 229.618 260.084 229.525 259.271L206.916 259.577C206.916 260.182 206.916 260.782 206.916 261.387Z" fill="#FF3C3C"/>
<path d="M206.934 263.601C206.939 264.2 206.939 264.805 206.939 265.411L229.352 265.716C229.445 264.909 229.525 264.108 229.577 263.301L206.934 263.601Z" fill="#FF3C3C"/>
<path d="M206.91 267.62C206.905 267.799 206.905 267.977 206.905 268.15C206.893 268.577 206.887 268.998 206.882 269.424L228.943 269.724C229.001 268.917 229.081 268.116 229.168 267.32L206.91 267.62Z" fill="#FF3C3C"/>
<path d="M161.018 272.265C161.283 272.45 161.542 272.646 161.79 272.842L178.946 273.073C179.032 272.721 179.119 272.369 179.2 272.018L161.018 272.265Z" fill="#FF3C3C"/>
<path d="M206.83 273.448L258.695 274.151C258.28 273.684 257.876 273.212 257.496 272.722C253.293 273.534 248.889 273.269 244.64 273.235C240.847 273.2 237.06 273.067 233.29 272.652C232.108 274.278 228.909 273.851 228.88 271.35L206.847 271.649C206.836 272.249 206.83 272.848 206.83 273.448Z" fill="#FF3C3C"/>
<path d="M225.934 243.24L207.4 243.494C207.458 244.099 207.493 244.71 207.504 245.316L226.003 245.563C226.003 245.552 226.003 245.535 226.003 245.523C226.02 244.751 225.986 243.99 225.934 243.24Z" fill="#FF3C3C"/>
<path d="M207.389 249.333L228.643 249.621C228.62 249.033 228.603 248.445 228.591 247.851C227.888 247.915 227.173 247.713 226.666 247.252L207.47 247.511C207.447 248.117 207.424 248.722 207.389 249.333Z" fill="#FF3C3C"/>
<path d="M207.107 253.346L228.903 253.64C228.834 252.839 228.776 252.043 228.73 251.242L207.256 251.53C207.21 252.141 207.164 252.747 207.107 253.346Z" fill="#FF3C3C"/>
<path d="M206.905 257.364L229.324 257.669C229.226 256.868 229.133 256.061 229.053 255.26L206.87 255.56C206.859 255.64 206.847 255.721 206.836 255.807C206.87 256.326 206.893 256.851 206.905 257.364Z" fill="#FF3C3C"/>
<path d="M160.954 270.387L178.865 287.698L179.286 287.266L161.825 270.387H160.954Z" fill="white"/>
<path d="M157.011 270.387L174.928 287.698L175.349 287.266L157.888 270.387H157.011Z" fill="white"/>
<path d="M164.863 270.387L182.779 287.698L183.2 287.266L165.733 270.387H164.863Z" fill="white"/>
<path d="M186.158 275.731L186.578 275.292L181.454 270.387H180.577L186.158 275.731Z" fill="white"/>
<path d="M177.522 270.387H176.646L194.563 287.698L194.983 287.266L177.522 270.387Z" fill="white"/>
<path d="M168.8 270.387L186.717 287.698L187.138 287.266L169.671 270.387H168.8Z" fill="white"/>
<path d="M172.709 270.387L190.625 287.698L191.046 287.266L173.585 270.387H172.709Z" fill="white"/>
<path d="M258.026 300.225C258.026 300.225 253.633 303.314 253.633 308.116C253.633 314.089 253.633 324.655 253.633 324.655H258.026V300.225Z" fill="#FF3C3C"/>
<path d="M258.026 300.225C258.026 300.225 262.419 303.314 262.419 308.116C262.419 314.089 262.419 324.655 262.419 324.655H257.478L258.026 300.225Z" fill="#FF3C3C"/>
<path d="M218.278 257.658C218.278 257.658 215.154 259.855 215.154 263.279C215.154 267.527 215.154 272.093 215.154 272.093H218.278V257.658Z" fill="#FF3C3C"/>
<path d="M218.278 257.658C218.278 257.658 221.409 259.855 221.409 263.279C221.409 267.527 221.409 272.093 221.409 272.093H217.892L218.278 257.658Z" fill="#FF3C3C"/>
<path d="M139.637 291.203L134.863 291.29V289.474L153.95 270.756L155.651 272.485L139.637 291.203Z" fill="#FF3C3C"/>
<path d="M275.349 291.203L280.122 291.29V289.474L261.035 270.756L259.34 272.485L275.349 291.203Z" fill="#FF3C3C"/>
<path d="M158.919 294.391H155.49V289.606L157.259 288.119L158.919 289.606V294.391Z" fill="#FF3C3C"/>
<path d="M259.738 294.391H256.314V289.606L258.078 288.119L259.738 289.606V294.391Z" fill="#FF3C3C"/>
<path d="M215.344 339.321V309.535C215.344 305.731 212.26 302.652 208.461 302.652H205.994C202.189 302.652 199.111 305.736 199.111 309.535V339.321H215.344Z" fill="#FF3C3C"/>
<path d="M216.555 340.532H197.895V309.535C197.895 305.073 201.526 301.436 205.988 301.436H208.455C212.917 301.436 216.549 305.067 216.549 309.535V340.532H216.555ZM200.321 338.11H214.134V309.535C214.134 306.405 211.591 303.862 208.461 303.862H205.994C202.864 303.862 200.321 306.405 200.321 309.535V338.11Z" fill="white"/>
<path d="M240.888 270.547L223.594 287.264L224.014 287.697L241.764 270.547H240.888Z" fill="white"/>
<path d="M236.95 270.547L219.656 287.264L220.077 287.697L237.821 270.547H236.95Z" fill="white"/>
<path d="M233.912 270.547H233.042L229.433 274.035L229.854 274.467L233.912 270.547Z" fill="white"/>
<path d="M248.739 270.547L231.439 287.264L231.86 287.697L249.61 270.547H248.739Z" fill="white"/>
<path d="M256.585 270.547L239.285 287.264L239.712 287.697L257.455 270.547H256.585Z" fill="white"/>
<path d="M244.802 270.547L227.502 287.264L227.923 287.697L245.672 270.547H244.802Z" fill="white"/>
<path d="M252.648 270.547L235.348 287.264L235.769 287.697L253.518 270.547H252.648Z" fill="white"/>
<path d="M224.573 236.305H190.031C189.443 236.305 188.971 235.832 188.971 235.244C188.971 234.656 189.443 234.184 190.031 234.184H224.568C225.156 234.184 225.628 234.656 225.628 235.244C225.634 235.832 225.156 236.305 224.573 236.305Z" fill="#FF3C3C"/>
<path d="M156.706 273.212C156.441 273.212 156.175 273.114 155.968 272.912L152.665 269.718C152.244 269.309 152.232 268.64 152.642 268.219C153.051 267.799 153.72 267.787 154.141 268.196L157.444 271.39C157.865 271.799 157.876 272.468 157.467 272.889C157.259 273.102 156.983 273.212 156.706 273.212Z" fill="#FF3C3C"/>
<path d="M258.193 273.212C257.916 273.212 257.64 273.102 257.432 272.889C257.023 272.468 257.034 271.799 257.455 271.39L260.758 268.196C261.179 267.787 261.848 267.799 262.257 268.219C262.667 268.64 262.655 269.309 262.234 269.718L258.931 272.912C258.724 273.114 258.458 273.212 258.193 273.212Z" fill="#FF3C3C"/>
<path d="M195.099 287.248H172.784V289.721H195.099V287.248Z" fill="#FF3C3C"/>
<path d="M241.971 287.248H219.656V289.721H241.971V287.248Z" fill="#FF3C3C"/>
<path d="M184.993 269.492H153.616V272.017H184.993V269.492Z" fill="#FF3C3C"/>
<path d="M261.318 269.492H229.94V272.017H261.318V269.492Z" fill="#FF3C3C"/>
<path d="M194.205 243.344H191.876V247.552H194.205V243.344Z" fill="#FF3C3C"/>
<path d="M198.898 247.552H196.569V243.344H198.898" fill="#FF3C3C"/>
<path d="M203.659 243.344H201.33V247.552H203.659V243.344Z" fill="#FF3C3C"/>
<path d="M213.027 243.344H210.698V247.033H213.027V243.344Z" fill="#FF3C3C"/>
<path d="M217.719 247.033H215.39V243.344H217.719" fill="#FF3C3C"/>
<path d="M222.475 243.344H220.146V247.033H222.475V243.344Z" fill="#FF3C3C"/>
<path d="M207.118 181.645C206.68 181.645 206.588 181.293 206.588 180.855V153.79C206.588 153.352 206.68 153 207.118 153C207.556 153 207.648 153.357 207.648 153.79V180.855C207.648 181.293 207.556 181.645 207.118 181.645Z" fill="white"/>
<path d="M209.874 157.399H204.357C204.063 157.399 203.826 157.162 203.826 156.868C203.826 156.574 204.063 156.338 204.357 156.338H209.874C210.168 156.338 210.404 156.574 210.404 156.868C210.404 157.162 210.168 157.399 209.874 157.399Z" fill="white"/>
<path d="M208.651 240.67H191.553V205.689H208.651V240.67ZM194.58 237.643H205.619V208.722H194.58V237.643Z" fill="#FF3C3C"/>
<path d="M222.723 240.67H205.625V205.689H222.723V240.67ZM208.651 237.643H219.691V208.722H208.651V237.643Z" fill="#FF3C3C"/>
<path d="M208.651 208.456H190.51V204.253L203.74 167.475H208.651V208.456ZM193.536 205.429H205.619V171.193L193.536 204.784V205.429Z" fill="#FF3C3C"/>
<path d="M223.766 208.456H205.625V167.48H210.536L223.766 204.259V208.456ZM208.651 205.429H220.734V204.784L208.651 171.193V205.429Z" fill="#FF3C3C"/>
<path d="M222.867 206.098H207.637V170.374L210.542 169.469L222.867 206.098Z" fill="#FF3C3C"/>
<path d="M200.102 213.246C200.102 213.246 197.987 214.733 197.987 217.045C197.987 219.916 197.987 228.073 197.987 228.073H199.837H200.102H202.218C202.218 228.073 202.218 219.916 202.218 217.045C202.218 214.733 200.102 213.246 200.102 213.246Z" fill="#FF3C3C"/>
<path d="M214.26 213.246C214.26 213.246 212.145 214.733 212.145 217.045C212.145 219.916 212.145 228.073 212.145 228.073H213.995H214.26H216.376C216.376 228.073 216.376 219.916 216.376 217.045C216.376 214.733 214.26 213.246 214.26 213.246Z" fill="#FF3C3C"/>
<path d="M209.879 204.802L206.634 167.205L210.485 204.75L209.879 204.802Z" fill="white"/>
<path d="M213.275 204.82L207.643 167.223L213.868 204.733L213.275 204.82Z" fill="white"/>
<path d="M217.229 204.843L208.697 167.246L217.823 204.711L217.229 204.843Z" fill="white"/>
<path d="M220.625 204.861L209.677 167.264L221.207 204.694L220.625 204.861Z" fill="white"/>
<path d="M206.242 181.703C206.248 181.622 206.248 181.558 206.253 181.501C206.224 181.397 206.201 181.293 206.173 181.189L204.155 204.744L204.714 204.802L206.23 181.904C206.005 181.322 206.19 182.365 206.242 181.703Z" fill="#FF3C3C"/>
<path d="M205.769 174.404C205.729 173.856 205.798 172.075 205.763 171.527L200.788 204.726L201.342 204.824L205.821 171.718C205.809 171.383 205.798 174.738 205.769 174.404Z" fill="#FF3C3C"/>
<path d="M205.169 168.629C205.112 168.629 205.221 168.629 205.169 168.629L196.88 204.704L197.422 204.848L205.302 168.957C205.285 168.548 205.267 169.032 205.25 168.623C205.221 168.623 205.193 168.629 205.169 168.629Z" fill="#FF3C3C"/>
<path d="M203.982 168.449L193.519 204.686L194.055 204.865L204.535 168.57C204.345 168.541 204.161 168.501 203.982 168.449Z" fill="#FF3C3C"/>
<path d="M224.36 236.305H189.824C189.236 236.305 188.763 235.832 188.763 235.244C188.763 234.656 189.236 234.184 189.824 234.184H224.36C224.948 234.184 225.421 234.656 225.421 235.244C225.421 235.832 224.948 236.305 224.36 236.305Z" fill="#FF3C3C"/>
<path d="M207.746 208.791H188.354V206.56L191.548 205.332H207.746V208.791Z" fill="#FF3C3C"/>
<path d="M206.536 208.791H225.928V206.56L222.735 205.332H206.536V208.791Z" fill="#FF3C3C"/>
<path d="M222.256 204.168H193.069V206.952H222.256V204.168Z" fill="#FF3C3C"/>
<path d="M210.83 168.617H203.406L203.705 165.896H210.525L210.83 168.617Z" fill="#FF3C3C"/>
<path d="M207.118 166.576H204.535L205.141 165.175L206.282 163.688H207.118V166.576Z" fill="white"/>
<path d="M207.118 166.576H209.701L209.095 165.175L207.954 163.688H207.118V166.576Z" fill="white"/>
<path d="M184.492 300.225C184.492 300.225 182.094 303.314 182.094 308.116C182.094 314.089 182.094 324.655 182.094 324.655H184.492V300.225Z" fill="#FF3C3C"/>
<path d="M184.492 300.225C184.492 300.225 186.89 303.314 186.89 308.116C186.89 314.089 186.89 324.655 186.89 324.655H184.192L184.492 300.225Z" fill="#FF3C3C"/>
<rect x="189.333" y="335.666" width="33.3333" height="8" fill="#FF3C3C"/>
<path d="M305.02 341.148C279.54 335.164 245.055 331.492 207.095 331.492C169.134 331.492 134.65 335.164 109.17 341.148C109.17 341.148 166.759 338.001 207.055 338.001C248.589 338.001 305.02 341.148 305.02 341.148Z" fill="white"/>
<path d="M293.11 346.164C270.887 343.126 240.807 341.258 207.694 341.258C174.582 341.258 144.502 343.126 122.279 346.164C122.279 346.164 158.066 344.175 207.66 344.175C261.854 344.175 293.11 346.164 293.11 346.164Z" fill="white"/>
<path d="M265.076 350.424C263.318 350.355 229.266 348.158 206.588 348.158C183.915 348.158 148.105 350.948 148.105 350.948C148.105 350.948 172.611 350.545 206.565 350.545C243.678 350.545 265.076 350.424 265.076 350.424Z" fill="white"/>
<g clip-path="url(#clip3_1085_11439)">
<path d="M174.779 195.202C174.933 195.322 175.247 195.505 175.854 195.614C176.46 195.725 176.817 195.973 176.928 196.165C177.039 196.358 177.011 196.717 176.928 196.881C176.845 197.046 176.872 197.46 176.791 197.488C176.708 197.515 176.516 196.964 176.323 196.964C176.131 196.964 175.029 197.129 174.644 197.129C174.26 197.129 173.598 197.377 172.854 197.293C172.111 197.21 171.368 197.129 171.203 197.073C171.038 197.018 171.059 197.36 170.689 197.458C169.964 197.65 169.907 196.966 170.101 197.238C170.275 197.48 170.441 197.247 170.441 197.247C170.441 197.247 170.169 197.09 170.212 196.935C170.277 196.696 170.203 197.146 170.571 197.018C170.805 196.937 170.937 196.981 170.937 196.981C170.937 196.981 170.676 196.548 170.46 196.358C169.8 195.779 168.174 195.2 167.431 194.98C166.688 194.76 167.1 194.457 167.266 194.429C167.431 194.401 167.349 194.098 167.514 193.934C167.679 193.769 167.899 193.934 167.899 193.934C167.899 193.934 167.788 193.769 168.036 193.658C168.283 193.549 168.476 193.658 168.476 193.658C168.476 193.658 168.365 193.451 168.723 193.61C169.082 193.769 169.962 194.621 170.458 194.816C170.953 195.008 170.965 194.843 170.965 194.843C170.965 194.843 170.926 194.54 171.09 194.403C171.255 194.265 171.035 194.072 171.201 193.908C171.366 193.743 171.366 193.743 171.366 193.743C171.366 193.743 171.338 193.606 171.449 193.412C171.56 193.22 171.752 193.192 171.752 193.192C171.752 193.192 171.724 193 171.808 192.861C171.891 192.722 172.192 192.722 172.192 192.722C172.192 192.722 172.165 192.558 172.276 192.391C172.386 192.227 172.551 192.171 172.688 192.227C172.551 192.007 172.66 191.924 172.716 191.84C172.771 191.757 173.074 191.84 173.074 191.84C173.074 191.84 172.882 191.509 173.019 191.317C173.156 191.125 173.514 191.153 173.514 191.153C173.514 191.153 173.376 190.877 173.487 190.685C173.598 190.492 173.927 190.685 173.927 190.685C173.927 190.685 173.871 190.08 174.01 189.941C174.147 189.805 174.533 190.272 174.533 190.272C174.533 190.272 174.422 189.64 174.589 189.446C174.753 189.254 175.001 189.666 175.001 189.666C175.001 189.666 174.89 189.087 175.057 189.033C175.221 188.978 175.388 189.117 175.58 189.529C175.772 189.941 175.524 189.176 175.772 189.022C176.02 188.869 176.185 189.474 176.212 189.943C176.24 190.411 176.157 188.991 176.377 188.998C176.597 189.008 176.817 189.888 176.652 190.687C176.488 191.485 176.046 192.917 175.33 194.1C174.615 195.285 174.653 195.106 174.779 195.202Z" fill="white"/>
</g>
<g clip-path="url(#clip4_1085_11439)">
<path d="M310 157.376C310 157.376 309.752 156.88 309.6 156.803C309.448 156.727 309.79 156.288 308.417 156.25C307.043 156.211 306.736 156.021 306.031 156.001C305.325 155.982 304.371 156.192 304.046 156.211C303.722 156.23 303.035 156.44 302.806 156.497C302.577 156.555 300.573 156.344 300.306 156.687C300.039 157.031 300.306 156.994 300.306 156.994C300.306 156.994 299.982 156.994 300.001 157.242C300.021 157.49 300.153 157.528 300.153 157.528C300.153 157.528 299.963 157.661 300.097 157.871C300.23 158.081 300.535 158.062 300.535 158.062C300.535 158.062 300.516 158.196 300.707 158.329C300.897 158.463 301.202 158.444 301.202 158.444C301.202 158.444 301.241 158.559 301.451 158.654C301.66 158.749 301.775 158.654 301.775 158.654C301.775 158.654 301.863 158.749 301.99 158.807C302.119 158.864 303.531 157.853 303.816 157.948C304.102 158.044 303.816 158.063 303.988 158.234C304.159 158.405 304.083 158.597 304.141 158.731C304.197 158.865 304.389 158.902 304.389 158.902C304.389 158.902 304.255 158.883 304.408 159.17C304.561 159.456 304.809 159.533 304.809 159.533C304.809 159.533 304.599 159.813 304.713 159.939C304.828 160.067 305.152 160.201 305.152 160.201C305.152 160.201 305.038 160.468 305.133 160.62C305.228 160.773 305.401 160.849 305.401 160.849C305.401 160.849 305.325 161.098 305.458 161.288C305.592 161.479 305.687 161.392 305.687 161.392C305.687 161.392 305.554 161.594 305.687 161.766C305.821 161.937 305.936 161.956 305.936 161.956C305.936 161.956 305.86 162.185 305.994 162.319C306.127 162.453 306.299 162.414 306.299 162.414C306.299 162.414 306.26 162.453 306.47 162.7C306.68 162.948 306.89 162.91 306.89 162.91C306.89 162.91 306.794 163.139 306.947 163.329C307.1 163.52 307.233 163.52 307.233 163.52C307.233 163.52 307.167 163.825 307.343 163.959C307.52 164.093 307.672 163.959 307.672 163.959C307.672 163.959 307.729 164.302 307.901 164.398C308.072 164.493 308.225 163.901 308.225 163.901C308.225 163.901 308.225 164.703 308.416 164.722C308.607 164.741 308.626 163.94 308.626 163.94C308.626 163.94 308.836 164.493 309.008 164.493C309.179 164.493 309.008 162.031 308.95 161.306C308.893 160.582 308.76 159.38 308.55 158.978C308.34 158.578 308.13 158.176 308.13 158.176C308.13 158.176 308.512 157.928 308.76 157.642C309.008 157.356 309.274 157.146 309.484 157.203C309.694 157.261 309.905 157.413 310 157.376Z" fill="white"/>
</g>
</g>
<g clip-path="url(#clip5_1085_11439)">
<path d="M348.973 133.774C349.159 133.309 348.316 134.133 348.227 134.222C348.137 134.311 347.988 133.923 347.658 134.222C347.33 134.521 346.612 134.999 346.193 135.358C345.775 135.716 343.891 136.434 342.757 136.702C341.621 136.97 339.349 137.449 338.991 137.568C338.632 137.688 338.304 136.284 338.063 135.67C337.824 135.058 336.748 134.011 335.404 132.667C334.06 131.322 332.893 129.439 333.013 130.156C333.133 130.873 333.52 131.411 333.52 131.411C333.52 131.411 332.057 129.86 332.057 130.367C332.057 130.875 332.893 131.622 332.893 131.622C332.893 131.622 331.608 130.635 331.459 130.905C331.309 131.173 332.326 132.13 332.326 132.13C332.326 132.13 331.339 131.353 331.22 131.741C331.1 132.13 331.937 132.637 331.937 132.637C331.937 132.637 331.1 132.249 331.428 133.116C331.04 133.325 331.638 133.683 331.698 133.788C331.368 133.833 331.428 134.043 331.698 134.162C331.608 134.432 331.727 134.581 332.057 134.7C332.386 134.82 332.057 134.999 332.415 135.209C332.355 135.448 332.654 135.537 332.834 135.658C332.714 135.867 332.803 136.107 332.953 136.196C332.893 136.375 333.042 136.406 333.192 136.555C333.044 136.734 333.223 136.913 333.402 137.062C333.582 137.212 331.675 136.136 331.209 135.926C330.743 135.716 330.265 135.776 330.324 136.075C329.966 136.164 329.697 136.256 329.757 136.553C329.398 136.673 329.398 136.673 329.279 136.881C329.159 137.091 329.489 137.271 329.489 137.271C329.489 137.271 329.159 137.255 329.04 137.576C328.92 137.898 329.368 137.957 329.368 137.957C329.368 137.957 328.91 138.256 329.019 138.555C329.129 138.854 329.517 138.914 329.517 138.914C329.517 138.914 329.576 139.213 329.725 139.302C329.874 139.391 329.905 139.601 330.144 139.751C330.383 139.9 330.652 139.9 330.652 139.9C330.652 139.9 330.741 140.168 331.131 140.139C331.52 140.109 331.52 140.109 331.52 140.109C331.52 140.109 331.759 140.349 332.118 140.318C332.476 140.289 332.266 140.443 332.864 140.321C333.312 140.557 333.551 140.388 333.791 140.368C334.031 140.349 334.031 140.484 334.299 140.445C334.567 140.408 335.315 139.631 335.315 139.631C335.315 139.631 336.9 140.349 338.722 139.99C340.546 139.631 340.306 139.691 341.024 139.482C341.742 139.273 341.802 139.243 342.071 139.332C342.341 139.421 342.64 139.332 342.58 139.213C342.52 139.093 342.131 138.704 342.131 138.704C342.131 138.704 342.312 138.106 341.205 137.957C340.099 137.807 342.908 137.479 343.864 137.121C344.818 136.763 348.196 135.718 348.973 133.774Z" fill="white"/>
</g>
<path d="M0 372C0 372 71 332 207 332C343 332 414 372 414 372H0Z" fill="white"/>
<mask id="mask0_1085_11439" style="mask-type:luminance" maskUnits="userSpaceOnUse" x="100" y="122" width="74" height="19">
<path fill-rule="evenodd" clip-rule="evenodd" d="M100.607 122H173.05V140.368H100.607V122Z" fill="white"/>
</mask>
<g mask="url(#mask0_1085_11439)">
<path fill-rule="evenodd" clip-rule="evenodd" d="M173.012 139.64C173.566 135.545 167.89 132.176 163.625 131.825C161.592 131.659 159.479 131.975 157.553 131.292C153.378 129.809 151.711 124.317 147.638 122.567C144.592 121.259 141.087 122.423 138.135 123.937C135.182 125.45 132.265 127.354 128.966 127.569C126.098 127.757 122.982 126.673 120.472 128.1C118.602 129.164 117.622 131.359 115.898 132.654C114.212 133.921 112.011 134.189 109.919 134.305C107.826 134.421 105.659 134.442 103.754 135.331C101.849 136.219 100.272 138.272 100.668 140.368L173.012 139.64Z" fill="#FF3C3C"/>
<path fill-rule="evenodd" clip-rule="evenodd" d="M173.012 139.64C173.566 135.545 167.89 132.176 163.625 131.825C161.592 131.659 159.479 131.975 157.553 131.292C153.378 129.809 151.711 124.317 147.638 122.567C144.592 121.259 141.087 122.423 138.135 123.937C135.182 125.45 132.265 127.354 128.966 127.569C126.098 127.757 122.982 126.673 120.472 128.1C118.602 129.164 117.622 131.359 115.898 132.654C114.212 133.921 112.011 134.189 109.919 134.305C107.826 134.421 105.659 134.442 103.754 135.331C101.849 136.219 100.272 138.272 100.668 140.368L173.012 139.64Z" fill="white" fill-opacity="0.4"/>
</g>
<mask id="mask1_1085_11439" style="mask-type:luminance" maskUnits="userSpaceOnUse" x="37" y="155" width="56" height="15">
<path fill-rule="evenodd" clip-rule="evenodd" d="M37 155.479H92.3846V169.325H37V155.479Z" fill="white"/>
</mask>
<g mask="url(#mask1_1085_11439)">
<path fill-rule="evenodd" clip-rule="evenodd" d="M92.3559 168.776C92.7791 165.689 88.44 163.149 85.1794 162.885C83.6247 162.76 82.0096 162.998 80.5366 162.483C77.3452 161.365 76.0707 157.225 72.9565 155.906C70.6283 154.92 67.9481 155.798 65.6911 156.938C63.4341 158.079 61.2036 159.515 58.6817 159.677C56.4885 159.818 54.1067 159.001 52.1878 160.077C50.7581 160.879 50.0085 162.534 48.6908 163.51C47.4015 164.465 45.7191 164.667 44.1192 164.754C42.5194 164.842 40.863 164.858 39.4062 165.528C37.9498 166.197 36.7442 167.745 37.0469 169.325L92.3559 168.776Z" fill="#FF3C3C"/>
<path fill-rule="evenodd" clip-rule="evenodd" d="M92.3559 168.776C92.7791 165.689 88.44 163.149 85.1794 162.885C83.6247 162.76 82.0096 162.998 80.5366 162.483C77.3452 161.365 76.0707 157.225 72.9565 155.906C70.6283 154.92 67.9481 155.798 65.6911 156.938C63.4341 158.079 61.2036 159.515 58.6817 159.677C56.4885 159.818 54.1067 159.001 52.1878 160.077C50.7581 160.879 50.0085 162.534 48.6908 163.51C47.4015 164.465 45.7191 164.667 44.1192 164.754C42.5194 164.842 40.863 164.858 39.4062 165.528C37.9498 166.197 36.7442 167.745 37.0469 169.325L92.3559 168.776Z" fill="white" fill-opacity="0.4"/>
</g>
<path fill-rule="evenodd" clip-rule="evenodd" d="M377.969 183.885C378.42 180.54 373.798 177.788 370.324 177.503C368.668 177.366 366.947 177.625 365.379 177.066C361.978 175.856 360.621 171.371 357.303 169.942C354.823 168.874 351.968 169.824 349.564 171.06C347.159 172.296 344.783 173.851 342.097 174.027C339.76 174.18 337.223 173.295 335.179 174.46C333.656 175.329 332.857 177.121 331.453 178.179C330.08 179.214 328.288 179.433 326.584 179.528C324.88 179.622 323.115 179.64 321.563 180.366C320.012 181.091 318.728 182.767 319.05 184.479L377.969 183.885Z" fill="#FF3C3C"/>
<path fill-rule="evenodd" clip-rule="evenodd" d="M377.969 183.885C378.42 180.54 373.798 177.788 370.324 177.503C368.668 177.366 366.947 177.625 365.379 177.066C361.978 175.856 360.621 171.371 357.303 169.942C354.823 168.874 351.968 169.824 349.564 171.06C347.159 172.296 344.783 173.851 342.097 174.027C339.76 174.18 337.223 173.295 335.179 174.46C333.656 175.329 332.857 177.121 331.453 178.179C330.08 179.214 328.288 179.433 326.584 179.528C324.88 179.622 323.115 179.64 321.563 180.366C320.012 181.091 318.728 182.767 319.05 184.479L377.969 183.885Z" fill="white" fill-opacity="0.4"/>
</g>
<defs>
<linearGradient id="paint0_linear_1085_11439" x1="207" y1="218" x2="207" y2="403" gradientUnits="userSpaceOnUse">
<stop stop-opacity="0"/>
<stop offset="1" stop-opacity="0.1"/>
</linearGradient>
<linearGradient id="paint1_linear_1085_11439" x1="207" y1="218" x2="207" y2="403" gradientUnits="userSpaceOnUse">
<stop stop-color="white" stop-opacity="0"/>
<stop offset="1" stop-color="white" stop-opacity="0.4"/>
</linearGradient>
<linearGradient id="paint2_linear_1085_11439" x1="206.999" y1="92" x2="206.999" y2="246" gradientUnits="userSpaceOnUse">
<stop stop-color="#FF3C3C"/>
<stop offset="1" stop-color="white" stop-opacity="0"/>
</linearGradient>
<clipPath id="clip0_1085_11439">
<rect width="414" height="372" fill="white"/>
</clipPath>
<clipPath id="clip1_1085_11439">
<rect width="160" height="154" fill="white" transform="translate(127 92)"/>
</clipPath>
<clipPath id="clip2_1085_11439">
<rect width="200" height="197.948" fill="white" transform="translate(108 153)"/>
</clipPath>
<clipPath id="clip3_1085_11439">
<rect width="10" height="8.49482" fill="white" transform="translate(167 189)"/>
</clipPath>
<clipPath id="clip4_1085_11439">
<rect width="10" height="8.7219" fill="white" transform="translate(300 156)"/>
</clipPath>
<clipPath id="clip5_1085_11439">
<rect width="20" height="10.4543" fill="white" transform="translate(329 130)"/>
</clipPath>
</defs>
</svg>
