<svg width="150" height="150" viewBox="0 0 150 150" fill="none" xmlns="http://www.w3.org/2000/svg">
<g clip-path="url(#clip0_1044_12514)">
<path fill-rule="evenodd" clip-rule="evenodd" d="M82.4685 76.4917C78.63 78.0316 74.4389 78.8788 70.0499 78.8788C68.3232 78.8788 66.627 78.7477 64.9709 78.4948C70.0323 84.0326 75.2366 90.7143 76.1166 95.5644C77.0927 87.8333 89.7251 75.4485 95.1343 70.4611C95.9738 69.7839 96.7856 69.0553 97.5655 68.2754C97.5655 68.2754 96.6238 69.0878 95.1343 70.4611C91.3473 73.5161 86.997 75.5263 82.4685 76.4917Z" fill="white"/>
<path opacity="0.9" fill-rule="evenodd" clip-rule="evenodd" d="M74.6452 26.8359C74.5432 26.9959 74.4375 27.152 74.328 27.3038C79.8885 23.2598 82.0799 18.5421 81.8004 13.375C84.1625 21.154 82.2679 29.9461 76.1167 36.0868L70.7469 41.4566C66.3024 45.9011 66.3024 53.1064 70.7469 57.5509C75.1914 61.9954 82.3966 61.9954 86.8412 57.5509C80.9101 63.482 71.3081 63.482 65.3922 57.5509C59.4611 51.6199 59.4611 42.0179 65.3922 36.102L74.6452 26.8359Z" fill="white"/>
<path opacity="0.7" fill-rule="evenodd" clip-rule="evenodd" d="M69.3062 0C71.7939 0.667436 74.1603 1.9568 76.1171 3.9136C79.5452 7.34179 80.9711 12.0138 80.4402 16.4735C80.0458 19.7197 78.6048 22.8748 76.1171 25.3625L65.3926 36.1022C59.4615 42.0181 59.4615 51.6201 65.3926 57.5511C65.4948 57.6534 65.5981 57.7538 65.7025 57.8525C65.5931 57.7539 65.4846 57.6538 65.3774 57.5511C55.3811 47.5547 53.849 32.3403 60.7205 20.7056C61.9904 18.559 63.5163 16.5179 65.3584 14.6722L65.3774 14.6532L65.3926 14.6381C69.3517 10.679 70.6562 5.05127 69.3062 0ZM54.6256 25.4051C51.3273 28.7163 48.9528 32.5964 47.4996 36.7276C48.9556 32.5947 51.3336 28.7138 54.6256 25.4051ZM45.7791 46.7963C45.7791 46.8064 45.7791 46.8166 45.7791 46.8267C52.6961 56.0342 63.7088 61.9957 76.1171 61.9957C76.1073 61.9957 76.0975 61.9956 76.0877 61.9956C74.126 61.994 72.2093 61.8273 70.3377 61.5254C70.3377 61.5254 70.3377 61.5406 70.3528 61.5406C60.3262 60.0237 51.604 54.5628 45.7791 46.7963Z" fill="white"/>
<path opacity="0.6" fill-rule="evenodd" clip-rule="evenodd" d="M74.6156 61.9209C75.1161 61.9664 75.6167 61.9967 76.1173 61.9967C74.8704 61.9967 73.6416 61.93 72.4311 61.8042C61.0228 59.6023 43.2144 48.2546 49.284 32.6517C50.6667 30.0363 52.4572 27.5804 54.6532 25.3788L54.7442 25.2878L65.3777 14.6543C63.527 16.5049 61.995 18.5527 60.7208 20.7067C53.8492 32.3413 55.3813 47.5558 65.3777 57.5522C65.6476 57.8109 65.926 58.053 66.2064 58.2969C66.3042 58.3819 66.4022 58.4671 66.5002 58.5533C68.8817 60.5101 71.7183 61.6327 74.6156 61.9209Z" fill="white"/>
<path fill-rule="evenodd" clip-rule="evenodd" d="M45.7796 46.8272C52.6967 56.0348 63.7094 61.9962 76.1176 61.9962C88.5259 61.9962 99.5385 56.0348 106.425 46.7969C106.425 63.5586 92.849 77.1348 76.0873 77.1348C68.0847 77.1348 60.8138 74.0424 55.3941 68.977C58.7253 70.3226 62.6978 71.2947 67.5025 71.2947C55.3673 68.2609 49.5719 62.9517 47.2965 56.1257C47.2965 56.1257 47.2844 56.1361 47.2616 56.1562C47.1999 55.9803 47.14 55.8038 47.0842 55.6252C47.0034 55.3561 46.9386 55.0817 46.874 54.8082C46.8294 54.6193 46.7849 54.4308 46.7353 54.2448C46.6948 54.078 46.6527 53.9111 46.6106 53.7443C46.5263 53.4106 46.442 53.0768 46.3712 52.7431C46.2933 52.3533 46.2398 51.9553 46.1869 51.5611C46.1678 51.4184 46.1487 51.2763 46.1285 51.1352C46.0527 50.6953 45.9768 50.2554 45.9313 49.8155C45.8403 48.8295 45.7796 47.8435 45.7796 46.8272Z" fill="white"/>
<path fill-rule="evenodd" clip-rule="evenodd" d="M86.6897 35.8139C86.8555 35.092 87.0901 34.3862 87.3912 33.7077L87.4186 33.7363C90.4675 28.2603 97.2329 28.3968 99.7661 30.6418C100.484 30.2333 100.982 29.7641 101.406 29.3639C102.067 28.7414 102.55 28.2858 103.409 28.4847L103.467 28.5176C101.328 32.8863 101.328 38.2258 103.952 42.7765C104.65 43.9748 105.166 45.2642 105.514 46.6142C106.136 49.0564 106.167 51.6807 105.484 54.2898C98.7794 59.5382 90.3758 62.481 81.6081 62.3748C78.5267 62.3295 75.4002 61.9232 72.2885 61.096C74.8254 61.7682 77.526 61.7795 80.1216 61.0703C80.0988 61.0475 80.0723 61.0248 80.0457 61.002C80.0192 60.9793 79.9926 60.9565 79.9699 60.9338C80.9407 60.7669 81.8812 60.4939 82.8065 60.0691L82.8066 60.0691L82.8066 60.0691C83.1251 59.9174 83.4436 59.7657 83.7621 59.5837C84.0051 59.4401 84.2401 59.2805 84.4728 59.1223L84.4729 59.1222L84.4732 59.122C84.56 59.063 84.6465 59.0043 84.7329 58.9466C89.405 55.5639 90.8612 49.1323 87.9184 44.0355C86.4167 41.4568 86.0678 38.514 86.6897 35.8139ZM96.6565 34.2362C96.6565 35.074 95.9773 35.7531 95.1396 35.7531C94.3018 35.7531 93.6227 35.074 93.6227 34.2362C93.6227 33.3985 94.3018 32.7193 95.1396 32.7193C95.9773 32.7193 96.6565 33.3985 96.6565 34.2362Z" fill="white"/>
</g>
<path d="M39.3831 141.204H36.3167V135.306H35.4622V141.971H39.3831V141.204ZM40.7717 135.604C40.7717 135.901 41.011 136.136 41.3088 136.136C41.6067 136.136 41.8508 135.901 41.8508 135.604C41.8508 135.301 41.6067 135.066 41.3088 135.066C41.011 135.066 40.7717 135.301 40.7717 135.604ZM40.8889 141.971H41.7288V136.839H40.8889V141.971ZM45.7835 143.147C45.0803 143.147 44.6458 142.767 44.553 142.352H43.6936C43.8108 143.206 44.4749 143.851 45.7786 143.851C46.9407 143.851 47.9612 143.191 47.9612 141.878V136.839H47.1506V137.562H47.1262C46.887 137.127 46.3303 136.761 45.6321 136.761C44.426 136.761 43.5813 137.61 43.5813 139.119V139.544C43.5813 141.082 44.4358 141.922 45.6321 141.922C46.3303 141.922 46.8918 141.556 47.0969 141.111H47.1213V141.868C47.1213 142.674 46.594 143.147 45.7835 143.147ZM45.7932 137.483C46.6038 137.483 47.1213 138.143 47.1213 139.183V139.5C47.1213 140.56 46.6331 141.204 45.7932 141.204C44.929 141.204 44.4211 140.564 44.4211 139.5V139.183C44.4211 138.099 44.929 137.483 45.7932 137.483ZM49.9895 141.971H50.8293V138.846C50.8293 138.143 51.2102 137.518 52.094 137.518C52.846 137.518 53.3489 137.957 53.3489 138.821V141.971H54.1887V138.68C54.1887 137.43 53.4075 136.756 52.3479 136.756C51.5178 136.756 51.0442 137.19 50.8538 137.518H50.8293V134.954H49.9895V141.971ZM56.4221 136.839H55.7288V137.542H56.4172V140.535C56.4172 141.546 56.6663 142.015 57.8821 142.015C58.0579 142.015 58.2336 141.995 58.3069 141.98V141.307C58.2385 141.316 58.1751 141.316 58.092 141.316C57.4622 141.316 57.2571 141.16 57.2571 140.545V137.542H58.2727V136.839H57.2571V135.56H56.4221V136.839ZM64.8001 141.971V139.095L67.0315 135.306H66.0647L64.3948 138.265H64.3655L62.7004 135.306H61.7239L63.9553 139.1V141.971H64.8001ZM69.6311 136.756C68.1956 136.756 67.4241 137.796 67.4241 139.168V139.627C67.4241 141.019 68.1907 142.054 69.6311 142.054C71.0715 142.054 71.8284 141.019 71.8284 139.627V139.168C71.8284 137.796 71.0667 136.756 69.6311 136.756ZM69.6311 137.474C70.51 137.474 70.9885 138.147 70.9885 139.197V139.598C70.9885 140.647 70.51 141.326 69.6311 141.326C68.7473 141.326 68.2639 140.643 68.2639 139.598V139.197C68.2639 138.147 68.7473 137.474 69.6311 137.474ZM77.719 136.839H76.8743V140.018C76.8743 140.833 76.3567 141.297 75.6194 141.297C74.9456 141.297 74.3938 140.989 74.3938 140.032V136.839H73.5491V140.271C73.5491 141.448 74.3059 142.054 75.3655 142.054C76.1858 142.054 76.6692 141.702 76.8499 141.297H76.884V141.971H77.719V136.839ZM79.7131 141.971H80.5579V138.792C80.5579 138.099 80.8411 137.532 81.7493 137.532C81.9055 137.532 82.0715 137.537 82.1594 137.552V136.785C82.0569 136.771 81.9495 136.761 81.842 136.761C81.1145 136.761 80.7288 137.161 80.5774 137.469H80.553V136.839H79.7131V141.971ZM88.0227 141.971L89.4241 136.741H89.4534L90.8547 141.971H91.6116L93.4524 135.306H92.5051L91.2161 140.521H91.1868L89.8733 135.306H89.0042L87.6809 140.521H87.6565L86.3674 135.306H85.425L87.2561 141.971H88.0227ZM96.5452 136.756C95.1096 136.756 94.3381 137.796 94.3381 139.168V139.627C94.3381 141.019 95.1047 142.054 96.5452 142.054C97.9856 142.054 98.7424 141.019 98.7424 139.627V139.168C98.7424 137.796 97.9807 136.756 96.5452 136.756ZM96.5452 137.474C97.4241 137.474 97.9026 138.147 97.9026 139.197V139.598C97.9026 140.647 97.4241 141.326 96.5452 141.326C95.6614 141.326 95.178 140.643 95.178 139.598V139.197C95.178 138.147 95.6614 137.474 96.5452 137.474ZM100.541 141.971H101.386V138.792C101.386 138.099 101.669 137.532 102.577 137.532C102.734 137.532 102.9 137.537 102.988 137.552V136.785C102.885 136.771 102.778 136.761 102.67 136.761C101.943 136.761 101.557 137.161 101.406 137.469H101.381V136.839H100.541V141.971ZM104.65 141.971H105.485V134.954H104.65V141.971ZM109.364 136.761C108.07 136.761 107.313 137.776 107.313 139.173V139.637C107.313 141.067 108.026 142.049 109.364 142.049C110.052 142.049 110.589 141.727 110.877 141.199H110.897V141.971H111.702V134.954H110.863V137.552H110.838C110.579 137.098 110.042 136.761 109.364 136.761ZM109.481 137.493C110.345 137.493 110.877 138.167 110.877 139.202V139.612C110.877 140.701 110.355 141.316 109.495 141.316C108.719 141.316 108.157 140.75 108.157 139.607V139.202C108.157 138.06 108.719 137.493 109.481 137.493Z" fill="white"/>
<path d="M14.5458 120.035L19.6528 109.547C20.0024 108.803 20.2912 108.103 20.504 107.465C20.7928 106.644 20.9296 105.991 20.9296 105.535C20.9296 104.729 20.5344 104.152 19.7592 103.802L19.516 103.711C19.44 103.68 19.3944 103.65 19.364 103.65C19.3032 103.635 19.2728 103.62 19.2272 103.604C18.9992 103.513 18.8776 103.407 18.8776 103.316C18.8776 103.224 19.0296 103.179 19.3184 103.179L22.2823 103.316C22.6167 103.316 22.9207 103.316 23.1943 103.3C23.4071 103.285 23.6046 103.27 23.8174 103.255L24.623 103.194C24.8206 103.194 24.9878 103.209 25.1246 103.24C25.2766 103.285 25.3526 103.331 25.3526 103.392C25.3526 103.483 25.2918 103.604 25.155 103.756L24.7902 104.06C24.2126 104.501 23.5438 105.261 22.7687 106.325C22.0543 107.298 21.4767 108.255 21.0056 109.183L13.3907 124.306C13.2539 124.58 13.1171 124.823 12.9803 125.02C12.8131 125.264 12.6915 125.385 12.6155 125.385H12.5699C12.4787 125.385 12.3267 125.233 12.1291 124.929C12.0683 124.823 11.9923 124.686 11.9011 124.519L2.4015 105.793C2.20391 105.413 2.03672 105.094 1.86952 104.866C1.50474 104.334 0.98796 103.924 0.319187 103.635C0.227991 103.574 0.151994 103.528 0.121595 103.498C0.0455982 103.437 0 103.392 0 103.346C0 103.224 0.197592 103.148 0.577577 103.148L3.86064 103.285L7.4933 103.148C7.75169 103.148 7.88848 103.194 7.88848 103.285C7.88848 103.346 7.82768 103.422 7.70609 103.483C7.58449 103.528 7.4629 103.574 7.3261 103.589C7.00692 103.665 6.76373 103.848 6.58133 104.121C6.42934 104.334 6.35334 104.547 6.35334 104.729C6.35334 105.048 6.59653 105.687 7.08291 106.599L14.5458 120.035Z" fill="white"/>
<path d="M33.5336 106.234C33.5032 104.684 33.0624 103.817 32.2264 103.62L31.9984 103.544C31.9072 103.513 31.8616 103.468 31.8616 103.407C31.8616 103.24 31.9984 103.148 32.2568 103.148L33.5488 103.224C34.3999 103.27 35.0383 103.285 35.4791 103.285C35.9047 103.285 36.4974 103.27 37.2422 103.224L38.3518 103.164C38.4734 103.164 38.5645 103.179 38.6405 103.209C38.7621 103.255 38.8229 103.331 38.8229 103.422C38.8229 103.483 38.7621 103.544 38.6253 103.62L38.2758 103.802C38.1542 103.878 38.0478 103.954 37.9718 104.045C37.8654 104.152 37.7742 104.273 37.6982 104.41C37.5158 104.729 37.4246 105.155 37.4246 105.656V121.099C37.4246 122.801 37.9718 123.896 39.0509 124.382C39.3701 124.534 39.5221 124.625 39.5221 124.64C39.5221 124.686 39.4005 124.701 39.1421 124.701H31.6792C31.512 124.701 31.4208 124.686 31.4208 124.64C31.4208 124.61 31.4664 124.564 31.5728 124.519L31.968 124.367C33.0168 123.804 33.5336 122.725 33.5336 121.084V106.234Z" fill="white"/>
<path d="M64.2988 107.799C64.1468 108.271 64.0252 108.499 63.9492 108.499C63.9036 108.499 63.858 108.438 63.782 108.301C63.326 107.024 62.5508 106.006 61.4717 105.261C60.2253 104.41 58.6294 103.984 56.6991 103.984C55.9391 103.984 55.2399 104.03 54.5864 104.136C53.796 104.258 53.1272 104.44 52.5648 104.714C51.1513 105.368 50.4369 106.447 50.4369 107.967C50.4369 109.745 51.2881 110.931 53.0056 111.523C53.6744 111.766 54.6168 111.964 55.8479 112.131L57.5502 112.359C58.3558 112.45 58.979 112.526 59.4046 112.587C60.8181 112.77 62.0189 113.089 62.9916 113.514C63.858 113.879 64.5572 114.35 65.0739 114.913C65.5147 115.384 65.8339 115.946 66.0315 116.554C66.1987 117.056 66.2747 117.603 66.2747 118.226C66.2747 119.625 65.9251 120.856 65.2411 121.904C64.6332 122.847 63.7516 123.637 62.6116 124.276C61.6085 124.838 60.4381 125.248 59.0854 125.522C57.8846 125.765 56.6383 125.902 55.3311 125.902C53.5072 125.902 51.8505 125.735 50.3609 125.4C49.677 125.264 48.917 125.051 48.0962 124.792L45.5883 123.926L46.6675 119.944C46.7587 119.625 46.8195 119.427 46.8499 119.351C46.8955 119.26 46.9563 119.199 47.0323 119.199C47.1539 119.199 47.2299 119.351 47.2603 119.64C47.4882 121.205 48.4762 122.528 50.2089 123.607C51.7897 124.58 53.4312 125.066 55.1183 125.066C56.0151 125.066 56.8663 125.005 57.6414 124.868C58.5686 124.701 59.359 124.458 60.0429 124.124C61.6997 123.303 62.5204 121.98 62.5204 120.157C62.5204 118.545 61.7909 117.436 60.3317 116.843C59.7997 116.63 59.1006 116.463 58.2494 116.326L54.6472 115.825C54.0848 115.734 53.5832 115.658 53.112 115.566C51.9113 115.323 50.8929 115.004 50.0417 114.624C49.0082 114.153 48.2178 113.575 47.6554 112.876C47.0171 112.07 46.6979 111.113 46.6979 110.003C46.6979 108.696 47.0019 107.571 47.6098 106.629C48.157 105.778 48.9322 105.079 49.9657 104.547C50.8625 104.076 51.9417 103.711 53.188 103.483C54.2672 103.24 55.4223 103.148 56.6839 103.148C59.8453 103.148 62.7028 103.62 65.2411 104.577L64.2988 107.799Z" fill="white"/>
<path d="M74.4716 106.234C74.4412 104.684 74.0004 103.817 73.1645 103.62L72.9365 103.544C72.8453 103.513 72.7997 103.468 72.7997 103.407C72.7997 103.24 72.9365 103.148 73.1949 103.148L74.4868 103.209C75.338 103.255 75.9763 103.27 76.4171 103.27C76.8427 103.27 77.4355 103.255 78.1803 103.209L79.2898 103.148C79.4114 103.148 79.5026 103.164 79.5786 103.194C79.7002 103.24 79.761 103.316 79.761 103.407C79.761 103.468 79.7002 103.528 79.5634 103.604L79.2138 103.787C79.0922 103.863 78.9858 103.939 78.9098 104.03C78.8034 104.136 78.7122 104.258 78.6362 104.395C78.4386 104.729 78.3474 105.14 78.3474 105.641V121.084C78.3474 122.786 78.8946 123.88 79.9738 124.367C80.293 124.519 80.445 124.61 80.445 124.625C80.445 124.671 80.3234 124.686 80.065 124.686H72.6021C72.4349 124.686 72.3437 124.671 72.3437 124.625C72.3437 124.595 72.3893 124.549 72.4957 124.504L72.8909 124.352C73.9396 123.789 74.4564 122.71 74.4564 121.069V106.234H74.4716Z" fill="white"/>
<path d="M107.913 106.249C105.466 104.182 102.548 103.148 99.1431 103.148C95.7384 103.148 92.8202 104.182 90.3731 106.249C87.7892 108.423 86.5124 111.189 86.5124 114.518C86.5124 117.846 87.8044 120.597 90.3731 122.771C92.805 124.838 95.7384 125.872 99.1431 125.872C102.548 125.872 105.481 124.838 107.928 122.771C110.497 120.597 111.774 117.846 111.774 114.518C111.774 111.189 110.482 108.423 107.913 106.249ZM106.576 121.965C105.025 123.516 103.004 124.184 100.541 123.941C97.9424 123.698 95.5409 122.482 93.3673 120.293C91.1786 118.105 89.9627 115.718 89.7195 113.104C89.4763 110.642 90.1299 108.62 91.6954 107.07C93.2609 105.52 95.2673 104.851 97.7296 105.094C100.329 105.352 102.715 106.568 104.904 108.757C107.077 110.931 108.293 113.332 108.552 115.931C108.795 118.393 108.141 120.4 106.576 121.965Z" fill="white"/>
<path d="M102.18 114.518C100.502 114.518 99.1402 113.157 99.1402 111.479V114.518H102.18Z" fill="white"/>
<path d="M96.1004 114.519C97.7784 114.519 99.1402 115.881 99.1402 117.559L99.1402 114.519L96.1004 114.519Z" fill="white"/>
<path d="M99.1405 111.478C99.1405 113.156 97.7787 114.518 96.1006 114.518L99.1405 114.518L99.1405 111.478Z" fill="white"/>
<path d="M99.1399 117.557C99.1399 115.879 100.502 114.518 102.18 114.518L99.1399 114.518L99.1399 117.557Z" fill="white"/>
<path d="M138.725 122.969L120.896 103.545C120.82 103.453 120.759 103.393 120.713 103.347C120.592 103.21 120.485 103.149 120.394 103.149H120.333C120.288 103.149 120.257 103.21 120.212 103.317C120.181 103.408 120.166 103.529 120.166 103.666V110.217C120.166 111.57 120.273 121.48 120.014 122.346C119.695 123.441 119.163 124.17 118.418 124.535C118.038 124.733 117.841 124.885 117.841 124.976C117.841 125.067 117.962 125.113 118.19 125.113H123.677C123.966 125.113 124.103 125.052 124.103 124.945C124.103 124.824 124.012 124.733 123.844 124.672C122.796 124.231 122.081 123.38 121.686 122.103C121.519 121.556 121.169 112.117 121.093 111.357C121.033 110.749 121.002 110.02 121.002 109.153V110.278L135.7 125.295H141.248C141.582 125.295 141.749 125.234 141.749 125.113C141.749 125.052 141.552 124.945 141.141 124.748C140.579 124.505 140.199 124.064 139.986 123.425C139.697 122.605 139.545 121.191 139.545 119.2V118.957C139.545 117.634 139.713 116.525 140.032 115.643C140.457 114.503 141.172 113.683 142.19 113.196C142.342 113.196 142.418 113.151 142.418 113.059C142.418 113.014 142.327 112.999 142.129 112.999H136.521C136.019 112.999 135.776 113.044 135.776 113.135C135.776 113.166 135.822 113.196 135.913 113.227L136.186 113.318C137.174 113.774 137.874 114.549 138.269 115.659C138.573 116.479 138.725 117.589 138.725 118.957V122.969Z" fill="white"/>
<path d="M141.901 110.551H136.293C136.293 109.593 137.205 108.62 139.044 107.632C139.591 107.343 140.001 107.024 140.275 106.705C140.625 106.28 140.792 105.808 140.792 105.276C140.792 104.06 140.169 103.437 138.938 103.437C137.904 103.437 137.25 103.924 136.962 104.896L136.901 105.079C136.886 105.109 136.87 105.124 136.84 105.124C136.81 105.124 136.794 105.094 136.764 105.048L136.414 103.741C136.855 103.559 137.25 103.407 137.63 103.316C138.071 103.194 138.497 103.148 138.907 103.148C139.302 103.148 139.697 103.179 140.062 103.255C140.473 103.331 140.837 103.452 141.141 103.62C141.491 103.817 141.765 104.045 141.947 104.334C142.16 104.653 142.266 105.033 142.266 105.474C142.266 105.869 142.175 106.234 141.977 106.523C141.81 106.781 141.552 107.009 141.233 107.207C140.974 107.359 140.655 107.511 140.245 107.647L139.226 107.982C138.618 108.195 138.147 108.468 137.828 108.772C137.554 109.046 137.418 109.304 137.418 109.563H140.594C141.4 109.563 141.977 109.304 142.312 108.787L142.357 108.711C142.388 108.696 142.403 108.681 142.418 108.681C142.464 108.681 142.479 108.711 142.479 108.757C142.479 108.787 142.464 108.833 142.449 108.894L141.901 110.551Z" fill="white"/>
<path d="M143.814 104.288C144.513 103.528 145.364 103.148 146.398 103.148C147.431 103.148 148.283 103.528 148.982 104.288C149.65 105.018 150 105.915 150 106.948C150 107.982 149.666 108.863 148.982 109.608C148.283 110.368 147.416 110.748 146.398 110.748C145.364 110.748 144.498 110.368 143.814 109.608C143.13 108.879 142.796 107.982 142.796 106.948C142.796 105.915 143.145 105.018 143.814 104.288ZM144.331 108.134C144.391 108.59 144.483 108.97 144.619 109.289C144.771 109.669 144.984 109.958 145.258 110.171C145.562 110.399 145.957 110.52 146.413 110.52C146.869 110.52 147.249 110.399 147.568 110.171C147.842 109.973 148.055 109.684 148.207 109.289C148.343 108.97 148.435 108.59 148.48 108.134C148.526 107.799 148.541 107.404 148.541 106.948C148.541 106.492 148.526 106.082 148.48 105.748C148.419 105.292 148.328 104.912 148.207 104.592C148.055 104.212 147.842 103.908 147.568 103.711C147.264 103.483 146.869 103.361 146.413 103.361C145.957 103.361 145.562 103.483 145.258 103.711C144.984 103.908 144.771 104.212 144.619 104.592C144.483 104.912 144.391 105.307 144.331 105.748C144.285 106.082 144.27 106.477 144.27 106.933C144.27 107.404 144.3 107.799 144.331 108.134Z" fill="white"/>
<defs>
<clipPath id="clip0_1044_12514">
<rect width="62.1929" height="97.0815" fill="white" transform="translate(44.7485)"/>
</clipPath>
</defs>
</svg>
