<svg width="40" height="40" viewBox="0 0 40 40" fill="none" xmlns="http://www.w3.org/2000/svg">
<path d="M22.2618 10.7509C22.1779 9.94037 22.0905 9.09938 21.8756 8.26018C21.2901 6.25255 19.6683 5.00002 17.9294 5.00002C16.9594 4.99644 15.7326 5.59407 15.037 6.19887L9.27144 11.0283H6.25323C4.03195 11.0283 2.24584 12.7407 1.90854 15.2117C1.62193 17.5844 1.55202 22.0631 1.90854 24.6737C2.21788 27.2844 3.9236 28.9717 6.25323 28.9717H9.27144L15.1488 33.8727C15.7518 34.397 16.8161 34.9982 17.7948 34.9982C17.8577 35 17.9136 35 17.9696 35C19.7417 35 21.3024 33.7009 21.8878 31.6987C22.1098 30.8469 22.1867 30.0489 22.2618 29.2777L22.3405 28.5137C22.6411 26.0354 22.6411 13.9485 22.3405 11.4881L22.2618 10.7509Z" fill="#FF7800"/>
<path opacity="0.4" d="M29.0109 10.8244C28.5303 10.1158 27.5779 9.93866 26.8805 10.4307C26.1902 10.9264 26.0189 11.9033 26.4996 12.6101C27.8365 14.5802 28.5723 17.2034 28.5723 20.0001C28.5723 22.795 27.8365 25.42 26.4996 27.39C26.0189 28.0968 26.1902 29.0738 26.8823 29.5694C27.1409 29.752 27.4433 29.8486 27.7544 29.8486C28.256 29.8486 28.7243 29.5963 29.0109 29.1758C30.6992 26.6886 31.6307 23.4302 31.6307 20.0001C31.6307 16.5699 30.6992 13.3116 29.0109 10.8244Z" fill="#FF7800"/>
<path opacity="0.4" d="M34.2787 5.76218C33.8016 5.05539 32.8457 4.87467 32.1501 5.36853C31.4598 5.86417 31.2885 6.84115 31.7674 7.54793C34.0288 10.8797 35.2749 15.3029 35.2749 19.9999C35.2749 24.6987 34.0288 29.1219 31.7674 32.4537C31.2885 33.1622 31.4598 34.1374 32.1518 34.6331C32.4105 34.8156 32.7111 34.9122 33.0222 34.9122C33.5238 34.9122 33.9939 34.6599 34.2787 34.2394C36.8932 30.3906 38.3333 25.3339 38.3333 19.9999C38.3333 14.6695 36.8932 9.61104 34.2787 5.76218Z" fill="#FF7800"/>
</svg>
