<svg width="41" height="40" viewBox="0 0 41 40" fill="none" xmlns="http://www.w3.org/2000/svg">
<rect x="0.5" width="40" height="40" rx="20" fill="#50C8FF" fill-opacity="0.1"/>
<path d="M27.9999 10.25H15.2499C14.4546 10.2509 13.692 10.5673 13.1296 11.1297C12.5672 11.6921 12.2508 12.4546 12.2499 13.25V29.75C12.2499 29.9489 12.329 30.1397 12.4696 30.2803C12.6103 30.421 12.801 30.5 12.9999 30.5H26.4999C26.6989 30.5 26.8896 30.421 27.0303 30.2803C27.1709 30.1397 27.2499 29.9489 27.2499 29.75C27.2499 29.5511 27.1709 29.3603 27.0303 29.2197C26.8896 29.079 26.6989 29 26.4999 29H13.7499C13.7504 28.6023 13.9086 28.221 14.1898 27.9398C14.471 27.6586 14.8523 27.5005 15.2499 27.5H27.9999C28.1988 27.5 28.3896 27.421 28.5303 27.2803C28.6709 27.1397 28.7499 26.9489 28.7499 26.75V11C28.7499 10.8011 28.6709 10.6103 28.5303 10.4697C28.3896 10.329 28.1988 10.25 27.9999 10.25ZM20.5002 11.75H25.7502V19.2501L23.3494 17.45C23.2845 17.4013 23.2056 17.375 23.1244 17.375C23.0433 17.375 22.9644 17.4013 22.8994 17.45L20.5002 19.2499V11.75Z" fill="#50C8FF"/>
</svg>
