<svg width="40" height="40" viewBox="0 0 40 40" fill="none" xmlns="http://www.w3.org/2000/svg">
<rect width="40" height="40" rx="20" fill="#FF7800" fill-opacity="0.1"/>
<path d="M27.4999 10.25H14.7499C13.9546 10.2509 13.192 10.5673 12.6296 11.1297C12.0672 11.6921 11.7508 12.4546 11.7499 13.25V29.75C11.7499 29.9489 11.829 30.1397 11.9696 30.2803C12.1103 30.421 12.301 30.5 12.4999 30.5H25.9999C26.1989 30.5 26.3896 30.421 26.5303 30.2803C26.6709 30.1397 26.7499 29.9489 26.7499 29.75C26.7499 29.5511 26.6709 29.3603 26.5303 29.2197C26.3896 29.079 26.1989 29 25.9999 29H13.2499C13.2504 28.6023 13.4086 28.221 13.6898 27.9398C13.971 27.6586 14.3523 27.5005 14.7499 27.5H27.4999C27.6988 27.5 27.8896 27.421 28.0303 27.2803C28.1709 27.1397 28.2499 26.9489 28.2499 26.75V11C28.2499 10.8011 28.1709 10.6103 28.0303 10.4697C27.8896 10.329 27.6988 10.25 27.4999 10.25ZM20.0002 11.75H25.2502V19.2501L22.8494 17.45C22.7845 17.4013 22.7056 17.375 22.6244 17.375C22.5433 17.375 22.4644 17.4013 22.3994 17.45L20.0002 19.2499V11.75Z" fill="#FF7800"/>
</svg>
