<svg width="40" height="40" viewBox="0 0 40 40" fill="none" xmlns="http://www.w3.org/2000/svg">
<path opacity="0.4" fill-rule="evenodd" clip-rule="evenodd" d="M9 3.33398C6.79086 3.33398 5 5.12485 5 7.33398V36.6673H31C33.2091 36.6673 35 34.8765 35 32.6673V3.33398H9ZM32.1533 31.6673H11.6666C9.95804 31.6673 8.48964 32.6957 7.84668 34.1673H28.3333C30.0419 34.1673 31.5103 33.1389 32.1533 31.6673Z" fill="#7850DC"/>
<path d="M26.6667 18.3427C26.6667 18.764 26.5341 19.1868 26.2689 19.5254C26.2192 19.5918 25.9872 19.8656 25.8049 20.0438L25.7055 20.141C24.3134 21.6169 20.8499 23.8365 19.0933 24.5477C19.0933 24.5639 18.0492 24.9867 17.5521 25.0013H17.4858C16.7235 25.0013 16.0109 24.5817 15.6463 23.9013C15.4474 23.527 15.2652 22.4416 15.2486 22.427C15.0994 21.4533 15 19.9628 15 18.3265C15 16.6109 15.0994 15.054 15.2817 14.0981C15.2817 14.0819 15.464 13.2071 15.58 12.9154C15.7623 12.4958 16.0937 12.1378 16.508 11.911C16.8395 11.7506 17.1875 11.668 17.5521 11.668C17.9332 11.6858 18.6458 11.9272 18.9276 12.0406C20.7836 12.7534 24.33 15.0864 25.6889 16.512C25.9209 16.7388 26.1695 17.0159 26.2358 17.0791C26.5175 17.4355 26.6667 17.8729 26.6667 18.3427Z" fill="#7850DC"/>
</svg>
