<svg width="40" height="40" viewBox="0 0 40 40" fill="none" xmlns="http://www.w3.org/2000/svg">
<path opacity="0.4" d="M28.1767 3.33325H15.1717C10.0867 3.33325 6.66667 7.29992 6.66667 13.1999V26.8166C6.66667 32.6999 10.0867 36.6666 15.1717 36.6666H28.1767C33.2617 36.6666 36.6667 32.6999 36.6667 26.8166V13.1999C36.6667 7.29992 33.2617 3.33325 28.1767 3.33325Z" fill="#FFC83C"/>
<path d="M4.61906 11.6827V11.6667H9.54598C10.2564 11.6667 10.8333 12.2241 10.8333 12.9072C10.8333 13.6094 10.2564 14.1667 9.54598 14.1667H4.61906C3.90862 14.1667 3.33334 13.6094 3.33334 12.9247C3.33334 12.24 3.90862 11.6827 4.61906 11.6827Z" fill="#FFC83C"/>
<path d="M4.61906 25.8492V25.8333H9.54598C10.2564 25.8333 10.8333 26.3906 10.8333 27.0737C10.8333 27.7759 10.2564 28.3333 9.54598 28.3333H4.61906C3.90862 28.3333 3.33334 27.7759 3.33334 27.0912C3.33334 26.4065 3.90862 25.8492 4.61906 25.8492Z" fill="#FFC83C"/>
<path d="M4.61906 18.7659V18.75H9.54598C10.2564 18.75 10.8333 19.3073 10.8333 19.9904C10.8333 20.6927 10.2564 21.25 9.54598 21.25H4.61906C3.90862 21.25 3.33334 20.6927 3.33334 20.008C3.33334 19.3232 3.90862 18.7659 4.61906 18.7659Z" fill="#FFC83C"/>
<path d="M22.997 23.175C18.684 23.175 15 23.8551 15 26.5751C15 29.2961 18.661 30.0001 22.997 30.0001C27.3101 30.0001 30.9941 29.3211 30.9941 26.6001C30.9941 23.8791 27.3341 23.175 22.997 23.175Z" fill="#FFC83C"/>
<path d="M22.997 20.5841C25.9351 20.5841 28.2891 18.229 28.2891 15.292C28.2891 12.355 25.9351 10 22.997 10C20.06 10 17.705 12.355 17.705 15.292C17.705 18.229 20.06 20.5841 22.997 20.5841Z" fill="#FFC83C"/>
</svg>
