<svg width="25" height="24" viewBox="0 0 25 24" fill="none" xmlns="http://www.w3.org/2000/svg">
<path d="M23.2762 6.85135C23.1625 6.78541 23.0336 6.75047 22.9022 6.75002C22.7709 6.74957 22.6417 6.78363 22.5276 6.84879L18.3997 9.2076V8.625C18.3986 7.63079 18.0031 6.67762 17.3001 5.97461C16.5971 5.27159 15.6439 4.87614 14.6497 4.875H10.795C10.651 4.87498 10.5101 4.91638 10.3891 4.99425C10.2681 5.07212 10.172 5.18317 10.1123 5.31416C10.0527 5.44514 10.032 5.59052 10.0527 5.73295C10.0735 5.87537 10.1347 6.00882 10.2293 6.11737L17.084 13.9924C17.0909 14.0002 17.0985 14.0072 17.1057 14.0147C17.1136 14.0231 17.1215 14.0316 17.1298 14.0396C17.1457 14.0549 17.1623 14.0691 17.1793 14.0828C17.1858 14.0881 17.1919 14.0937 17.1986 14.0988C17.2229 14.1172 17.2484 14.1341 17.2749 14.1494C17.2758 14.1499 17.2767 14.1507 17.2776 14.1512L22.5276 17.1512C22.6417 17.2164 22.7709 17.2504 22.9022 17.25C23.0336 17.2495 23.1625 17.2146 23.2761 17.1487C23.3898 17.0827 23.4841 16.9881 23.5496 16.8743C23.6152 16.7604 23.6497 16.6314 23.6497 16.5V7.5C23.6497 7.36863 23.6152 7.23957 23.5497 7.12573C23.4841 7.01189 23.3898 6.91727 23.2762 6.85135Z" fill="#FF3C3C"/>
<path d="M4.22763 1.74551C4.09382 1.59832 3.90701 1.51031 3.70831 1.50085C3.50961 1.49139 3.31528 1.56125 3.16809 1.69506C3.0209 1.82888 2.93289 2.01569 2.92343 2.21439C2.91397 2.41309 2.98383 2.60741 3.11765 2.7546L5.04533 4.87506H2.6499C2.25222 4.87551 1.87095 5.03369 1.58974 5.3149C1.30854 5.59611 1.15036 5.97737 1.1499 6.37506V15.3751C1.15104 16.3693 1.54649 17.3224 2.24951 18.0255C2.95252 18.7285 3.90569 19.1239 4.8999 19.1251H16.8999C17.2058 19.1252 17.5044 19.0312 17.7551 18.8558L20.8449 22.2546C20.9112 22.3275 20.9911 22.3866 21.0802 22.4286C21.1693 22.4706 21.2658 22.4946 21.3642 22.4993C21.4626 22.5039 21.561 22.4892 21.6537 22.4559C21.7463 22.4226 21.8316 22.3713 21.9044 22.305C21.9773 22.2388 22.0365 22.1588 22.0784 22.0697C22.1204 21.9806 22.1444 21.8841 22.1491 21.7857C22.1538 21.6873 22.1391 21.589 22.1057 21.4963C22.0724 21.4036 22.0212 21.3184 21.9549 21.2455L4.22763 1.74551Z" fill="#FF3C3C"/>
</svg>
