<svg width="25" height="24" viewBox="0 0 25 24" fill="none" xmlns="http://www.w3.org/2000/svg">
<path d="M3.59411 13.1954C2.75547 11.7816 2.46177 10.1104 2.76816 8.49539C3.07456 6.88042 3.95997 5.43285 5.25813 4.4245C6.5563 3.41614 8.17792 2.91638 9.81848 3.01904C11.4591 3.1217 13.0057 3.81973 14.168 4.98206C15.3304 6.14438 16.0284 7.69104 16.1311 9.33161C16.2337 10.9722 15.734 12.5938 14.7256 13.892C13.7173 15.1901 12.2697 16.0756 10.6548 16.382C9.03979 16.6884 7.36852 16.3947 5.95477 15.556L5.95478 15.556L3.62346 16.2221C3.52701 16.2496 3.42494 16.2509 3.32783 16.2257C3.23073 16.2005 3.14211 16.1499 3.07118 16.0789C3.00025 16.008 2.94958 15.9194 2.92441 15.8223C2.89925 15.7252 2.90051 15.6231 2.92807 15.5267L3.59417 13.1953L3.59411 13.1954Z" stroke="white" stroke-width="1.5" stroke-linecap="round" stroke-linejoin="round"/>
<path d="M9.03052 16.4898C9.36234 17.4318 9.89895 18.2885 10.6017 18.9981C11.3044 19.7078 12.1558 20.2528 13.0945 20.5938C14.0332 20.9349 15.0359 21.0635 16.0302 20.9705C17.0246 20.8774 17.986 20.565 18.8451 20.0557L18.8451 20.0556L21.1764 20.7217C21.2729 20.7492 21.375 20.7505 21.4721 20.7253C21.5692 20.7002 21.6578 20.6495 21.7287 20.5786C21.7997 20.5076 21.8503 20.419 21.8755 20.3219C21.9006 20.2248 21.8994 20.1228 21.8718 20.0263L21.2057 17.695L21.2058 17.695C21.7976 16.6969 22.1222 15.5631 22.1483 14.403C22.1743 13.2429 21.901 12.0957 21.3546 11.072C20.8081 10.0483 20.0071 9.18275 19.0288 8.55879C18.0504 7.93482 16.9278 7.57353 15.7692 7.50977" stroke="white" stroke-width="1.5" stroke-linecap="round" stroke-linejoin="round"/>
</svg>
