<svg width="25" height="24" viewBox="0 0 25 24" fill="none" xmlns="http://www.w3.org/2000/svg">
<path d="M2.6499 5.625H14.6499C15.4456 5.625 16.2086 5.94107 16.7712 6.50368C17.3338 7.06629 17.6499 7.82935 17.6499 8.625V17.625C17.6499 17.8239 17.5709 18.0147 17.4302 18.1553C17.2896 18.296 17.0988 18.375 16.8999 18.375H4.8999C4.10425 18.375 3.34119 18.0589 2.77858 17.4963C2.21597 16.9337 1.8999 16.1706 1.8999 15.375V6.375C1.8999 6.17609 1.97892 5.98532 2.11957 5.84467C2.26022 5.70402 2.45099 5.625 2.6499 5.625V5.625Z" stroke="white" stroke-width="1.5" stroke-linecap="round" stroke-linejoin="round"/>
<path d="M17.6499 10.5L22.8999 7.5V16.5L17.6499 13.5" stroke="white" stroke-width="1.5" stroke-linecap="round" stroke-linejoin="round"/>
</svg>
