<svg width="24" height="24" viewBox="0 0 24 24" fill="none" xmlns="http://www.w3.org/2000/svg">
<path d="M19.5 19.5H4.5C4.10218 19.5 3.72064 19.342 3.43934 19.0607C3.15804 18.7794 3 18.3978 3 18V7.5C3 7.10218 3.15804 6.72064 3.43934 6.43934C3.72064 6.15804 4.10218 6 4.5 6H7.49945L8.99945 3.75H14.9995L16.4995 6H19.5C19.8978 6 20.2794 6.15804 20.5607 6.43934C20.842 6.72064 21 7.10218 21 7.5V18C21 18.3978 20.842 18.7794 20.5607 19.0607C20.2794 19.342 19.8978 19.5 19.5 19.5Z" stroke="white" stroke-width="1.5" stroke-linecap="round" stroke-linejoin="round"/>
<path d="M13.0503 11.1992H15.5503V8.69922" stroke="white" stroke-width="1.5" stroke-linecap="round" stroke-linejoin="round"/>
<path d="M9.70361 9.95191C10.0054 9.65012 10.3637 9.41072 10.758 9.24739C11.1523 9.08406 11.5749 9 12.0017 9C12.4285 9 12.8512 9.08406 13.2455 9.24739C13.6398 9.41072 13.9981 9.65012 14.2998 9.95191L15.5534 11.2054" stroke="white" stroke-width="1.5" stroke-linecap="round" stroke-linejoin="round"/>
<path d="M10.9502 13.293H8.4502V15.793" stroke="white" stroke-width="1.5" stroke-linecap="round" stroke-linejoin="round"/>
<path d="M14.2999 14.5465C13.9982 14.8483 13.6399 15.0877 13.2456 15.251C12.8512 15.4143 12.4286 15.4984 12.0018 15.4984C11.575 15.4984 11.1524 15.4143 10.7581 15.251C10.3638 15.0877 10.0055 14.8483 9.70371 14.5465L8.4502 13.293" stroke="white" stroke-width="1.5" stroke-linecap="round" stroke-linejoin="round"/>
</svg>
