<svg width="41" height="40" viewBox="0 0 41 40" fill="none" xmlns="http://www.w3.org/2000/svg">
<path opacity="0.4" fill-rule="evenodd" clip-rule="evenodd" d="M10.1844 34.3141C10.1844 32.9141 11.3177 31.7808 12.7177 31.7808C14.101 31.7808 15.2344 32.9141 15.2344 34.3141C15.2344 35.6974 14.101 36.8308 12.7177 36.8308C11.3177 36.8308 10.1844 35.6974 10.1844 34.3141ZM28.9344 34.3141C28.9344 32.9141 30.0677 31.7808 31.4677 31.7808C32.851 31.7808 33.9844 32.9141 33.9844 34.3141C33.9844 35.6974 32.851 36.8308 31.4677 36.8308C30.0677 36.8308 28.9344 35.6974 28.9344 34.3141Z" fill="#1EC88C"/>
<path fill-rule="evenodd" clip-rule="evenodd" d="M33.9847 10.5816C35.0014 10.5816 35.668 10.9316 36.3347 11.6982C37.0014 12.4649 37.118 13.5649 36.968 14.5632L35.3847 25.4966C35.0847 27.5982 33.2847 29.1466 31.168 29.1466H12.9847C10.768 29.1466 8.9347 27.4466 8.75136 25.2482L7.21803 7.0799L4.70136 6.64657C4.0347 6.5299 3.56803 5.8799 3.6847 5.21323C3.80136 4.5299 4.45136 4.0799 5.1347 4.1799L9.1097 4.7799C9.67636 4.88157 10.093 5.34657 10.143 5.91323L10.4597 9.64657C10.5097 10.1816 10.943 10.5816 11.4764 10.5816H33.9847ZM23.8847 19.2466H28.5014C29.2014 19.2466 29.7514 18.6799 29.7514 17.9966C29.7514 17.2966 29.2014 16.7466 28.5014 16.7466H23.8847C23.1847 16.7466 22.6347 17.2966 22.6347 17.9966C22.6347 18.6799 23.1847 19.2466 23.8847 19.2466Z" fill="#1EC88C"/>
</svg>
