<svg width="40" height="40" viewBox="0 0 40 40" fill="none" xmlns="http://www.w3.org/2000/svg">
<path opacity="0.4" d="M35.4167 22.4606C34.0483 22.4606 32.935 21.3575 32.935 20.0017C32.935 18.6442 34.0483 17.541 35.4167 17.541C35.7483 17.541 36.0667 17.4105 36.3 17.1793C36.535 16.9465 36.6667 16.6311 36.6667 16.3024L36.665 11.8403C36.665 8.06837 33.5667 5 29.76 5H10.24C6.43334 5 3.33501 8.06837 3.33501 11.8403L3.33334 16.4461C3.33334 16.7747 3.46501 17.0902 3.70001 17.323C3.93334 17.5542 4.25168 17.6847 4.58334 17.6847C5.99834 17.6847 7.06501 18.6805 7.06501 20.0017C7.06501 21.3575 5.95168 22.4606 4.58334 22.4606C3.89334 22.4606 3.33334 23.0155 3.33334 23.6992V28.1581C3.33334 31.93 6.43001 35 10.2383 35H29.7617C33.57 35 36.6667 31.93 36.6667 28.1581V23.6992C36.6667 23.0155 36.1067 22.4606 35.4167 22.4606Z" fill="#1EC88C"/>
<path d="M25.7175 19.3144L23.7525 21.2277L24.2175 23.9327C24.2975 24.4011 24.1092 24.8627 23.7242 25.1394C23.3425 25.4194 22.8442 25.4544 22.4242 25.2311L19.9992 23.9561L17.5692 25.2327C17.3892 25.3277 17.1925 25.3777 16.9975 25.3777C16.7425 25.3777 16.4908 25.2977 16.2742 25.1411C15.8908 24.8627 15.7025 24.4011 15.7825 23.9327L16.2458 21.2277L14.2808 19.3144C13.9408 18.9844 13.8225 18.4994 13.9692 18.0477C14.1175 17.5977 14.5008 17.2777 14.9692 17.2111L17.6792 16.8161L18.8942 14.3544C19.1058 13.9311 19.5292 13.6677 19.9992 13.6677H20.0025C20.4742 13.6694 20.8975 13.9327 21.1058 14.3561L22.3208 16.8161L25.0358 17.2127C25.4992 17.2777 25.8825 17.5977 26.0292 18.0477C26.1775 18.4994 26.0592 18.9844 25.7175 19.3144Z" fill="#1EC88C"/>
</svg>
