<svg width="40" height="40" viewBox="0 0 40 40" fill="none" xmlns="http://www.w3.org/2000/svg">
<path opacity="0.4" d="M35.4167 22.4606C34.0483 22.4606 32.935 21.3575 32.935 20.0017C32.935 18.6442 34.0483 17.541 35.4167 17.541C35.7483 17.541 36.0667 17.4105 36.3 17.1793C36.535 16.9465 36.6667 16.6311 36.6667 16.3024L36.665 11.8403C36.665 8.06837 33.5667 5 29.76 5H10.24C6.43334 5 3.33501 8.06837 3.33501 11.8403L3.33334 16.4461C3.33334 16.7747 3.46501 17.0902 3.70001 17.323C3.93334 17.5542 4.25168 17.6847 4.58334 17.6847C5.99834 17.6847 7.06501 18.6805 7.06501 20.0017C7.06501 21.3575 5.95168 22.4606 4.58334 22.4606C3.89334 22.4606 3.33334 23.0155 3.33334 23.6992V28.1581C3.33334 31.93 6.43001 35 10.2383 35H29.7617C33.57 35 36.6667 31.93 36.6667 28.1581V23.6992C36.6667 23.0155 36.1067 22.4606 35.4167 22.4606" fill="#1EC88C"/>
<path d="M25.7175 19.3146L23.7525 21.228L24.2175 23.933C24.2975 24.4013 24.1092 24.863 23.7242 25.1396C23.3425 25.4196 22.8442 25.4546 22.4242 25.2313L19.9992 23.9563L17.5692 25.233C17.3892 25.328 17.1925 25.378 16.9975 25.378C16.7425 25.378 16.4908 25.298 16.2742 25.1413C15.8908 24.863 15.7025 24.4013 15.7825 23.933L16.2458 21.228L14.2808 19.3146C13.9408 18.9846 13.8225 18.4996 13.9692 18.048C14.1175 17.598 14.5008 17.278 14.9692 17.2113L17.6792 16.8163L18.8942 14.3546C19.1058 13.9313 19.5292 13.668 19.9992 13.668H20.0025C20.4742 13.6696 20.8975 13.933 21.1058 14.3563L22.3208 16.8163L25.0358 17.213C25.4992 17.278 25.8825 17.598 26.0292 18.048C26.1775 18.4996 26.0592 18.9846 25.7175 19.3146" fill="#1EC88C"/>
</svg>
