<svg width="25" height="24" viewBox="0 0 25 24" fill="none" xmlns="http://www.w3.org/2000/svg">
<path d="M7.29086 3.75H4.10904C4.02118 3.75 3.94995 3.95351 3.94995 4.20455V13.2955C3.94995 13.5465 4.02118 13.75 4.10904 13.75H7.29086C7.37872 13.75 7.44995 13.5465 7.44995 13.2955V4.20455C7.44995 3.95351 7.37872 3.75 7.29086 3.75Z" stroke="white" stroke-width="1.5" stroke-linecap="round" stroke-linejoin="round"/>
<path d="M20.2909 3.75H17.109C17.0212 3.75 16.95 4.08579 16.95 4.5V19.5C16.95 19.9142 17.0212 20.25 17.109 20.25H20.2909C20.3787 20.25 20.45 19.9142 20.45 19.5V4.5C20.45 4.08579 20.3787 3.75 20.2909 3.75Z" stroke="white" stroke-width="1.5" stroke-linecap="round" stroke-linejoin="round"/>
<path d="M13.7909 3.75H10.609C10.5212 3.75 10.45 3.82123 10.45 3.90909V7.09091C10.45 7.17877 10.5212 7.25 10.609 7.25H13.7909C13.8787 7.25 13.95 7.17877 13.95 7.09091V3.90909C13.95 3.82123 13.8787 3.75 13.7909 3.75Z" stroke="white" stroke-width="1.5" stroke-linecap="round" stroke-linejoin="round"/>
<path d="M13.4954 16.75H4.4045C4.15346 16.75 3.94995 16.8212 3.94995 16.9091V20.0909C3.94995 20.1788 4.15346 20.25 4.4045 20.25H13.4954C13.7464 20.25 13.95 20.1788 13.95 20.0909V16.9091C13.95 16.8212 13.7464 16.75 13.4954 16.75Z" stroke="white" stroke-width="1.5" stroke-linecap="round" stroke-linejoin="round"/>
<path d="M13.7909 10.25H10.609C10.5212 10.25 10.45 10.3212 10.45 10.4091V13.5909C10.45 13.6788 10.5212 13.75 10.609 13.75H13.7909C13.8787 13.75 13.95 13.6788 13.95 13.5909V10.4091C13.95 10.3212 13.8787 10.25 13.7909 10.25Z" stroke="white" stroke-width="1.5" stroke-linecap="round" stroke-linejoin="round"/>
</svg>
