<svg width="41" height="40" viewBox="0 0 41 40" fill="none" xmlns="http://www.w3.org/2000/svg">
<path fill-rule="evenodd" clip-rule="evenodd" d="M26.0713 7.89626C26.0713 11.5979 29.0765 14.5987 32.7836 14.5987C33.1918 14.5967 33.5989 14.5575 34 14.4816V27.7694C34 33.3597 30.7025 36.667 25.1041 36.667H12.9106C7.29751 36.667 4 33.3597 4 27.7694V15.5938C4 10.0036 7.29751 6.66699 12.9106 6.66699H26.1886C26.1098 7.072 26.0705 7.48368 26.0713 7.89626ZM22.5833 24.828L27.3464 18.6816V18.6524C27.7541 18.1044 27.6501 17.3318 27.1119 16.9109C26.8514 16.7098 26.5203 16.6227 26.1944 16.6696C25.8685 16.7165 25.5756 16.8933 25.3825 17.1597L21.3669 22.3255L16.7943 18.7255C16.5333 18.5221 16.2012 18.4323 15.873 18.4764C15.5449 18.5205 15.2483 18.6947 15.0503 18.9597L10.126 25.3109C9.95295 25.5266 9.85977 25.7954 9.86224 26.0719C9.83366 26.6306 10.1865 27.138 10.7206 27.3067C11.2548 27.4753 11.8356 27.2625 12.1339 26.7889L16.2521 21.4621L20.8246 25.0475C21.0847 25.2572 21.419 25.3522 21.7507 25.3108C22.0823 25.2694 22.3829 25.0951 22.5833 24.828Z" fill="#FF7800"/>
<ellipse opacity="0.4" cx="33.1667" cy="7.50016" rx="4.16667" ry="4.16667" fill="#FF7800"/>
</svg>
