<svg width="25" height="24" viewBox="0 0 25 24" fill="none" xmlns="http://www.w3.org/2000/svg">
<path d="M12.6001 13.5C13.4285 13.5 14.1001 12.8284 14.1001 12C14.1001 11.1716 13.4285 10.5 12.6001 10.5C11.7717 10.5 11.1001 11.1716 11.1001 12C11.1001 12.8284 11.7717 13.5 12.6001 13.5Z" fill="white"/>
<path d="M12.6001 7.5C13.4285 7.5 14.1001 6.82843 14.1001 6C14.1001 5.17157 13.4285 4.5 12.6001 4.5C11.7717 4.5 11.1001 5.17157 11.1001 6C11.1001 6.82843 11.7717 7.5 12.6001 7.5Z" fill="white"/>
<path d="M12.6001 19.5C13.4285 19.5 14.1001 18.8284 14.1001 18C14.1001 17.1716 13.4285 16.5 12.6001 16.5C11.7717 16.5 11.1001 17.1716 11.1001 18C11.1001 18.8284 11.7717 19.5 12.6001 19.5Z" fill="white"/>
</svg>
