<svg width="40" height="40" viewBox="0 0 40 40" fill="none" xmlns="http://www.w3.org/2000/svg">
<path opacity="0.4" d="M31.348 15.0352C30.5955 15.0352 29.5988 15.0185 28.3578 15.0185C25.3312 15.0185 22.8426 12.5135 22.8426 9.4585V4.0985C22.8426 3.67683 22.5059 3.3335 22.0884 3.3335H13.2727C9.15862 3.3335 5.83334 6.71016 5.83334 10.8485V28.8068C5.83334 33.1485 9.31705 36.6668 13.616 36.6668H26.7438C30.8431 36.6668 34.1667 33.3118 34.1667 29.1702V15.7852C34.1667 15.3618 33.8317 15.0202 33.4125 15.0218C32.7078 15.0268 31.8629 15.0352 31.348 15.0352Z" fill="#7850DC"/>
<path opacity="0.4" d="M26.8067 4.27895C26.3084 3.76062 25.4384 4.11728 25.4384 4.83562V9.23062C25.4384 11.0739 26.9567 12.5906 28.8 12.5906C29.9617 12.6039 31.575 12.6073 32.945 12.6039C33.6467 12.6023 34.0034 11.7639 33.5167 11.2573C31.7584 9.42895 28.61 6.15228 26.8067 4.27895Z" fill="#7850DC"/>
<path fill-rule="evenodd" clip-rule="evenodd" d="M14.9565 18.9797H20.5982C21.2832 18.9797 21.8399 18.4247 21.8399 17.7397C21.8399 17.0547 21.2832 16.498 20.5982 16.498H14.9565C14.2715 16.498 13.7165 17.0547 13.7165 17.7397C13.7165 18.4247 14.2715 18.9797 14.9565 18.9797ZM14.9567 27.3034H24.03C24.715 27.3034 25.2717 26.7484 25.2717 26.0634C25.2717 25.3784 24.715 24.8217 24.03 24.8217H14.9567C14.2717 24.8217 13.7167 25.3784 13.7167 26.0634C13.7167 26.7484 14.2717 27.3034 14.9567 27.3034Z" fill="#7850DC"/>
</svg>
