<svg width="40" height="40" viewBox="0 0 40 40" fill="none" xmlns="http://www.w3.org/2000/svg">
<path d="M19.7084 25.362H20.2913C23.4977 25.362 26.2182 23.3084 27.1756 20.4608C27.3145 20.0462 26.9964 19.6189 26.5556 19.6189H24.7603C24.1887 19.6189 23.727 19.1629 23.727 18.6001C23.727 18.0357 24.1887 17.5781 24.7603 17.5781H26.5007C27.0771 17.5781 27.5437 17.1173 27.5437 16.5481C27.5437 15.9789 27.0771 15.5181 26.5007 15.5181H24.7603C24.1887 15.5181 23.727 15.0605 23.727 14.4976C23.727 13.9332 24.1887 13.4756 24.7603 13.4756H26.5007C27.0771 13.4756 27.5437 13.0148 27.5437 12.4456C27.5437 11.8764 27.0771 11.4156 26.5007 11.4156H24.7603C24.1887 11.4156 23.727 10.958 23.727 10.3936C23.727 9.83077 24.1887 9.37317 24.7603 9.37317H26.6477C27.0803 9.37317 27.3903 8.965 27.2741 8.55204C26.4168 5.54018 23.6156 3.3335 20.2913 3.3335H19.7084C15.7028 3.3335 12.456 6.53829 12.456 10.4956V18.1999C12.456 22.1557 15.7028 25.362 19.7084 25.362Z" fill="#FFC83C"/>
<path opacity="0.4" d="M32.5522 16.376C31.6609 16.376 30.9376 17.0887 30.9376 17.9704C30.9376 23.9256 26.0311 28.771 20.0008 28.771C13.9689 28.771 9.0624 23.9256 9.0624 17.9704C9.0624 17.0887 8.33909 16.376 7.44787 16.376C6.55665 16.376 5.83334 17.0887 5.83334 17.9704C5.83334 25.1453 11.3324 31.0686 18.3863 31.8642V35.0722C18.3863 35.9523 19.108 36.6666 20.0008 36.6666C20.892 36.6666 21.6153 35.9523 21.6153 35.0722V31.8642C28.6676 31.0686 34.1667 25.1453 34.1667 17.9704C34.1667 17.0887 33.4434 16.376 32.5522 16.376Z" fill="#FFC83C"/>
</svg>
