<svg width="41" height="40" viewBox="0 0 41 40" fill="none" xmlns="http://www.w3.org/2000/svg">
<path opacity="0.4" fill-rule="evenodd" clip-rule="evenodd" d="M26.9972 3.64925C27.5131 4.1079 27.5596 4.89799 27.101 5.41396L20.4343 12.914C19.986 13.4183 19.2182 13.4758 18.6998 13.0438L13.6998 8.87712C13.1695 8.43516 13.0978 7.64696 13.5398 7.11661C13.9817 6.58627 14.7699 6.51461 15.3003 6.95657L19.3701 10.3481L25.2324 3.75305C25.6911 3.23708 26.4812 3.1906 26.9972 3.64925Z" fill="#FF5A5A"/>
<path fill-rule="evenodd" clip-rule="evenodd" d="M14.5 15C9.89765 15 6.16669 18.731 6.16669 23.3333V28.3333C6.16669 32.9357 9.89765 36.6667 14.5 36.6667H26.1667C30.7691 36.6667 34.5 32.9357 34.5 28.3333V23.3333C34.5 18.731 30.7691 15 26.1667 15H14.5ZM32 22.9167C32 23.607 31.4404 24.1667 30.75 24.1667C30.0597 24.1667 29.5 23.607 29.5 22.9167C29.5 22.2263 30.0597 21.6667 30.75 21.6667C31.4404 21.6667 32 22.2263 32 22.9167ZM32 27.9167C32 28.607 31.4404 29.1667 30.75 29.1667C30.0597 29.1667 29.5 28.607 29.5 27.9167C29.5 27.2263 30.0597 26.6667 30.75 26.6667C31.4404 26.6667 32 27.2263 32 27.9167Z" fill="#FF5A5A"/>
</svg>
