<svg width="41" height="40" viewBox="0 0 41 40" fill="none" xmlns="http://www.w3.org/2000/svg">
<path opacity="0.4" d="M36.2183 12.4043C35.52 11.9643 34.6616 11.9254 33.93 12.2977L31.4599 13.5447C30.5466 14.0049 29.9799 14.9356 29.9799 15.9711V25.6936C29.9799 26.7291 30.5466 27.6581 31.4599 28.1217L33.9283 29.367C34.2633 29.5396 34.6216 29.6225 34.98 29.6225C35.41 29.6225 35.8366 29.5007 36.2183 29.2621C36.9167 28.8239 37.3333 28.0642 37.3333 27.2317V14.4364C37.3333 13.6039 36.9167 12.8442 36.2183 12.4043Z" fill="#0064FF"/>
<path fill-rule="evenodd" clip-rule="evenodd" d="M10.8551 33.3335H20.5085C24.5452 33.3335 27.3636 30.5501 27.3636 26.5653V15.1017C27.3636 11.1152 24.5452 8.3335 20.5085 8.3335H10.8551C6.81836 8.3335 4 11.1152 4 15.1017V26.5653C4 30.5501 6.81836 33.3335 10.8551 33.3335ZM16.9326 22.0141H21.2174C21.861 21.948 22.35 21.4104 22.35 20.769C22.35 20.1277 21.861 19.5901 21.2174 19.524H16.9326V15.2896C16.8659 14.6516 16.3236 14.1668 15.6766 14.1668C15.0297 14.1668 14.4874 14.6516 14.4207 15.2896V19.524H10.1493C9.50572 19.5901 9.01668 20.1277 9.01668 20.769C9.01668 21.4104 9.50572 21.948 10.1493 22.0141H14.4341V26.2618C14.4341 26.9457 14.9934 27.5002 15.6833 27.5002C16.3733 27.5002 16.9326 26.9457 16.9326 26.2618V22.0141Z" fill="#0064FF"/>
</svg>
