<svg width="24" height="24" viewBox="0 0 24 24" fill="none" xmlns="http://www.w3.org/2000/svg">
<path d="M9.40625 10.125C9.40625 10.2795 9.36043 10.4306 9.27458 10.559C9.18874 10.6875 9.06672 10.7877 8.92397 10.8468C8.78121 10.9059 8.62413 10.9214 8.47258 10.8912C8.32103 10.8611 8.18183 10.7867 8.07257 10.6774C7.96331 10.5682 7.8889 10.429 7.85876 10.2774C7.82862 10.1259 7.84409 9.96877 7.90323 9.82602C7.96236 9.68326 8.0625 9.56125 8.19098 9.47541C8.31945 9.38956 8.4705 9.34375 8.62502 9.34375C8.72761 9.34375 8.8292 9.36396 8.92399 9.40322C9.01877 9.44248 9.10489 9.50003 9.17744 9.57257C9.24998 9.64512 9.30753 9.73124 9.34679 9.82603C9.38605 9.92081 9.40625 10.0224 9.40625 10.125Z" fill="white" stroke="white" stroke-width="0.125"/>
<path d="M16.1563 10.125C16.1563 10.2795 16.1104 10.4306 16.0246 10.559C15.9387 10.6875 15.8167 10.7877 15.674 10.8468C15.5312 10.9059 15.3741 10.9214 15.2226 10.8912C15.071 10.8611 14.9318 10.7867 14.8226 10.6774C14.7133 10.5682 14.6389 10.429 14.6088 10.2774C14.5786 10.1259 14.5941 9.96877 14.6532 9.82601C14.7124 9.68326 14.8125 9.56125 14.941 9.4754C15.0695 9.38956 15.2205 9.34375 15.375 9.34375C15.4776 9.34375 15.5792 9.36396 15.674 9.40322C15.7688 9.44248 15.8549 9.50003 15.9274 9.57257C16 9.64512 16.0575 9.73124 16.0968 9.82603C16.136 9.92081 16.1563 10.0224 16.1563 10.125Z" fill="white" stroke="white" stroke-width="0.125"/>
<path d="M12 21C16.9706 21 21 16.9706 21 12C21 7.02944 16.9706 3 12 3C7.02944 3 3 7.02944 3 12C3 16.9706 7.02944 21 12 21Z" stroke="white" stroke-width="1.5" stroke-linecap="round" stroke-linejoin="round"/>
<path d="M15.8979 14.2495C15.5026 14.9333 14.9343 15.5011 14.2501 15.8959C13.5659 16.2906 12.7899 16.4984 12 16.4984C11.2101 16.4984 10.4341 16.2906 9.74993 15.8959C9.06574 15.5012 8.49742 14.9334 8.10205 14.2496" stroke="white" stroke-width="1.5" stroke-linecap="round" stroke-linejoin="round"/>
</svg>
