<svg width="24" height="24" viewBox="0 0 24 24" fill="none" xmlns="http://www.w3.org/2000/svg">
<path d="M9.46875 10.125C9.46875 10.2919 9.41926 10.455 9.32655 10.5938C9.23384 10.7325 9.10206 10.8407 8.94788 10.9045C8.79371 10.9684 8.62406 10.9851 8.46039 10.9525C8.29671 10.92 8.14637 10.8396 8.02837 10.7216C7.91037 10.6036 7.83001 10.4533 7.79746 10.2896C7.76491 10.1259 7.78162 9.95627 7.84548 9.8021C7.90935 9.64792 8.0175 9.51615 8.15625 9.42344C8.29501 9.33073 8.45814 9.28125 8.62502 9.28125C8.73582 9.28125 8.84554 9.30307 8.94791 9.34548C9.05027 9.38788 9.14329 9.45003 9.22163 9.52838C9.29998 9.60673 9.36213 9.69974 9.40453 9.80211C9.44693 9.90448 9.46875 10.0142 9.46875 10.125Z" fill="white"/>
<path d="M16.2188 10.125C16.2188 10.2919 16.1693 10.455 16.0766 10.5938C15.9838 10.7325 15.8521 10.8407 15.6979 10.9045C15.5437 10.9684 15.3741 10.9851 15.2104 10.9525C15.0467 10.92 14.8964 10.8396 14.7784 10.7216C14.6604 10.6036 14.58 10.4533 14.5475 10.2896C14.5149 10.1259 14.5316 9.95627 14.5955 9.8021C14.6593 9.64792 14.7675 9.51615 14.9063 9.42344C15.045 9.33073 15.2081 9.28125 15.375 9.28125C15.4858 9.28125 15.5955 9.30307 15.6979 9.34548C15.8003 9.38788 15.8933 9.45003 15.9716 9.52838C16.05 9.60673 16.1121 9.69974 16.1545 9.80211C16.1969 9.90448 16.2188 10.0142 16.2188 10.125Z" fill="white"/>
<path d="M12 21C16.9706 21 21 16.9706 21 12C21 7.02944 16.9706 3 12 3C7.02944 3 3 7.02944 3 12C3 16.9706 7.02944 21 12 21Z" stroke="white" stroke-width="1.5" stroke-linecap="round" stroke-linejoin="round"/>
<path d="M15.8979 14.25C15.5026 14.9338 14.9343 15.5016 14.2501 15.8964C13.5659 16.2911 12.7899 16.4989 12 16.4989C11.2101 16.4989 10.4341 16.2911 9.74993 15.8964C9.06574 15.5017 8.49742 14.9339 8.10205 14.2501" stroke="white" stroke-width="1.5" stroke-linecap="round" stroke-linejoin="round"/>
</svg>
