<svg width="48" height="48" viewBox="0 0 48 48" fill="none" xmlns="http://www.w3.org/2000/svg">
<g filter="url(#filter0_d_7119_25306)">
<path opacity="0.4" d="M32.1406 8.52539H27.2354C26.0135 8.53347 24.8533 7.9899 24.079 7.04649L22.4637 4.81336C21.7023 3.86167 20.5422 3.31556 19.322 3.33446H15.8544C9.63032 3.33446 7.33336 6.98734 7.33336 13.1987V19.9129C7.32562 20.6513 40.6594 20.6504 40.6616 19.9129V17.9608C40.6912 11.7494 38.4535 8.52539 32.1406 8.52539Z" fill="#0064FF"/>
<path fill-rule="evenodd" clip-rule="evenodd" d="M38.7203 10.9069C39.2535 11.5304 39.6656 12.2476 39.9354 13.0218C40.4664 14.6129 40.7122 16.285 40.6616 17.9613V26.7164C40.6594 27.4538 40.605 28.1902 40.4986 28.9199C40.2959 30.2078 39.8428 31.4437 39.1648 32.558C38.8532 33.0963 38.4748 33.5932 38.0386 34.0369C36.0639 35.8493 33.4416 36.7926 30.7624 36.6546H17.2177C14.5342 36.7916 11.9077 35.8487 9.92672 34.0369C9.49571 33.5923 9.12232 33.0954 8.81529 32.558C8.14129 31.4445 7.69786 30.2074 7.51121 28.9199C7.39252 28.1914 7.33305 27.4545 7.33338 26.7164V17.9613C7.33309 17.2301 7.37266 16.4994 7.45193 15.7725C7.4686 15.645 7.4936 15.5195 7.51834 15.3954C7.55959 15.1884 7.60012 14.985 7.60012 14.7817C7.75055 13.9045 8.02497 13.053 8.41517 12.2527C9.57106 9.78299 11.9421 8.52592 15.8247 8.52592H32.1258C34.3004 8.35774 36.4589 9.0124 38.172 10.3598C38.3693 10.5271 38.5526 10.7101 38.7203 10.9069ZM15.6173 25.903H32.3925H32.4221C32.7902 25.919 33.1494 25.7872 33.4195 25.5371C33.6896 25.2871 33.8481 24.9395 33.8596 24.572C33.8804 24.249 33.7741 23.9306 33.5632 23.6846C33.3207 23.3541 32.9364 23.1569 32.5259 23.1522H15.6173C14.8561 23.1522 14.2391 23.768 14.2391 24.5276C14.2391 25.2872 14.8561 25.903 15.6173 25.903Z" fill="#0064FF"/>
</g>
<defs>
<filter id="filter0_d_7119_25306" x="0" y="0" width="48" height="48" filterUnits="userSpaceOnUse" color-interpolation-filters="sRGB">
<feFlood flood-opacity="0" result="BackgroundImageFix"/>
<feColorMatrix in="SourceAlpha" type="matrix" values="0 0 0 0 0 0 0 0 0 0 0 0 0 0 0 0 0 0 127 0" result="hardAlpha"/>
<feOffset dy="4"/>
<feGaussianBlur stdDeviation="2"/>
<feComposite in2="hardAlpha" operator="out"/>
<feColorMatrix type="matrix" values="0 0 0 0 0 0 0 0 0 0 0 0 0 0 0 0 0 0 0.25 0"/>
<feBlend mode="normal" in2="BackgroundImageFix" result="effect1_dropShadow_7119_25306"/>
<feBlend mode="normal" in="SourceGraphic" in2="effect1_dropShadow_7119_25306" result="shape"/>
</filter>
</defs>
</svg>
