<svg width="40" height="40" viewBox="0 0 40 40" fill="none" xmlns="http://www.w3.org/2000/svg">
<rect width="40" height="40" rx="20" fill="#FF5A5A" fill-opacity="0.1"/>
<path d="M28.25 14.7494H24.9718C25.4599 14.1538 25.7004 13.3934 25.6434 12.6255C25.5864 11.8576 25.2363 11.1411 24.6656 10.6242C24.0949 10.1072 23.3472 9.82955 22.5775 9.84858C21.8077 9.86761 21.0747 10.1819 20.5303 10.7264C20.3131 10.9527 20.134 11.2127 20 11.4962C19.8659 11.2127 19.6868 10.9527 19.4696 10.7263C18.9252 10.1819 18.1922 9.86759 17.4224 9.84857C16.6527 9.82955 15.9051 10.1072 15.3344 10.6242C14.7637 11.1411 14.4136 11.8577 14.3566 12.6256C14.2996 13.3934 14.5401 14.1538 15.0282 14.7494H11.75C11.3523 14.7498 10.971 14.908 10.6898 15.1892C10.4086 15.4704 10.2505 15.8517 10.25 16.2494V19.2494C10.2505 19.647 10.4086 20.0283 10.6898 20.3095C10.971 20.5907 11.3523 20.7489 11.75 20.7494V26.7494C11.7505 27.147 11.9086 27.5283 12.1898 27.8095C12.471 28.0907 12.8523 28.2489 13.25 28.2494H26.75C27.1477 28.2489 27.529 28.0907 27.8102 27.8095C28.0914 27.5283 28.2495 27.147 28.25 26.7494V20.7494C28.6477 20.7489 29.029 20.5907 29.3102 20.3095C29.5914 20.0283 29.7495 19.647 29.75 19.2494V16.2494C29.7495 15.8517 29.5914 15.4704 29.3102 15.1892C29.029 14.908 28.6477 14.7498 28.25 14.7494ZM21.5909 11.787C21.7302 11.6477 21.8955 11.5372 22.0776 11.4617C22.2596 11.3863 22.4546 11.3475 22.6517 11.3474C22.8487 11.3474 23.0438 11.3862 23.2258 11.4616C23.4078 11.537 23.5732 11.6475 23.7125 11.7868C23.8518 11.9261 23.9623 12.0915 24.0377 12.2735C24.1131 12.4555 24.1519 12.6506 24.1519 12.8476C24.1519 13.0446 24.113 13.2397 24.0376 13.4217C23.9622 13.6037 23.8516 13.7691 23.7123 13.9084C23.2491 14.3716 21.9099 14.6317 20.782 14.7174C20.8676 13.5894 21.1277 12.2502 21.5909 11.787ZM16.2876 11.787C16.5692 11.5062 16.9506 11.3484 17.3483 11.3484C17.746 11.3484 18.1275 11.5062 18.409 11.787C18.8723 12.2503 19.1324 13.5895 19.218 14.7174C18.09 14.6317 16.7509 14.3716 16.2877 13.9084C16.0068 13.6268 15.8491 13.2454 15.8491 12.8477C15.8491 12.45 16.0068 12.0686 16.2876 11.787ZM28.25 19.2494H20.75V25.9994C20.75 26.1983 20.671 26.389 20.5303 26.5297C20.3897 26.6703 20.1989 26.7494 20 26.7494C19.8011 26.7494 19.6103 26.6703 19.4697 26.5297C19.329 26.389 19.25 26.1983 19.25 25.9994V19.2494H11.75V16.2494H19.25V19.2494H20.75V16.2494H28.25L28.2509 19.2493L28.25 19.2494Z" fill="#FF5A5A"/>
</svg>
