<svg width="24" height="24" viewBox="0 0 24 24" fill="none" xmlns="http://www.w3.org/2000/svg">
<path d="M16.9091 3C16.407 3 16 3.40701 16 3.90909V7.09091C16 7.59299 16.407 8 16.9091 8H20.0909C20.593 8 21 7.59299 21 7.09091V3.90909C21 3.40701 20.593 3 20.0909 3H16.9091Z" fill="#808080"/>
<path d="M3.90909 3C3.40701 3 3 3.40701 3 3.90909V7.09091C3 7.59299 3.40701 8 3.90909 8H7.09091C7.59299 8 8 7.59299 8 7.09091V3.90909C8 3.40701 7.59299 3 7.09091 3H3.90909Z" fill="#808080"/>
<path d="M10.4091 3C9.90701 3 9.5 3.40701 9.5 3.90909V7.09091C9.5 7.59299 9.90701 8 10.4091 8H13.5909C14.093 8 14.5 7.59299 14.5 7.09091V3.90909C14.5 3.40701 14.093 3 13.5909 3H10.4091Z" fill="#808080"/>
<path d="M16.9091 16C16.407 16 16 16.407 16 16.9091V20.0909C16 20.593 16.407 21 16.9091 21H20.0909C20.593 21 21 20.593 21 20.0909V16.9091C21 16.407 20.593 16 20.0909 16H16.9091Z" fill="#808080"/>
<path d="M3.90909 16C3.40701 16 3 16.407 3 16.9091V20.0909C3 20.593 3.40701 21 3.90909 21H7.09091C7.59299 21 8 20.593 8 20.0909V16.9091C8 16.407 7.59299 16 7.09091 16H3.90909Z" fill="#808080"/>
<path d="M10.4091 16C9.90701 16 9.5 16.407 9.5 16.9091V20.0909C9.5 20.593 9.90701 21 10.4091 21H13.5909C14.093 21 14.5 20.593 14.5 20.0909V16.9091C14.5 16.407 14.093 16 13.5909 16H10.4091Z" fill="#808080"/>
<path d="M16.9091 9.5C16.407 9.5 16 9.90701 16 10.4091V13.5909C16 14.093 16.407 14.5 16.9091 14.5H20.0909C20.593 14.5 21 14.093 21 13.5909V10.4091C21 9.90701 20.593 9.5 20.0909 9.5H16.9091Z" fill="#808080"/>
<path d="M3.90909 9.5C3.40701 9.5 3 9.90701 3 10.4091V13.5909C3 14.093 3.40701 14.5 3.90909 14.5H7.09091C7.59299 14.5 8 14.093 8 13.5909V10.4091C8 9.90701 7.59299 9.5 7.09091 9.5H3.90909Z" fill="#808080"/>
<path d="M10.4091 9.5C9.90701 9.5 9.5 9.90701 9.5 10.4091V13.5909C9.5 14.093 9.90701 14.5 10.4091 14.5H13.5909C14.093 14.5 14.5 14.093 14.5 13.5909V10.4091C14.5 9.90701 14.093 9.5 13.5909 9.5H10.4091Z" fill="#808080"/>
</svg>
