<svg width="24" height="24" viewBox="0 0 25 24" fill="none" xmlns="http://www.w3.org/2000/svg">
<path d="M22.4131 17.7906C22.9885 16.7149 23.2929 15.5151 23.2999 14.2952C23.3068 13.0753 23.0161 11.872 22.453 10.7898C21.8899 9.70764 21.0713 8.77911 20.0683 8.08474C19.0652 7.39037 17.908 6.95111 16.6968 6.80504C16.2989 5.874 15.7166 5.03317 14.985 4.33322C14.2534 3.63328 13.3876 3.08871 12.4399 2.73235C11.4922 2.37598 10.4821 2.2152 9.47058 2.25969C8.45905 2.30417 7.467 2.55301 6.55423 2.9912C5.64145 3.42939 4.82685 4.04786 4.15952 4.80933C3.49219 5.57081 2.98595 6.45951 2.67131 7.42189C2.35667 8.38427 2.24015 9.40039 2.32877 10.409C2.41739 11.4176 2.70931 12.3979 3.18695 13.2906L2.60714 15.3203C2.5428 15.5454 2.53982 15.7835 2.59851 16.0101C2.6572 16.2367 2.77541 16.4435 2.94091 16.609C3.1064 16.7746 3.31315 16.8928 3.53974 16.9515C3.76632 17.0103 4.00448 17.0073 4.22955 16.943L6.25946 16.3631C7.08088 16.8028 7.97717 17.0852 8.90226 17.1959C9.31123 18.1526 9.91469 19.0138 10.6743 19.7248C11.4339 20.4358 12.3331 20.981 13.3147 21.3259C14.2964 21.6707 15.339 21.8077 16.3764 21.728C17.4138 21.6483 18.4232 21.3538 19.3407 20.8631L21.3705 21.443C21.5956 21.5073 21.8337 21.5103 22.0603 21.4515C22.2869 21.3928 22.4936 21.2746 22.6591 21.1091C22.8246 20.9436 22.9428 20.7368 23.0015 20.5102C23.0603 20.2837 23.0573 20.0455 22.993 19.8205L22.4131 17.7906ZM20.9612 17.3118C20.9089 17.3996 20.8752 17.4972 20.862 17.5986C20.8489 17.6999 20.8566 17.8029 20.8846 17.9012L21.458 19.908L19.4512 19.3347C19.3529 19.3066 19.25 19.2989 19.1486 19.3121C19.0473 19.3253 18.9497 19.359 18.8619 19.4112C18.1755 19.818 17.4149 20.0839 16.6245 20.1933C15.8342 20.3027 15.0299 20.2535 14.2588 20.0485C13.4877 19.8435 12.7652 19.4868 12.1336 18.9993C11.5019 18.5119 10.9738 17.9034 10.58 17.2094C11.6073 17.1031 12.6016 16.7855 13.5003 16.2765C14.399 15.7676 15.1828 15.0783 15.8023 14.252C16.4219 13.4257 16.8639 12.4801 17.1006 11.4748C17.3373 10.4695 17.3636 9.42607 17.1777 8.41012C18.0941 8.62658 18.9466 9.05559 19.6665 9.66248C20.3864 10.2694 20.9534 11.0371 21.3217 11.9037C21.6901 12.7702 21.8493 13.7112 21.7867 14.6507C21.7241 15.5902 21.4413 16.5018 20.9612 17.3118Z" fill="white"/>
</svg>
