<svg width="24" height="24" viewBox="0 0 25 24" fill="none" xmlns="http://www.w3.org/2000/svg">
<path d="M23.0765 6.85135C22.9629 6.78541 22.8339 6.75047 22.7026 6.75002C22.5712 6.74957 22.442 6.78363 22.3279 6.84879L18.2 9.2076V8.625C18.1989 7.63079 17.8034 6.67762 17.1004 5.97461C16.3974 5.27159 15.4442 4.87614 14.45 4.875H2.45001C2.05233 4.87545 1.67106 5.03364 1.38985 5.31484C1.10865 5.59605 0.950467 5.97731 0.950012 6.375V15.375C0.95115 16.3692 1.3466 17.3224 2.04962 18.0254C2.75263 18.7284 3.7058 19.1239 4.70001 19.125H16.7C17.0977 19.1245 17.479 18.9664 17.7602 18.6852C18.0414 18.404 18.1996 18.0227 18.2 17.625V14.7924L22.3279 17.1512C22.442 17.2164 22.5712 17.2504 22.7025 17.25C22.8339 17.2495 22.9629 17.2146 23.0765 17.1487C23.1901 17.0827 23.2844 16.9881 23.3499 16.8743C23.4155 16.7604 23.45 16.6314 23.45 16.5V7.5C23.45 7.36863 23.4155 7.23957 23.35 7.12573C23.2844 7.01189 23.1901 6.91727 23.0765 6.85135ZM21.95 15.2076L18.2 13.0647V10.9353L21.95 8.79236V15.2076Z" fill="white"/>
</svg>
