<svg width="24" height="24" viewBox="0 0 25 24" fill="none" xmlns="http://www.w3.org/2000/svg">
<path d="M20.4045 10.2767L12.904 3.45775C12.766 3.33223 12.5861 3.26269 12.3995 3.2627C12.2129 3.2627 12.033 3.33226 11.895 3.45778L4.39547 10.2767C4.31816 10.347 4.25639 10.4326 4.21413 10.5282C4.17186 10.6238 4.15002 10.7271 4.15002 10.8316V19.4998C4.15002 19.6988 4.22904 19.8895 4.36969 20.0302C4.51035 20.1708 4.70111 20.2498 4.90002 20.2498H19.9C20.0989 20.2498 20.2897 20.1708 20.4304 20.0302C20.571 19.8895 20.65 19.6988 20.65 19.4998V10.8316C20.65 10.7271 20.6282 10.6238 20.5859 10.5282C20.5436 10.4326 20.4819 10.347 20.4045 10.2767Z" stroke="#808080" stroke-width="1.5" stroke-linecap="round" stroke-linejoin="round"/>
</svg>
