<svg width="24" height="24" viewBox="0 0 25 24" fill="none" xmlns="http://www.w3.org/2000/svg">
<path d="M20.8499 11.25H4.34991C4.151 11.25 3.96024 11.329 3.81958 11.4697C3.67893 11.6103 3.59991 11.8011 3.59991 12C3.59991 12.1989 3.67893 12.3897 3.81958 12.5303C3.96024 12.671 4.151 12.75 4.34991 12.75H20.8499C21.0488 12.75 21.2396 12.671 21.3802 12.5303C21.5209 12.3897 21.5999 12.1989 21.5999 12C21.5999 11.8011 21.5209 11.6103 21.3802 11.4697C21.2396 11.329 21.0488 11.25 20.8499 11.25Z" fill="#FF3C3C"/>
<path d="M4.34991 6.75H20.8499C21.0488 6.75 21.2396 6.67098 21.3802 6.53033C21.5209 6.38968 21.5999 6.19891 21.5999 6C21.5999 5.80109 21.5209 5.61032 21.3802 5.46967C21.2396 5.32902 21.0488 5.25 20.8499 5.25H4.34991C4.151 5.25 3.96024 5.32902 3.81958 5.46967C3.67893 5.61032 3.59991 5.80109 3.59991 6C3.59991 6.19891 3.67893 6.38968 3.81958 6.53033C3.96024 6.67098 4.151 6.75 4.34991 6.75Z" fill="#FF3C3C"/>
<path d="M20.8499 17.25H4.34991C4.151 17.25 3.96024 17.329 3.81958 17.4697C3.67893 17.6103 3.59991 17.8011 3.59991 18C3.59991 18.1989 3.67893 18.3897 3.81958 18.5303C3.96024 18.671 4.151 18.75 4.34991 18.75H20.8499C21.0488 18.75 21.2396 18.671 21.3802 18.5303C21.5209 18.3897 21.5999 18.1989 21.5999 18C21.5999 17.8011 21.5209 17.6103 21.3802 17.4697C21.2396 17.329 21.0488 17.25 20.8499 17.25Z" fill="#FF3C3C"/>
</svg>
