<svg width="24" height="24" viewBox="0 0 24 24" fill="none" xmlns="http://www.w3.org/2000/svg">
<path d="M19.499 2.25H6.74902C5.95365 2.25091 5.19112 2.56727 4.62871 3.12968C4.0663 3.6921 3.74993 4.45463 3.74902 5.25V21.75C3.74897 21.8485 3.76833 21.9461 3.806 22.0371C3.84367 22.1281 3.89891 22.2108 3.96857 22.2805C4.03822 22.3501 4.12092 22.4054 4.21194 22.443C4.30296 22.4807 4.40052 22.5001 4.49902 22.5H17.999C18.1979 22.5 18.3887 22.421 18.5294 22.2803C18.67 22.1397 18.749 21.9489 18.749 21.75C18.749 21.5511 18.67 21.3603 18.5294 21.2197C18.3887 21.079 18.1979 21 17.999 21H5.24902C5.24942 20.6023 5.40758 20.221 5.6888 19.9398C5.97002 19.6586 6.35132 19.5004 6.74902 19.5H19.499C19.5975 19.5001 19.6951 19.4807 19.7861 19.443C19.8771 19.4054 19.9598 19.3501 20.0295 19.2805C20.0991 19.2108 20.1544 19.1281 20.192 19.0371C20.2297 18.9461 20.2491 18.8485 20.249 18.75V3C20.2491 2.90149 20.2297 2.80394 20.192 2.71292C20.1544 2.6219 20.0991 2.5392 20.0295 2.46954C19.9598 2.39989 19.8771 2.34465 19.7861 2.30697C19.6951 2.2693 19.5975 2.24994 19.499 2.25Z" fill="white"/>
</svg>
