<svg width="24" height="24" viewBox="0 0 25 24" fill="none" xmlns="http://www.w3.org/2000/svg">
<path d="M20.9092 9.72197L20.9091 9.72188L13.4084 2.90294C13.133 2.65065 12.7729 2.51072 12.3994 2.51074C12.0258 2.51076 11.6658 2.65072 11.3904 2.90303L3.8909 9.72188C3.73643 9.86259 3.61299 10.034 3.52846 10.2251C3.44394 10.4162 3.40018 10.6228 3.39999 10.8317V19.5C3.40045 19.8977 3.55863 20.2789 3.83984 20.5601C4.12104 20.8414 4.50231 20.9995 4.89999 21H19.9C20.2977 20.9995 20.6789 20.8414 20.9602 20.5601C21.2414 20.2789 21.3995 19.8977 21.4 19.5V10.8318C21.3998 10.6228 21.3561 10.4162 21.2715 10.2251C21.187 10.0341 21.0636 9.86269 20.9092 9.72197Z" fill="#ffffff"/>
</svg>
