<svg width="24" height="24" viewBox="0 0 25 24" fill="none" xmlns="http://www.w3.org/2000/svg">
<path d="M3.99426 13.1954C3.15562 11.7816 2.86192 10.1104 3.16831 8.49539C3.4747 6.88042 4.36011 5.43285 5.65828 4.4245C6.95644 3.41614 8.57806 2.91638 10.2186 3.01904C11.8592 3.1217 13.4059 3.81973 14.5682 4.98206C15.7305 6.14438 16.4286 7.69104 16.5312 9.33161C16.6339 10.9722 16.1341 12.5938 15.1258 13.892C14.1174 15.1901 12.6699 16.0756 11.0549 16.382C9.43994 16.6884 7.76866 16.3947 6.35491 15.556L6.35493 15.556L4.02361 16.2221C3.92715 16.2496 3.82508 16.2509 3.72798 16.2257C3.63087 16.2005 3.54226 16.1499 3.47133 16.0789C3.4004 16.008 3.34972 15.9194 3.32456 15.8223C3.2994 15.7252 3.30066 15.6231 3.32822 15.5267L3.99431 13.1953L3.99426 13.1954Z" stroke="#808080" stroke-width="1.5" stroke-linecap="round" stroke-linejoin="round"/>
<path d="M9.4306 16.4898C9.76243 17.4318 10.299 18.2885 11.0018 18.9981C11.7045 19.7078 12.5559 20.2528 13.4946 20.5938C14.4333 20.9349 15.4359 21.0635 16.4303 20.9705C17.4247 20.8774 18.3861 20.565 19.2452 20.0557L19.2452 20.0556L21.5765 20.7217C21.673 20.7492 21.775 20.7505 21.8722 20.7253C21.9693 20.7002 22.0579 20.6495 22.1288 20.5786C22.1997 20.5076 22.2504 20.419 22.2756 20.3219C22.3007 20.2248 22.2995 20.1228 22.2719 20.0263L21.6058 17.695L21.6059 17.695C22.1977 16.6969 22.5223 15.5631 22.5484 14.403C22.5744 13.2429 22.3011 12.0957 21.7546 11.072C21.2082 10.0483 20.4072 9.18275 19.4289 8.55879C18.4505 7.93482 17.3279 7.57353 16.1692 7.50977" stroke="#808080" stroke-width="1.5" stroke-linecap="round" stroke-linejoin="round"/>
</svg>
