<svg width="24" height="24" viewBox="0 0 24 24" fill="none" xmlns="http://www.w3.org/2000/svg">
<path fill-rule="evenodd" clip-rule="evenodd" d="M17.2495 3H19.4995C19.8972 3.00039 20.2785 3.15855 20.5597 3.43977C20.841 3.72099 20.9991 4.1023 20.9995 4.5V19.5C20.9991 19.8977 20.841 20.279 20.5597 20.5602C20.2785 20.8414 19.8972 20.9996 19.4995 21H4.49951C4.10181 20.9996 3.7205 20.8414 3.43929 20.5602C3.15807 20.279 2.9999 19.8977 2.99951 19.5V4.5C2.9999 4.1023 3.15807 3.72099 3.43929 3.43977C3.7205 3.15855 4.10181 3.00039 4.49951 3H6.74951V2.25C6.74951 2.05109 6.82853 1.86032 6.96918 1.71967C7.10983 1.57902 7.3006 1.5 7.49951 1.5C7.69842 1.5 7.88919 1.57902 8.02984 1.71967C8.17049 1.86032 8.24951 2.05109 8.24951 2.25V3H15.7495V2.25C15.7495 2.05109 15.8285 1.86032 15.9692 1.71967C16.1098 1.57902 16.3006 1.5 16.4995 1.5C16.6984 1.5 16.8892 1.57902 17.0298 1.71967C17.1705 1.86032 17.2495 2.05109 17.2495 2.25V3ZM4.49951 7.5H19.4995V4.5H17.2495V5.25C17.2495 5.44891 17.1705 5.63968 17.0298 5.78033C16.8892 5.92098 16.6984 6 16.4995 6C16.3006 6 16.1098 5.92098 15.9692 5.78033C15.8285 5.63968 15.7495 5.44891 15.7495 5.25V4.5H8.24951V5.25C8.24951 5.44891 8.17049 5.63968 8.02984 5.78033C7.88919 5.92098 7.69842 6 7.49951 6C7.3006 6 7.10983 5.92098 6.96918 5.78033C6.82853 5.63968 6.74951 5.44891 6.74951 5.25V4.5H4.49951V7.5ZM7.5 11.25C7.91421 11.25 8.25 11.5858 8.25 12V12.75C8.25 13.1642 7.91421 13.5 7.5 13.5C7.08579 13.5 6.75 13.1642 6.75 12.75V12C6.75 11.5858 7.08579 11.25 7.5 11.25ZM7.5 15C7.91421 15 8.25 15.3358 8.25 15.75V16.5C8.25 16.9142 7.91421 17.25 7.5 17.25C7.08579 17.25 6.75 16.9142 6.75 16.5V15.75C6.75 15.3358 7.08579 15 7.5 15ZM17.25 12C17.25 11.5858 16.9142 11.25 16.5 11.25C16.0858 11.25 15.75 11.5858 15.75 12V12.75C15.75 13.1642 16.0858 13.5 16.5 13.5C16.9142 13.5 17.25 13.1642 17.25 12.75V12ZM16.5 15C16.9142 15 17.25 15.3358 17.25 15.75V16.5C17.25 16.9142 16.9142 17.25 16.5 17.25C16.0858 17.25 15.75 16.9142 15.75 16.5V15.75C15.75 15.3358 16.0858 15 16.5 15ZM12.75 12C12.75 11.5858 12.4142 11.25 12 11.25C11.5858 11.25 11.25 11.5858 11.25 12V12.75C11.25 13.1642 11.5858 13.5 12 13.5C12.4142 13.5 12.75 13.1642 12.75 12.75V12ZM12 15C12.4142 15 12.75 15.3358 12.75 15.75V16.5C12.75 16.9142 12.4142 17.25 12 17.25C11.5858 17.25 11.25 16.9142 11.25 16.5V15.75C11.25 15.3358 11.5858 15 12 15Z" fill="#FF3C3C"/>
</svg>
