<svg width="16" height="16" viewBox="0 0 16 16" fill="none" xmlns="http://www.w3.org/2000/svg">
<path fill-rule="evenodd" clip-rule="evenodd" d="M1.08325 3C1.08325 2.58579 1.41904 2.25 1.83325 2.25L3.49992 2.25L5.16658 2.25C5.5808 2.25 5.91658 2.58579 5.91658 3C5.91658 3.41421 5.5808 3.75 5.16658 3.75H4.24992L4.24992 12.25H5.16658C5.5808 12.25 5.91658 12.5858 5.91658 13C5.91658 13.4142 5.5808 13.75 5.16658 13.75H3.49992H1.83325C1.41904 13.75 1.08325 13.4142 1.08325 13C1.08325 12.5858 1.41904 12.25 1.83325 12.25H2.74992L2.74992 3.75H1.83325C1.41904 3.75 1.08325 3.41421 1.08325 3Z" fill="#50C8FF"/>
<path d="M9.16675 13C11.9282 13 14.1667 10.7614 14.1667 8C14.1667 5.23858 11.9282 3 9.16675 3H7.16675V13H9.16675Z" stroke="#50C8FF" stroke-width="1.5" stroke-linecap="round" stroke-linejoin="round"/>
</svg>
