<svg width="47" height="16" viewBox="0 0 47 16" fill="none" xmlns="http://www.w3.org/2000/svg">
<rect width="47" height="16" rx="4" fill="#FF5A5A"/>
<path d="M12 10C10.8954 10 10 9.10457 10 8C10 6.89543 10.8954 6 12 6C13.1046 6 14 6.89543 14 8C14 8.53043 13.7893 9.03914 13.4142 9.41421C13.0391 9.78929 12.5304 10 12 10Z" fill="white"/>
<path d="M25.7539 10.8457H22.2266V4.00195H20.8965V12H25.7539V10.8457ZM28.1445 12V4.00195H26.8145V12H28.1445ZM31.8828 12H33.4004L36.1602 4.00195H34.6719L32.6914 10.4238H32.6445L30.6465 4.00195H29.1172L31.8828 12ZM42.248 10.8809H38.5801V8.47266H42.0371V7.40039H38.5801V5.12109H42.248V4.00195H37.2559V12H42.248V10.8809Z" fill="white"/>
</svg>
