<svg width="24" height="24" viewBox="0 0 24 24" fill="none" xmlns="http://www.w3.org/2000/svg">
<path d="M0 8C0 3.58172 3.58172 0 8 0H16C20.4183 0 24 3.58172 24 8V16C24 20.4183 20.4183 24 16 24H8C3.58172 24 0 20.4183 0 16V8Z" fill="#7850DC"/>
<path d="M18.5 12.0001C18.498 10.2772 17.813 8.62545 16.595 7.40696C15.377 6.18848 13.7255 5.50273 12.0026 5.50009L12 5.4978L11.9974 5.50009C10.2742 5.50115 8.62191 6.18643 7.4038 7.40529C6.18568 8.62415 5.50141 10.2768 5.5014 12C5.5014 13.7232 6.18565 15.3759 7.40375 16.5948C8.62186 17.8137 10.2741 18.499 11.9973 18.5L12 18.5024L12.0027 18.5C13.7255 18.4974 15.377 17.8116 16.595 16.5931C17.813 15.3747 18.498 13.7229 18.5 12.0001ZM17.477 11.5001H14.9862C14.8867 9.64775 14.2355 7.93646 13.1422 6.61966C14.2903 6.86538 15.33 7.47132 16.1097 8.34918C16.8895 9.22704 17.3685 10.3309 17.477 11.5001ZM10.0162 12.5001H13.9838C13.8707 14.2973 13.1529 15.9815 12 17.1526C10.8471 15.9815 10.1293 14.2973 10.0162 12.5001ZM10.0162 11.5001C10.1293 9.70276 10.8471 8.01858 12 6.84748C13.1529 8.01859 13.8707 9.70276 13.9838 11.5001L10.0162 11.5001ZM13.1421 17.3805C14.2355 16.0636 14.8867 14.3523 14.9862 12.5001H17.477C17.3685 13.6692 16.8894 14.7731 16.1097 15.651C15.33 16.5288 14.2903 17.1347 13.1421 17.3805Z" fill="white"/>
</svg>
