<svg width="40" height="40" viewBox="0 0 40 40" fill="none" xmlns="http://www.w3.org/2000/svg">
<path opacity="0.4" d="M28.1406 8.52466H23.2354C22.0135 8.53274 20.8533 7.98917 20.079 7.04576L18.4637 4.81263C17.7023 3.86094 16.5422 3.31483 15.322 3.33373H11.8544C5.63032 3.33373 3.33336 6.98661 3.33336 13.198V19.9122C3.32562 20.6506 36.6594 20.6496 36.6616 19.9122V17.96C36.6912 11.7487 34.4535 8.52466 28.1406 8.52466Z" fill="#0064FF"/>
<path fill-rule="evenodd" clip-rule="evenodd" d="M34.7203 10.9057C35.2535 11.5292 35.6656 12.2464 35.9354 13.0206C36.4664 14.6117 36.7122 16.2838 36.6616 17.9601V26.7152C36.6594 27.4526 36.605 28.189 36.4986 28.9187C36.2959 30.2066 35.8428 31.4425 35.1648 32.5568C34.8532 33.0951 34.4748 33.5919 34.0386 34.0357C32.0639 35.848 29.4416 36.7914 26.7624 36.6534H13.2177C10.5342 36.7904 7.90773 35.8474 5.92672 34.0357C5.49571 33.5911 5.12232 33.0942 4.81529 32.5568C4.14129 31.4433 3.69786 30.2062 3.51121 28.9187C3.39252 28.1902 3.33305 27.4533 3.33337 26.7152V17.9601C3.33309 17.2289 3.37266 16.4982 3.45193 15.7713C3.4686 15.6438 3.4936 15.5183 3.51834 15.3942C3.55959 15.1872 3.60012 14.9838 3.60012 14.7804C3.75055 13.9032 4.02497 13.0518 4.41517 12.2515C5.57106 9.78177 7.94212 8.5247 11.8247 8.5247H28.1258C30.3004 8.35652 32.4589 9.01118 34.172 10.3585C34.3693 10.5258 34.5526 10.7088 34.7203 10.9057ZM11.6173 25.9018H28.3925H28.4221C28.7902 25.9178 29.1494 25.786 29.4195 25.5359C29.6896 25.2858 29.8481 24.9382 29.8596 24.5707C29.8804 24.2477 29.7741 23.9294 29.5632 23.6834C29.3207 23.3529 28.9363 23.1556 28.5259 23.151H11.6173C10.8561 23.151 10.2391 23.7668 10.2391 24.5264C10.2391 25.286 10.8561 25.9018 11.6173 25.9018Z" fill="#0064FF"/>
</svg>
