<svg width="25" height="24" viewBox="0 0 25 24" fill="none" xmlns="http://www.w3.org/2000/svg">
<path d="M12.1999 2.25H12.2C13.1945 2.25 14.1483 2.64509 14.8516 3.34835C15.5549 4.05161 15.95 5.00544 15.95 6V12C15.95 12.9946 15.5549 13.9484 14.8516 14.6517C14.1483 15.3549 13.1945 15.75 12.2 15.75H12.1999C11.7075 15.75 11.2199 15.653 10.7649 15.4645C10.3099 15.2761 9.89652 14.9999 9.5483 14.6517C9.20008 14.3034 8.92386 13.89 8.7354 13.4351C8.54695 12.9801 8.44995 12.4925 8.44995 12V5.99999C8.44995 5.00543 8.84504 4.05161 9.5483 3.34835C10.2516 2.64509 11.2054 2.25 12.1999 2.25V2.25Z" stroke="white" stroke-width="1.5" stroke-linecap="round" stroke-linejoin="round"/>
<path d="M12.2 18.75V21.75" stroke="white" stroke-width="1.5" stroke-linecap="round" stroke-linejoin="round"/>
<path d="M18.9088 12.75C18.7242 14.4001 17.9379 15.9243 16.7002 17.0312C15.4626 18.1381 13.8604 18.75 12.2 18.75C10.5396 18.75 8.93743 18.1381 7.69979 17.0312C6.46215 15.9243 5.67585 14.4001 5.49121 12.75" stroke="white" stroke-width="1.5" stroke-linecap="round" stroke-linejoin="round"/>
</svg>
