<svg width="25" height="24" viewBox="0 0 25 24" fill="none" xmlns="http://www.w3.org/2000/svg">
<path d="M20.2548 19.7455L5.25476 3.24551C5.1885 3.17263 5.10853 3.11351 5.01943 3.07153C4.93032 3.02955 4.83382 3.00553 4.73543 3.00085C4.63705 2.99616 4.5387 3.0109 4.44601 3.04423C4.35332 3.07755 4.2681 3.12881 4.19522 3.19506C4.12233 3.26132 4.06321 3.34129 4.02124 3.43039C3.97926 3.5195 3.95524 3.616 3.95056 3.71439C3.94587 3.81277 3.96061 3.91112 3.99394 4.00381C4.02726 4.0965 4.07851 4.18172 4.14477 4.2546L7.69976 8.1651V12.0001C7.6996 12.8078 7.91691 13.6007 8.32888 14.2956C8.74086 14.9904 9.3323 15.5615 10.0411 15.9489C10.7499 16.3363 11.55 16.5257 12.3572 16.4973C13.1645 16.4688 13.9492 16.2236 14.629 15.7873L15.6486 16.9087C14.7963 17.5079 13.8027 17.8747 12.7656 17.9732C11.7285 18.0717 10.6837 17.8984 9.73387 17.4704C8.78408 17.0425 7.9621 16.3745 7.34884 15.5324C6.73558 14.6903 6.35218 13.703 6.23638 12.6677C6.21445 12.47 6.11493 12.2892 5.9597 12.1649C5.80447 12.0407 5.60624 11.9831 5.4086 12.005C5.21096 12.0268 5.03009 12.1263 4.90575 12.2814C4.78141 12.4366 4.72378 12.6348 4.74554 12.8325C4.9333 14.5388 5.70189 16.1287 6.92247 17.3357C8.14306 18.5428 9.74146 19.2936 11.4498 19.4623V21.7501C11.4498 21.949 11.5288 22.1397 11.6694 22.2804C11.8101 22.421 12.0009 22.5001 12.1998 22.5001C12.3987 22.5001 12.5894 22.421 12.7301 22.2804C12.8707 22.1397 12.9498 21.949 12.9498 21.7501V19.4617C14.295 19.3278 15.5787 18.8316 16.6642 18.0259L19.1448 20.7546C19.2786 20.9018 19.4654 20.9898 19.6641 20.9993C19.8628 21.0087 20.0571 20.9389 20.2043 20.805C20.3515 20.6712 20.4395 20.4844 20.449 20.2857C20.4584 20.087 20.3886 19.8927 20.2548 19.7455H20.2548Z" fill="#FF3C3C"/>
<path d="M15.3947 12.1697C15.4965 12.2817 15.6299 12.3603 15.7772 12.3951C15.9245 12.4299 16.0789 12.4193 16.2201 12.3648C16.3613 12.3102 16.4827 12.2141 16.5683 12.0893C16.6539 11.9644 16.6997 11.8166 16.6997 11.6652V6C16.6996 5.02081 16.3801 4.06836 15.7898 3.28714C15.1994 2.50592 14.3704 1.93855 13.4284 1.67111C12.4865 1.40367 11.483 1.45075 10.5702 1.8052C9.65739 2.15965 8.88511 2.80214 8.37048 3.63519C8.28479 3.77374 8.24652 3.93641 8.26147 4.09863C8.27641 4.26084 8.34377 4.41379 8.45334 4.53433L15.3947 12.1697Z" fill="#FF3C3C"/>
<path d="M18.2151 15.1561C18.3068 15.192 18.4047 15.2096 18.5032 15.2076C18.6017 15.2057 18.6988 15.1844 18.7891 15.1449C18.8793 15.1054 18.9609 15.0485 19.0291 14.9775C19.0974 14.9064 19.1509 14.8226 19.1867 14.7308C19.425 14.1212 19.582 13.4829 19.6538 12.8324C19.6757 12.6347 19.6181 12.4364 19.4938 12.2811C19.3694 12.1259 19.1885 12.0264 18.9908 12.0045C18.7931 11.9827 18.5948 12.0403 18.4396 12.1646C18.2843 12.2889 18.1848 12.4699 18.163 12.6676C18.1056 13.1873 17.9801 13.6973 17.7898 14.1844C17.7174 14.3697 17.7215 14.5761 17.8012 14.7583C17.881 14.9405 18.0298 15.0836 18.2151 15.1561V15.1561Z" fill="#FF3C3C"/>
</svg>
