<svg width="24" height="24" viewBox="0 0 24 24" fill="none" xmlns="http://www.w3.org/2000/svg">
<path d="M12 15C14.0711 15 15.75 13.3211 15.75 11.25C15.75 9.17893 14.0711 7.5 12 7.5C9.92893 7.5 8.25 9.17893 8.25 11.25C8.25 13.3211 9.92893 15 12 15Z" stroke="#808080" stroke-width="1.5" stroke-linecap="round" stroke-linejoin="round"/>
<path d="M5.98096 18.6913C6.5459 17.5806 7.40719 16.6478 8.46948 15.9963C9.53177 15.3448 10.7536 15 11.9998 15C13.2459 15 14.4678 15.3448 15.5301 15.9963C16.5924 16.6478 17.4537 17.5806 18.0186 18.6913" stroke="#808080" stroke-width="1.5" stroke-linecap="round" stroke-linejoin="round"/>
<path d="M20.8755 10.4999C21.1915 12.3795 20.9021 14.3108 20.0489 16.0152C19.1958 17.7195 17.8231 19.1086 16.129 19.982C14.4349 20.8553 12.5071 21.1677 10.6239 20.874C8.74073 20.5803 6.99959 19.6958 5.65188 18.3481C4.30417 17.0004 3.41962 15.2592 3.12594 13.3761C2.83226 11.4929 3.14464 9.56507 4.01798 7.87099C4.89133 6.1769 6.28045 4.80419 7.98479 3.95104C9.68913 3.09789 11.6205 2.80843 13.5001 3.12447" stroke="#808080" stroke-width="1.5" stroke-linecap="round" stroke-linejoin="round"/>
<path d="M18.75 6.75C19.5784 6.75 20.25 6.07843 20.25 5.25C20.25 4.42157 19.5784 3.75 18.75 3.75C17.9216 3.75 17.25 4.42157 17.25 5.25C17.25 6.07843 17.9216 6.75 18.75 6.75Z" stroke="#808080" stroke-width="1.5" stroke-linecap="round" stroke-linejoin="round"/>
<path d="M18.75 3.75V2.625" stroke="#808080" stroke-width="1.5" stroke-linecap="round" stroke-linejoin="round"/>
<path d="M17.4508 4.5L16.4766 3.9375" stroke="#808080" stroke-width="1.5" stroke-linecap="round" stroke-linejoin="round"/>
<path d="M17.4508 6L16.4766 6.5625" stroke="#808080" stroke-width="1.5" stroke-linecap="round" stroke-linejoin="round"/>
<path d="M18.75 6.75V7.875" stroke="#808080" stroke-width="1.5" stroke-linecap="round" stroke-linejoin="round"/>
<path d="M20.0488 6L21.0231 6.5625" stroke="#808080" stroke-width="1.5" stroke-linecap="round" stroke-linejoin="round"/>
<path d="M20.0488 4.5L21.0231 3.9375" stroke="#808080" stroke-width="1.5" stroke-linecap="round" stroke-linejoin="round"/>
</svg>
