<svg width="24" height="24" viewBox="0 0 24 24" fill="none" xmlns="http://www.w3.org/2000/svg">
<path d="M11.9995 16.5C13.1924 16.4987 14.3362 16.0243 15.1798 15.1808C16.0234 14.3374 16.498 13.1937 16.4995 12.0007V6C16.4995 4.80653 16.0253 3.66193 15.1814 2.81802C14.3375 1.97411 13.1929 1.5 11.9995 1.5C10.806 1.5 9.66138 1.97411 8.81747 2.81802C7.97356 3.66193 7.49945 4.80653 7.49945 6V12C7.50075 13.1931 7.97528 14.3369 8.81891 15.1805C9.66254 16.0242 10.8064 16.4987 11.9995 16.5Z" fill="#FF3C3C"/>
<path d="M18.7904 12.0048C18.5931 11.985 18.3958 12.0434 18.241 12.1674C18.0863 12.2915 17.9864 12.4714 17.9628 12.6683C17.7982 14.1348 17.099 15.4891 15.9988 16.4726C14.8987 17.4561 13.4747 17.9997 11.9991 17.9996C10.5234 17.9996 9.09957 17.4557 7.99955 16.4721C6.89953 15.4885 6.2005 14.1341 6.03605 12.6676C6.01184 12.471 5.91173 12.2916 5.75711 12.1678C5.60248 12.0439 5.40557 11.9854 5.20841 12.0048C5.01062 12.0267 4.82964 12.1263 4.70522 12.2816C4.5808 12.437 4.52311 12.6353 4.54483 12.8331C4.73575 14.5351 5.50625 16.1196 6.72704 17.3207C7.94783 18.5218 9.54461 19.2665 11.2494 19.4298V21.7496C11.2494 21.9486 11.3284 22.1393 11.4691 22.28C11.6097 22.4206 11.8005 22.4996 11.9994 22.4996C12.1983 22.4996 12.3891 22.4206 12.5298 22.28C12.6704 22.1393 12.7494 21.9486 12.7494 21.7496V19.4299C14.4545 19.267 16.0516 18.5223 17.2725 17.3209C18.4934 16.1196 19.2637 14.5347 19.454 12.8324C19.4757 12.6347 19.418 12.4364 19.2936 12.2812C19.1691 12.126 18.9882 12.0266 18.7904 12.0048Z" fill="#FF3C3C"/>
</svg>
