<svg width="24" height="24" viewBox="0 0 24 24" fill="none" xmlns="http://www.w3.org/2000/svg">
<path d="M5.24997 9.75196C5.24997 8.86123 5.42627 7.97931 5.7687 7.15703C6.11112 6.33475 6.61291 5.58837 7.24513 4.96093C7.87736 4.33348 8.62751 3.83736 9.45237 3.50118C10.2772 3.165 11.1605 2.99539 12.0512 3.00215C15.773 3.02974 18.75 6.11477 18.75 9.8367V11.252C18.75 14.6097 19.4544 16.5581 20.0749 17.623C20.1416 17.737 20.1771 17.8665 20.1777 17.9985C20.1783 18.1305 20.1441 18.2604 20.0784 18.3749C20.0128 18.4895 19.9181 18.5847 19.8038 18.6509C19.6896 18.7171 19.5599 18.7519 19.4279 18.752H4.57128C4.43924 18.7519 4.30955 18.7171 4.19531 18.6508C4.08108 18.5846 3.98636 18.4894 3.92072 18.3748C3.85508 18.2603 3.82086 18.1304 3.82151 17.9984C3.82216 17.8663 3.85767 17.7368 3.92443 17.6229C4.5452 16.5579 5.24997 14.6095 5.24997 11.252V9.75196Z" stroke="white" stroke-width="1.5" stroke-linecap="round" stroke-linejoin="round"/>
<path d="M8.99297 21.752H14.993" stroke="white" stroke-width="1.5" stroke-linecap="round" stroke-linejoin="round"/>
</svg>
