<svg width="40" height="40" viewBox="0 0 40 40" fill="none" xmlns="http://www.w3.org/2000/svg">
<path opacity="0.4" d="M26.985 3.33398H13.0167C7.95 3.33398 5 6.30065 5 11.384V28.6007C5 33.7673 7.95 36.6673 13.0167 36.6673H26.985C32.1333 36.6673 35 33.7673 35 28.6007V11.384C35 6.30065 32.1333 3.33398 26.985 3.33398" fill="#50C8FF"/>
<path fill-rule="evenodd" clip-rule="evenodd" d="M13.4667 11.084V11.1007C12.7483 11.1007 12.1667 11.684 12.1667 12.4007C12.1667 13.1173 12.7483 13.7007 13.4667 13.7007H18.4483C19.1667 13.7007 19.75 13.1173 19.75 12.3823C19.75 11.6673 19.1667 11.084 18.4483 11.084H13.4667ZM26.5333 21.234H13.4667C12.7483 21.234 12.1667 20.6507 12.1667 19.934C12.1667 19.2173 12.7483 18.6323 13.4667 18.6323H26.5333C27.25 18.6323 27.8333 19.2173 27.8333 19.934C27.8333 20.6507 27.25 21.234 26.5333 21.234ZM26.5333 28.8507H13.4667C12.9667 28.9173 12.4833 28.6673 12.2167 28.2507C11.95 27.8173 11.95 27.2673 12.2167 26.8507C12.4833 26.4173 12.9667 26.184 13.4667 26.234H26.5333C27.1983 26.3007 27.7 26.8673 27.7 27.5507C27.7 28.2157 27.1983 28.784 26.5333 28.8507Z" fill="#50C8FF"/>
</svg>
