<svg width="40" height="40" viewBox="0 0 40 40" fill="none" xmlns="http://www.w3.org/2000/svg">
<path opacity="0.4" d="M26.985 3.33325H13.0167C7.95 3.33325 5 6.29992 5 11.3833V28.5999C5 33.7666 7.95 36.6666 13.0167 36.6666H26.985C32.1333 36.6666 35 33.7666 35 28.5999V11.3833C35 6.29992 32.1333 3.33325 26.985 3.33325Z" fill="#50C8FF"/>
<path fill-rule="evenodd" clip-rule="evenodd" d="M13.4667 11.0833V11.0999C12.7483 11.0999 12.1667 11.6833 12.1667 12.3999C12.1667 13.1166 12.7483 13.6999 13.4667 13.6999H18.4483C19.1667 13.6999 19.75 13.1166 19.75 12.3816C19.75 11.6666 19.1667 11.0833 18.4483 11.0833H13.4667ZM26.5333 21.2332H13.4667C12.7483 21.2332 12.1667 20.6499 12.1667 19.9333C12.1667 19.2166 12.7483 18.6316 13.4667 18.6316H26.5333C27.25 18.6316 27.8333 19.2166 27.8333 19.9333C27.8333 20.6499 27.25 21.2332 26.5333 21.2332ZM26.5333 28.8499H13.4667C12.9667 28.9166 12.4833 28.6666 12.2167 28.2499C11.95 27.8166 11.95 27.2666 12.2167 26.8499C12.4833 26.4166 12.9667 26.1833 13.4667 26.2332H26.5333C27.1983 26.2999 27.7 26.8666 27.7 27.5499C27.7 28.2149 27.1983 28.7832 26.5333 28.8499Z" fill="#50C8FF"/>
</svg>
