<svg width="48" height="48" viewBox="0 0 48 48" fill="none" xmlns="http://www.w3.org/2000/svg">
    <path
        d="M36 43.9998H12C9.79086 43.9998 8 42.2089 8 39.9998V7.99979C8 5.79065 9.79086 3.99979 12 3.99979H26C26.0179 3.99747 26.0361 3.99747 26.054 3.99979H26.066C26.0849 4.00571 26.1043 4.00973 26.124 4.01179C26.3004 4.0231 26.4745 4.05739 26.642 4.11379H26.672H26.702H26.726C26.7629 4.13964 26.7977 4.1684 26.83 4.19979C27.0479 4.29664 27.2464 4.43216 27.416 4.59979L39.416 16.5998C39.5836 16.7694 39.7192 16.9679 39.816 17.1858C39.834 17.2298 39.848 17.2718 39.862 17.3178L39.882 17.3738C39.9378 17.5406 39.9708 17.7142 39.98 17.8898C39.9817 17.9097 39.9865 17.9293 39.994 17.9478V17.9598C39.9973 17.9729 39.9993 17.9863 40 17.9998V39.9998C40 41.0607 39.5786 42.0781 38.8284 42.8282C38.0783 43.5784 37.0609 43.9998 36 43.9998ZM28.848 27.9998V37.9998H30.728V33.9198H33.648V32.2438H30.728V29.6818H34V27.9998H28.848ZM21.448 27.9998V37.9998H23.86C24.8719 38.0495 25.8517 37.6376 26.524 36.8798C27.2138 35.9996 27.5593 34.8983 27.496 33.7818V32.1618C27.5423 31.0571 27.1871 29.9729 26.496 29.1098C25.8453 28.3691 24.8952 27.9613 23.91 27.9998H21.448ZM14 27.9998V37.9998H15.88V34.4818H17.132C17.968 34.5281 18.7846 34.2186 19.38 33.6298C19.9482 32.9946 20.2428 32.1609 20.2 31.3098C20.2371 30.4382 19.9427 29.585 19.376 28.9218C18.8154 28.3002 18.0062 27.9619 17.17 27.9998H14ZM26 7.99979V17.9998H36L26 7.99979ZM23.892 36.3238H23.328V29.6818H24.012C24.4977 29.6532 24.9647 29.8731 25.252 30.2658C25.5452 30.8724 25.6709 31.5463 25.616 32.2178V33.9558C25.6599 34.5953 25.5212 35.2341 25.216 35.7978C24.8882 36.1804 24.393 36.3772 23.892 36.3238ZM17.17 32.7998H15.878V29.6818H17.188C17.515 29.6853 17.8173 29.8568 17.988 30.1358C18.2044 30.4929 18.3089 30.9067 18.288 31.3238C18.3131 31.7128 18.2098 32.0992 17.994 32.4238C17.7951 32.6735 17.4889 32.8132 17.17 32.7998Z"
        fill="#FF5A5A" />
</svg>