<svg width="24" height="24" viewBox="0 0 24 24" fill="none" xmlns="http://www.w3.org/2000/svg">
    <path
        d="M5.08161 22.1222L5.08146 22.1222C4.86635 22.2435 4.6237 22.3074 4.37679 22.3079C4.14664 22.3068 3.9201 22.2507 3.71612 22.1441C3.5121 22.0375 3.33658 21.8836 3.20425 21.6952C3.07192 21.5069 2.98663 21.2896 2.95552 21.0615C2.92441 20.8334 2.94837 20.6012 3.02542 20.3843L5.72968 12.8124L12.7499 12.8124C12.9654 12.8124 13.1721 12.7268 13.3245 12.5744C13.4768 12.422 13.5624 12.2154 13.5624 11.9999C13.5624 11.7844 13.4768 11.5777 13.3245 11.4253C13.1721 11.273 12.9654 11.1874 12.7499 11.1874L5.72968 11.1874L3.02538 3.61533C3.02538 3.61533 3.02538 3.61533 3.02538 3.61533C2.92696 3.33972 2.915 3.04064 2.99111 2.75805C3.06721 2.47547 3.22775 2.22284 3.45127 2.03393C3.67479 1.84503 3.95064 1.72884 4.24196 1.7009C4.53327 1.67296 4.82618 1.7346 5.08152 1.87759C5.08153 1.87759 5.08153 1.87759 5.08153 1.87759L20.9173 10.7456C21.1402 10.8704 21.3259 11.0525 21.4551 11.273C21.5843 11.4934 21.6524 11.7444 21.6524 11.9999C21.6524 12.2554 21.5842 12.5064 21.455 12.7268C21.3258 12.9473 21.1402 13.1293 20.9172 13.2542L5.08161 22.1222Z"
        fill="#FF3C3C" stroke="#FF3C3C" stroke-width="0.125" />
</svg>