<svg width="40" height="40" viewBox="0 0 40 40" fill="none" xmlns="http://www.w3.org/2000/svg">
<rect width="40" height="40" rx="20" fill="#7850DC" fill-opacity="0.1"/>
<path d="M29.4394 16.2491C29.4399 16.0521 29.4013 15.8568 29.3259 15.6748C29.2505 15.4927 29.1397 15.3274 29 15.1885L24.8106 10.999C24.5291 10.7182 24.1476 10.5605 23.7499 10.5605C23.3523 10.5606 22.9708 10.7183 22.6893 10.9991L11.4393 22.2492C11.2938 22.3945 11.18 22.5683 11.1047 22.7597C11.0951 22.783 11.0866 22.8068 11.0793 22.8309C11.0271 22.9852 11.0003 23.1469 11 23.3098V27.4991C11.0005 27.8968 11.1586 28.2781 11.4398 28.5593C11.721 28.8405 12.1023 28.9987 12.5 28.9991H16.6894C16.8539 28.9988 17.0173 28.9715 17.173 28.9181C17.1953 28.9113 17.2174 28.9034 17.2392 28.8945C17.4307 28.8192 17.6046 28.7053 17.75 28.5598L25.5937 20.7161L25.9194 22.019L22.4696 25.4688C22.4 25.5385 22.3447 25.6211 22.3071 25.7121C22.2694 25.8031 22.25 25.9007 22.25 25.9992C22.25 26.0976 22.2694 26.1952 22.3071 26.2862C22.3448 26.3772 22.4 26.4598 22.4697 26.5295C22.5393 26.5991 22.622 26.6544 22.713 26.6921C22.804 26.7297 22.9015 26.7491 23 26.7491C23.0985 26.7491 23.1961 26.7297 23.287 26.692C23.378 26.6543 23.4607 26.5991 23.5304 26.5294L27.2804 22.7794C27.3719 22.6878 27.4382 22.5741 27.4728 22.4493C27.5073 22.3245 27.509 22.1928 27.4776 22.0672L26.8306 19.4792L28.9999 17.3099C29.1397 17.1709 29.2505 17.0056 29.3259 16.8235C29.4013 16.6414 29.4399 16.4462 29.4394 16.2491ZM26 18.1884L21.8107 13.9991L23.75 12.0598L27.9393 16.2491L26 18.1884Z" fill="#7850DC"/>
</svg>
