<svg width="24" height="24" viewBox="0 0 24 24" fill="none" xmlns="http://www.w3.org/2000/svg">
<path d="M0 8C0 3.58172 3.58172 0 8 0H16C20.4183 0 24 3.58172 24 8V16C24 20.4183 20.4183 24 16 24H8C3.58172 24 0 20.4183 0 16V8Z" fill="#0064FF"/>
<path fill-rule="evenodd" clip-rule="evenodd" d="M15.5293 8.86062C15.5293 10.8186 13.9594 12.3887 12 12.3887C10.0413 12.3887 8.47067 10.8186 8.47067 8.86062C8.47067 6.9026 10.0413 5.33325 12 5.33325C13.9594 5.33325 15.5293 6.9026 15.5293 8.86062ZM12 18.6666C9.10824 18.6666 6.66666 18.1966 6.66666 16.3832C6.66666 14.5692 9.12358 14.1159 12 14.1159C14.8924 14.1159 17.3333 14.5859 17.3333 16.3992C17.3333 18.2132 14.8764 18.6666 12 18.6666Z" fill="white"/>
</svg>
