<svg width="12" height="24" viewBox="0 0 12 24" fill="none" xmlns="http://www.w3.org/2000/svg">
<path d="M4.50003 7.31246L4.50003 17.8125C4.50003 18.2103 4.65806 18.5918 4.93937 18.8731C5.22067 19.1544 5.60219 19.3124 6.00001 19.3124C6.39784 19.3124 6.77936 19.1544 7.06066 18.8731C7.34197 18.5918 7.5 18.2103 7.5 17.8125L7.5 4.31246C7.5 2.69635 6.15685 1.38623 4.5 1.38623C2.84315 1.38623 1.5 2.69634 1.5 4.31246L1.5 17.9994C1.5 19.1929 1.9741 20.3375 2.81802 21.1814C3.66193 22.0253 4.80652 22.4994 6 22.4994C7.19347 22.4994 8.33807 22.0253 9.18198 21.1814C10.0259 20.3375 10.5 19.1929 10.5 17.9994L10.5 7.49941" stroke="#808080" stroke-width="1.5" stroke-linecap="round" stroke-linejoin="round"/>
</svg>
