<svg width="24" height="24" viewBox="0 0 24 24" fill="none" xmlns="http://www.w3.org/2000/svg">
<path d="M0 8C0 3.58172 3.58172 0 8 0H16C20.4183 0 24 3.58172 24 8V16C24 20.4183 20.4183 24 16 24H8C3.58172 24 0 20.4183 0 16V8Z" fill="#1EC88C"/>
<path d="M17 6H7C6.73484 6.00018 6.48059 6.10559 6.29309 6.29309C6.10559 6.48059 6.00018 6.73484 6 7V17C6.00018 17.2652 6.10559 17.5194 6.29309 17.7069C6.48059 17.8944 6.73484 17.9998 7 18H13.793C13.9243 18.0002 14.0544 17.9745 14.1758 17.9242C14.2971 17.8739 14.4073 17.8001 14.5 17.707L17.707 14.5C17.8001 14.4073 17.8739 14.2971 17.9242 14.1758C17.9745 14.0544 18.0002 13.9243 18 13.793V7C17.9998 6.73484 17.8944 6.48059 17.7069 6.29309C17.5194 6.10559 17.2652 6.00018 17 6ZM10 9.5H14C14.1326 9.5 14.2598 9.55268 14.3536 9.64645C14.4473 9.74022 14.5 9.86739 14.5 10C14.5 10.1326 14.4473 10.2598 14.3536 10.3536C14.2598 10.4473 14.1326 10.5 14 10.5H10C9.86739 10.5 9.74022 10.4473 9.64645 10.3536C9.55268 10.2598 9.5 10.1326 9.5 10C9.5 9.86739 9.55268 9.74022 9.64645 9.64645C9.74022 9.55268 9.86739 9.5 10 9.5ZM12 14.5H10C9.86739 14.5 9.74022 14.4473 9.64645 14.3536C9.55268 14.2598 9.5 14.1326 9.5 14C9.5 13.8674 9.55268 13.7402 9.64645 13.6464C9.74022 13.5527 9.86739 13.5 10 13.5H12C12.1326 13.5 12.2598 13.5527 12.3536 13.6464C12.4473 13.7402 12.5 13.8674 12.5 14C12.5 14.1326 12.4473 14.2598 12.3536 14.3536C12.2598 14.4473 12.1326 14.5 12 14.5ZM10 12.5C9.86739 12.5 9.74022 12.4473 9.64645 12.3536C9.55268 12.2598 9.5 12.1326 9.5 12C9.5 11.8674 9.55268 11.7402 9.64645 11.6464C9.74022 11.5527 9.86739 11.5 10 11.5H14C14.1326 11.5 14.2598 11.5527 14.3536 11.6464C14.4473 11.7402 14.5 11.8674 14.5 12C14.5 12.1326 14.4473 12.2598 14.3536 12.3536C14.2598 12.4473 14.1326 12.5 14 12.5H10ZM14 16.793V13.999H16.7939L14 16.793Z" fill="white"/>
</svg>
