<svg width="24" height="24" viewBox="0 0 24 24" fill="none" xmlns="http://www.w3.org/2000/svg">
    <path
        d="M20.0605 16.0858V18.5581C20.0615 18.7876 20.0152 19.0148 19.9247 19.2251C19.8342 19.4354 19.7015 19.6242 19.535 19.7793C19.3686 19.9345 19.1721 20.0526 18.9581 20.1262C18.7441 20.1997 18.5174 20.227 18.2924 20.2063C15.7966 19.9308 13.3992 19.0642 11.2929 17.6763C9.33322 16.411 7.67176 14.7229 6.42649 12.7317C5.05577 10.5818 4.20274 8.13398 3.93651 5.58667C3.91625 5.35878 3.9429 5.1291 4.01478 4.91224C4.08666 4.69539 4.2022 4.49612 4.35403 4.32712C4.50585 4.15813 4.69065 4.0231 4.89665 3.93065C5.10265 3.83819 5.32534 3.79033 5.55054 3.79012L7.98374 3.79012C8.37736 3.78618 8.75896 3.92781 9.0574 4.1886C9.35585 4.44939 9.55079 4.81156 9.60588 5.20758C9.70858 5.99878 9.89904 6.77563 10.1736 7.52332C10.2828 7.81829 10.3064 8.13886 10.2417 8.44705C10.177 8.75524 10.0267 9.03812 9.80865 9.26219L8.77859 10.3088C9.93319 12.372 11.6145 14.0803 13.645 15.2534L14.6751 14.2068C14.8956 13.9853 15.174 13.8326 15.4773 13.7668C15.7806 13.7011 16.0961 13.7251 16.3864 13.836C17.1223 14.115 17.8868 14.3085 18.6655 14.4129C19.0595 14.4693 19.4193 14.671 19.6765 14.9794C19.9337 15.2879 20.0704 15.6816 20.0605 16.0858Z"
        fill="#808080" />
</svg>