<svg width="24" height="24" viewBox="0 0 24 24" fill="none" xmlns="http://www.w3.org/2000/svg">
<g clip-path="url(#clip0)">
<path d="M3.1999 16.562L1.42147 14.8446C1.25573 14.6858 1.12445 14.4948 1.03604 14.2836C0.947629 14.0724 0.904034 13.8458 0.908046 13.6183C0.912058 13.3908 0.963589 13.1673 1.05934 12.9623C1.15509 12.7573 1.29295 12.5753 1.46408 12.4278C3.39602 10.8239 5.68472 9.7013 8.14629 9.15025C10.4178 8.61952 12.7863 8.59706 15.0837 9.08449C17.5824 9.59194 19.9357 10.6787 21.953 12.2567C22.131 12.4004 22.2778 12.5791 22.3838 12.7815C22.4899 12.9838 22.553 13.2054 22.5691 13.432C22.5852 13.6586 22.5539 13.8853 22.4773 14.0977C22.4007 14.3101 22.2805 14.5036 22.1242 14.6657L20.4339 16.416C20.1633 16.7019 19.7964 16.878 19.4015 16.9115C19.0065 16.9451 18.6106 16.8337 18.2875 16.5982C17.647 16.1225 16.9559 15.7198 16.2273 15.398C15.9393 15.2716 15.6923 15.0659 15.5155 14.8053C15.3388 14.5446 15.2397 14.24 15.23 13.9275L15.1926 12.4595C12.9064 11.8569 10.5097 11.8796 8.25526 12.5253L8.2926 13.9933C8.29879 14.3058 8.21524 14.6122 8.05182 14.876C7.8884 15.1399 7.65197 15.3501 7.37056 15.4819C6.65869 15.8175 5.98837 16.233 5.37239 16.7207C5.05808 16.9648 4.66308 17.0836 4.26252 17.0544C3.86196 17.0251 3.48378 16.8499 3.1999 16.562Z" stroke="white" stroke-width="1.5" stroke-linecap="round" stroke-linejoin="round"/>
</g>
<defs>
<clipPath id="clip0">
<rect width="24" height="24" fill="white"/>
</clipPath>
</defs>
</svg>
