<svg width="40" height="40" viewBox="0 0 40 40" fill="none" xmlns="http://www.w3.org/2000/svg">
<rect width="40" height="40" rx="20" fill="#0064FF" fill-opacity="0.1"/>
<path d="M18.5 11C18.0858 11 17.75 11.3358 17.75 11.75V14.75L14.75 14.75C14.3358 14.75 14 15.0858 14 15.5V18.5C14 18.9142 14.3358 19.25 14.75 19.25H17.75V28.25C17.75 28.6642 18.0858 29 18.5 29H21.5C21.9142 29 22.25 28.6642 22.25 28.25V19.25H25.25C25.6642 19.25 26 18.9142 26 18.5V15.5C26 15.0858 25.6642 14.75 25.25 14.75L22.25 14.75V11.75C22.25 11.3358 21.9142 11 21.5 11H18.5Z" fill="#0064FF"/>
</svg>
