<svg width="24" height="24" viewBox="0 0 24 24" fill="none" xmlns="http://www.w3.org/2000/svg">
<path d="M16.5024 3.00001C15.6293 2.99851 14.7679 3.20077 13.9867 3.59072C13.2055 3.98066 12.5261 4.54752 12.0024 5.24621C11.2933 4.30266 10.3054 3.606 9.17847 3.25482C8.05159 2.90365 6.8428 2.91573 5.72316 3.28936C4.60352 3.663 3.62972 4.37926 2.93956 5.3368C2.24941 6.29434 1.87784 7.44467 1.87744 8.62501C1.87744 15.3621 11.2375 20.6813 11.636 20.9044C11.7479 20.9671 11.8741 21 12.0024 21C12.1308 21 12.257 20.9671 12.3689 20.9044C14.0904 19.8961 15.7061 18.7173 17.1917 17.3856C20.4668 14.438 22.1274 11.4905 22.1274 8.62501C22.1258 7.13368 21.5326 5.70393 20.4781 4.6494C19.4235 3.59487 17.9938 3.0017 16.5024 3.00001Z" fill="#FF5A5A"/>
</svg>
