<svg width="24" height="24" viewBox="0 0 24 24" fill="none" xmlns="http://www.w3.org/2000/svg">
<path d="M21.7371 7.51089C21.5259 7.27179 21.2663 7.08029 20.9755 6.94911C20.6847 6.81794 20.3693 6.75006 20.0503 6.75H14.9995V5.25C14.9984 4.25578 14.6029 3.30261 13.8999 2.5996C13.1969 1.89658 12.2437 1.50113 11.2495 1.5C11.1102 1.49999 10.9737 1.53877 10.8552 1.612C10.7367 1.68523 10.641 1.79001 10.5787 1.9146L7.03598 9H2.99951C2.60183 9.00045 2.22056 9.15864 1.93935 9.43984C1.65815 9.72105 1.49997 10.1023 1.49951 10.5V18.75C1.49997 19.1477 1.65815 19.529 1.93935 19.8102C2.22056 20.0914 2.60183 20.2495 2.99951 20.25H18.9253C19.4735 20.2492 20.0026 20.0487 20.4136 19.6859C20.8246 19.3231 21.0892 18.8229 21.158 18.2791L22.283 9.27905C22.3225 8.96247 22.2942 8.64112 22.2001 8.33629C22.106 8.03146 21.9481 7.75011 21.7371 7.51089ZM2.99951 10.5H6.74951V18.75H2.99951V10.5Z" fill="#0064FF"/>
</svg>
