<svg width="24" height="24" viewBox="0 0 24 24" fill="none" xmlns="http://www.w3.org/2000/svg">
<path d="M18.9834 4.4375C18.32 4.4375 17.7803 4.97719 17.7803 5.64062V9.9375V10.2812C17.7803 10.4712 17.6265 10.625 17.4365 10.625C17.2466 10.625 17.0928 10.4712 17.0928 10.2812V9.9375V5.64062V3.23438C17.0928 2.57094 16.5531 2.03125 15.8897 2.03125C15.2262 2.03125 14.6865 2.57094 14.6865 3.23438V9.9375V10.2812C14.6865 10.4712 14.5327 10.625 14.3428 10.625C14.1529 10.625 13.999 10.4712 13.999 10.2812V9.9375V3.23438V2.20312C13.999 1.53969 13.4594 1 12.7959 1C12.1325 1 11.5928 1.53969 11.5928 2.20312V3.23438V9.9375V10.2812C11.5928 10.4712 11.439 10.625 11.249 10.625C11.0591 10.625 10.9053 10.4712 10.9053 10.2812V9.9375V3.23438C10.9053 2.57094 10.3656 2.03125 9.70216 2.03125C9.03873 2.03125 8.49904 2.57094 8.49904 3.23438V14.75C8.49904 14.878 8.42857 14.9949 8.31513 15.0542C8.20256 15.1135 8.06592 15.1058 7.96021 15.0336L4.86131 12.9023C4.24943 12.4821 3.65904 12.7253 3.33935 13.0622C3.01966 13.3982 2.80654 14.0006 3.25857 14.5902L7.42826 20.0343C8.85052 21.8914 11.0969 23 13.4361 23H13.6553C16.8848 23 20.1865 22.224 20.1865 16.4688V5.64062C20.1865 4.97719 19.6469 4.4375 18.9834 4.4375Z" fill="#FFC83C"/>
</svg>
