<svg width="24" height="24" viewBox="0 0 24 24" fill="none" xmlns="http://www.w3.org/2000/svg">
<path d="M0 8C0 3.58172 3.58172 0 8 0H16C20.4183 0 24 3.58172 24 8V16C24 20.4183 20.4183 24 16 24H8C3.58172 24 0 20.4183 0 16V8Z" fill="#FF5A5A"/>
<path fill-rule="evenodd" clip-rule="evenodd" d="M9.64577 4H17.3333C18.217 4 18.9333 4.71635 18.9333 5.6V18.4C18.9333 19.2837 18.217 20 17.3333 20H6.66668C5.78303 20 5.06668 19.2837 5.06668 18.4V8.57909L9.64577 4ZM10.4 7.2V10.4H11.4667V7.2H10.4ZM12.5333 7.2V10.4H13.6V7.2H12.5333ZM14.6667 10.4V7.2H15.7333V10.4H14.6667Z" fill="white"/>
</svg>
