<svg width="25" height="24" viewBox="0 0 25 24" fill="none" xmlns="http://www.w3.org/2000/svg">
<path fill-rule="evenodd" clip-rule="evenodd" d="M21.6062 7.62288L20.9838 6.54279C20.4572 5.62887 19.2903 5.31359 18.3751 5.83798V5.83798C17.9395 6.09461 17.4196 6.16742 16.9303 6.04035C16.4409 5.91329 16.0222 5.59678 15.7664 5.16064C15.6019 4.88342 15.5135 4.56766 15.5101 4.24531V4.24531C15.525 3.72849 15.33 3.22767 14.9696 2.85694C14.6092 2.4862 14.1141 2.27713 13.5971 2.27734H12.3431C11.8365 2.27734 11.3509 2.47918 10.9936 2.83821C10.6362 3.19724 10.4367 3.68386 10.4392 4.19039V4.19039C10.4242 5.23619 9.57204 6.07608 8.52613 6.07597C8.20377 6.07262 7.88802 5.98421 7.61079 5.81968V5.81968C6.69562 5.29528 5.52867 5.61056 5.0021 6.52448L4.33391 7.62288C3.80797 8.53566 4.11896 9.70187 5.02956 10.2316V10.2316C5.62146 10.5733 5.98609 11.2049 5.98609 11.8883C5.98609 12.5718 5.62146 13.2033 5.02956 13.5451V13.5451C4.12012 14.0712 3.80879 15.2346 4.33391 16.1446V16.1446L4.96549 17.2339C5.21221 17.679 5.62616 18.0076 6.11575 18.1467C6.60534 18.2859 7.1302 18.2242 7.57418 17.9753V17.9753C8.01064 17.7206 8.53075 17.6508 9.0189 17.7815C9.50705 17.9121 9.9228 18.2323 10.1737 18.6709C10.3383 18.9482 10.4267 19.2639 10.43 19.5863V19.5863C10.43 20.6428 11.2865 21.4993 12.3431 21.4993H13.5971C14.65 21.4993 15.5051 20.6484 15.5101 19.5954V19.5954C15.5077 19.0873 15.7084 18.5993 16.0677 18.24C16.427 17.8807 16.915 17.6799 17.4232 17.6824C17.7447 17.691 18.0592 17.779 18.3385 17.9387V17.9387C19.2513 18.4646 20.4175 18.1536 20.9472 17.243V17.243L21.6062 16.1446C21.8613 15.7068 21.9313 15.1853 21.8008 14.6956C21.6702 14.206 21.3498 13.7886 20.9106 13.5359V13.5359C20.4713 13.2832 20.1509 12.8658 20.0204 12.3762C19.8898 11.8866 19.9598 11.3651 20.2149 10.9272C20.3808 10.6376 20.6209 10.3975 20.9106 10.2316V10.2316C21.8157 9.70216 22.126 8.54276 21.6062 7.63203V7.63203V7.62288Z" stroke="white" stroke-width="1.5" stroke-linecap="round" stroke-linejoin="round"/>
<circle cx="12.9745" cy="11.8881" r="2.63616" stroke="white" stroke-width="1.5" stroke-linecap="round" stroke-linejoin="round"/>
</svg>
