<svg width="24" height="24" viewBox="0 0 24 24" fill="none" xmlns="http://www.w3.org/2000/svg">
<path d="M5.08137 22.1222L5.08122 22.1222C4.86611 22.2435 4.62346 22.3074 4.37654 22.3079C4.1464 22.3068 3.91986 22.2507 3.71588 22.1441C3.51186 22.0375 3.33634 21.8836 3.20401 21.6952C3.07168 21.5069 2.98639 21.2896 2.95528 21.0615C2.92416 20.8334 2.94813 20.6012 3.02517 20.3843L5.72944 12.8124L12.7497 12.8124C12.9652 12.8124 13.1718 12.7268 13.3242 12.5744C13.4766 12.422 13.5622 12.2154 13.5622 11.9999C13.5622 11.7844 13.4766 11.5777 13.3242 11.4253C13.1718 11.273 12.9652 11.1874 12.7497 11.1874L5.72944 11.1874L3.02514 3.61533C3.02514 3.61533 3.02514 3.61533 3.02514 3.61533C2.92672 3.33972 2.91476 3.04064 2.99086 2.75805C3.06697 2.47547 3.2275 2.22284 3.45102 2.03393C3.67454 1.84503 3.95039 1.72884 4.24171 1.7009C4.53303 1.67296 4.82593 1.7346 5.08128 1.87759C5.08128 1.87759 5.08128 1.87759 5.08128 1.87759L20.9171 10.7456C21.14 10.8704 21.3256 11.0525 21.4548 11.273C21.584 11.4934 21.6521 11.7444 21.6521 11.9999C21.6521 12.2554 21.584 12.5064 21.4548 12.7268C21.3256 12.9473 21.1399 13.1293 20.917 13.2542L5.08137 22.1222Z" fill="#FF3C3C" stroke="#FF3C3C" stroke-width="0.125"/>
</svg>
