<svg width="25" height="24" viewBox="0 0 25 24" fill="none" xmlns="http://www.w3.org/2000/svg">
<path d="M21.3865 6.69781C21.2458 6.55732 21.055 6.47844 20.8562 6.47852C20.6574 6.47859 20.4667 6.55761 20.3261 6.6982C20.1855 6.8388 20.1065 7.02946 20.1064 7.22829C20.1064 7.42712 20.1852 7.61785 20.3257 7.75854C20.8829 8.31568 21.3249 8.97711 21.6264 9.70507C21.928 10.433 22.0832 11.2132 22.0832 12.0012C22.0832 12.7891 21.928 13.5693 21.6264 14.2973C21.3249 15.0253 20.8829 15.6867 20.3257 16.2438C20.1855 16.3846 20.1068 16.5752 20.107 16.7739C20.1072 16.9726 20.1862 17.1631 20.3267 17.3036C20.4672 17.4441 20.6577 17.5231 20.8564 17.5233C21.0551 17.5235 21.2457 17.4448 21.3865 17.3046C22.793 15.898 23.5832 13.9903 23.5832 12.0012C23.5832 10.012 22.793 8.10436 21.3865 6.69781V6.69781Z" fill="#FF3C3C"/>
<path d="M14.9128 2.3273C14.7866 2.26557 14.6457 2.2405 14.5061 2.25496C14.3664 2.26941 14.2336 2.32281 14.1228 2.40906L7.5759 7.50104H3.33325C2.93557 7.50149 2.5543 7.65967 2.27309 7.94088C1.99189 8.22209 1.83371 8.60335 1.83325 9.00104V15.001C1.83371 15.3987 1.99189 15.78 2.27309 16.0612C2.5543 16.3424 2.93557 16.5006 3.33325 16.501H7.5759L14.1228 21.593C14.2337 21.6792 14.3664 21.7326 14.5061 21.747C14.6458 21.7615 14.7867 21.7364 14.9128 21.6748C15.0389 21.6131 15.1452 21.5172 15.2195 21.3981C15.2938 21.279 15.3333 21.1414 15.3333 21.001V3.00104C15.3333 2.86063 15.2938 2.72305 15.2195 2.60394C15.1452 2.48483 15.0389 2.38898 14.9128 2.3273ZM3.33325 9.00104H7.08051V15.001H3.33325V9.00104Z" fill="#FF3C3C"/>
<path d="M17.6742 9.34966C17.6046 9.4193 17.5493 9.50198 17.5117 9.59298C17.474 9.68397 17.4546 9.7815 17.4546 9.88C17.4546 9.97849 17.474 10.076 17.5117 10.167C17.5494 10.258 17.6047 10.3407 17.6743 10.4103C17.8833 10.6192 18.049 10.8672 18.1621 11.1402C18.2751 11.4132 18.3333 11.7057 18.3333 12.0012C18.3333 12.2967 18.2751 12.5892 18.1621 12.8622C18.049 13.1352 17.8833 13.3832 17.6743 13.5921C17.5337 13.7328 17.4546 13.9235 17.4546 14.1224C17.4546 14.3213 17.5336 14.5121 17.6742 14.6528C17.8149 14.7934 18.0056 14.8725 18.2045 14.8725C18.4034 14.8725 18.5942 14.7935 18.7349 14.6528C19.0831 14.3046 19.3594 13.8913 19.5478 13.4363C19.7363 12.9813 19.8333 12.4937 19.8333 12.0012C19.8333 11.5087 19.7363 11.0211 19.5478 10.5661C19.3594 10.1112 19.0831 9.69777 18.7349 9.34957C18.6652 9.27991 18.5826 9.22466 18.4916 9.18696C18.4006 9.14927 18.303 9.12987 18.2045 9.12988C18.106 9.12989 18.0085 9.14931 17.9175 9.18701C17.8265 9.22472 17.7439 9.27999 17.6742 9.34966Z" fill="#FF3C3C"/>
</svg>
