<svg width="24" height="24" viewBox="0 0 24 24" fill="none" xmlns="http://www.w3.org/2000/svg">
<path d="M20.5215 7.22656C21.1483 7.85336 21.6455 8.59747 21.9847 9.41642C22.3239 10.2354 22.4985 11.1131 22.4985 11.9995C22.4985 12.886 22.3239 13.7637 21.9847 14.5826C21.6455 15.4016 21.1483 16.1457 20.5215 16.7725" stroke="white" stroke-width="1.5" stroke-linecap="round" stroke-linejoin="round"/>
<path d="M7.5 15.75H3C2.80109 15.75 2.61032 15.671 2.46967 15.5303C2.32902 15.3897 2.25 15.1989 2.25 15V9C2.25 8.80109 2.32902 8.61032 2.46967 8.46967C2.61032 8.32902 2.80109 8.25 3 8.25H7.5L14.25 3V21L7.5 15.75Z" stroke="white" stroke-width="1.5" stroke-linecap="round" stroke-linejoin="round"/>
<path d="M7.49902 8.25V15.75" stroke="white" stroke-width="1.5" stroke-linecap="round" stroke-linejoin="round"/>
<path d="M17.8696 9.87891C18.1482 10.1575 18.3692 10.4882 18.5199 10.8522C18.6707 11.2162 18.7483 11.6063 18.7483 12.0002C18.7483 12.3942 18.6707 12.7843 18.5199 13.1483C18.3692 13.5123 18.1482 13.843 17.8696 14.1215" stroke="white" stroke-width="1.5" stroke-linecap="round" stroke-linejoin="round"/>
</svg>
