<svg width="40" height="40" viewBox="0 0 40 40" fill="none" xmlns="http://www.w3.org/2000/svg">
<g opacity="0.4">
<path fill-rule="evenodd" clip-rule="evenodd" d="M4.97391 8.5C5.66426 8.5 6.22391 9.05965 6.22391 9.75V14.3333H10.8072C11.4976 14.3333 12.0572 14.893 12.0572 15.5833C12.0572 16.2737 11.4976 16.8333 10.8072 16.8333H4.97391C4.28355 16.8333 3.72391 16.2737 3.72391 15.5833V9.75C3.72391 9.05965 4.28355 8.5 4.97391 8.5Z" fill="#1EC88C"/>
<path fill-rule="evenodd" clip-rule="evenodd" d="M14.2597 6.14181C16.0796 5.38799 18.0302 5 20 5C21.9698 5 23.9204 5.38799 25.7403 6.14181C27.5601 6.89563 29.2137 8.00052 30.6066 9.3934C31.0948 9.88155 31.0948 10.673 30.6066 11.1612C30.1184 11.6493 29.327 11.6493 28.8388 11.1612C27.6781 10.0004 26.3001 9.07969 24.7835 8.45151C23.267 7.82332 21.6415 7.5 20 7.5C18.3585 7.5 16.733 7.82332 15.2165 8.45151C13.6999 9.07969 12.3219 10.0004 11.1612 11.1612L5.85786 16.4645C5.36971 16.9526 4.57825 16.9526 4.0901 16.4645C3.60194 15.9763 3.60194 15.1849 4.0901 14.6967L9.3934 9.3934C10.7863 8.00052 12.4399 6.89563 14.2597 6.14181Z" fill="#1EC88C"/>
<path fill-rule="evenodd" clip-rule="evenodd" d="M28.1167 24.4194C28.1167 23.729 28.6763 23.1694 29.3667 23.1694H35.0333C35.7237 23.1694 36.2833 23.729 36.2833 24.4194V30.0861C36.2833 30.7764 35.7237 31.3361 35.0333 31.3361C34.343 31.3361 33.7833 30.7764 33.7833 30.0861V25.6694H29.3667C28.6763 25.6694 28.1167 25.1098 28.1167 24.4194Z" fill="#1EC88C"/>
<path fill-rule="evenodd" clip-rule="evenodd" d="M35.9099 23.5355C36.3981 24.0236 36.3981 24.8151 35.9099 25.3033L30.6066 30.6066C29.2137 31.9994 27.5601 33.1043 25.7403 33.8582C23.9204 34.612 21.9698 35 20 35C18.0302 35 16.0796 34.612 14.2598 33.8582C12.4399 33.1043 10.7863 31.9994 9.39341 30.6066C8.90525 30.1184 8.90525 29.3269 9.39341 28.8388C9.88156 28.3506 10.673 28.3506 11.1612 28.8388C12.3219 29.9995 13.6999 30.9203 15.2165 31.5485C16.733 32.1766 18.3585 32.5 20 32.5C21.6415 32.5 23.267 32.1766 24.7836 31.5485C26.3001 30.9203 27.6781 29.9995 28.8388 28.8388L34.1421 23.5355C34.6303 23.0473 35.4218 23.0473 35.9099 23.5355Z" fill="#1EC88C"/>
</g>
<path fill-rule="evenodd" clip-rule="evenodd" d="M20 28.3327C24.593 28.3327 28.3333 24.5941 28.3333 20.0034C28.3333 15.4046 24.593 11.666 20 11.666C15.407 11.666 11.6667 15.4046 11.6667 20.0034C11.6667 24.5941 15.407 28.3327 20 28.3327ZM23.24 23.8127C23.4978 23.4305 23.6267 23.0038 23.6267 22.5327C23.6267 21.9549 23.4844 21.4927 23.2 21.146C22.9155 20.7905 22.56 20.5238 22.1333 20.346C21.7155 20.1682 21.1867 20.0038 20.5467 19.8527V16.6793C21.24 16.706 21.8889 16.826 22.4933 17.0393C22.5822 17.0749 22.6533 17.0927 22.7067 17.0927C22.8667 17.0927 22.9955 17.0349 23.0933 16.9193C23.1911 16.8038 23.24 16.6749 23.24 16.5327C23.24 16.266 23.1155 16.0882 22.8667 15.9993C22.1911 15.7416 21.4178 15.5949 20.5467 15.5593V14.6393C20.5467 14.5238 20.5067 14.426 20.4267 14.346C20.3467 14.266 20.2489 14.226 20.1333 14.226C20.0178 14.226 19.92 14.266 19.84 14.346C19.7689 14.426 19.7333 14.5238 19.7333 14.6393V15.5727C19.1022 15.626 18.56 15.7816 18.1067 16.0393C17.6622 16.2971 17.3244 16.6216 17.0933 17.0127C16.8711 17.4038 16.76 17.8305 16.76 18.2927C16.76 18.8171 16.8978 19.2527 17.1733 19.5993C17.4489 19.9371 17.7911 20.1993 18.2 20.386C18.6178 20.5727 19.1289 20.746 19.7333 20.906V23.9727C18.9422 23.9371 18.1867 23.7593 17.4667 23.4393C17.3867 23.4038 17.3022 23.386 17.2133 23.386C17.0533 23.386 16.92 23.4438 16.8133 23.5593C16.7155 23.666 16.6667 23.7949 16.6667 23.946C16.6667 24.0616 16.7022 24.1727 16.7733 24.2793C16.8444 24.3771 16.9333 24.4482 17.04 24.4927C17.8755 24.8482 18.7733 25.0571 19.7333 25.1193V26.066C19.7333 26.1905 19.7689 26.2882 19.84 26.3593C19.92 26.4305 20.0178 26.466 20.1333 26.466C20.2578 26.466 20.3555 26.426 20.4267 26.346C20.5067 26.2749 20.5467 26.1816 20.5467 26.066V25.1193C21.16 25.0838 21.6978 24.9549 22.16 24.7327C22.6311 24.5016 22.9911 24.1949 23.24 23.8127ZM18.4133 19.106C18.12 18.8927 17.9733 18.5905 17.9733 18.1993C17.9733 17.7905 18.1333 17.4616 18.4533 17.2127C18.7733 16.9549 19.2 16.7905 19.7333 16.7193V19.6527C19.1555 19.5016 18.7155 19.3193 18.4133 19.106ZM22.4267 22.4527C22.4267 23.3771 21.8 23.8838 20.5467 23.9727V21.106C21.1689 21.2749 21.6355 21.4571 21.9467 21.6527C22.2667 21.8393 22.4267 22.106 22.4267 22.4527Z" fill="#1EC88C"/>
</svg>
