<svg width="40" height="40" viewBox="0 0 40 40" fill="none" xmlns="http://www.w3.org/2000/svg">
<g opacity="0.4">
<path fill-rule="evenodd" clip-rule="evenodd" d="M4.97391 8.5C5.66426 8.5 6.22391 9.05965 6.22391 9.75V14.3333H10.8072C11.4976 14.3333 12.0572 14.893 12.0572 15.5833C12.0572 16.2737 11.4976 16.8333 10.8072 16.8333H4.97391C4.28355 16.8333 3.72391 16.2737 3.72391 15.5833V9.75C3.72391 9.05965 4.28355 8.5 4.97391 8.5Z" fill="#1EC88C"/>
<path fill-rule="evenodd" clip-rule="evenodd" d="M14.2597 6.14181C16.0796 5.38799 18.0302 5 20 5C21.9698 5 23.9204 5.38799 25.7403 6.14181C27.5601 6.89563 29.2137 8.00052 30.6066 9.3934C31.0948 9.88155 31.0948 10.673 30.6066 11.1612C30.1184 11.6493 29.327 11.6493 28.8388 11.1612C27.6781 10.0004 26.3001 9.07969 24.7835 8.45151C23.267 7.82332 21.6415 7.5 20 7.5C18.3585 7.5 16.733 7.82332 15.2165 8.45151C13.6999 9.07969 12.3219 10.0004 11.1612 11.1612L5.85786 16.4645C5.36971 16.9526 4.57825 16.9526 4.0901 16.4645C3.60194 15.9763 3.60194 15.1849 4.0901 14.6967L9.3934 9.3934C10.7863 8.00052 12.4399 6.89563 14.2597 6.14181Z" fill="#1EC88C"/>
<path fill-rule="evenodd" clip-rule="evenodd" d="M28.1167 24.4194C28.1167 23.729 28.6763 23.1694 29.3667 23.1694H35.0333C35.7237 23.1694 36.2833 23.729 36.2833 24.4194V30.0861C36.2833 30.7764 35.7237 31.3361 35.0333 31.3361C34.343 31.3361 33.7833 30.7764 33.7833 30.0861V25.6694H29.3667C28.6763 25.6694 28.1167 25.1098 28.1167 24.4194Z" fill="#1EC88C"/>
<path fill-rule="evenodd" clip-rule="evenodd" d="M35.9099 23.5355C36.3981 24.0236 36.3981 24.8151 35.9099 25.3033L30.6066 30.6066C29.2137 31.9994 27.5601 33.1043 25.7403 33.8582C23.9204 34.612 21.9698 35 20 35C18.0302 35 16.0796 34.612 14.2598 33.8582C12.4399 33.1043 10.7863 31.9994 9.39341 30.6066C8.90525 30.1184 8.90525 29.3269 9.39341 28.8388C9.88156 28.3506 10.673 28.3506 11.1612 28.8388C12.3219 29.9995 13.6999 30.9203 15.2165 31.5485C16.733 32.1766 18.3585 32.5 20 32.5C21.6415 32.5 23.267 32.1766 24.7836 31.5485C26.3001 30.9203 27.6781 29.9995 28.8388 28.8388L34.1421 23.5355C34.6303 23.0473 35.4218 23.0473 35.9099 23.5355Z" fill="#1EC88C"/>
</g>
<path fill-rule="evenodd" clip-rule="evenodd" d="M20 28.3334C24.593 28.3334 28.3333 24.5949 28.3333 20.0041C28.3333 15.4053 24.593 11.6667 20 11.6667C15.407 11.6667 11.6667 15.4053 11.6667 20.0041C11.6667 24.5949 15.407 28.3334 20 28.3334ZM23.24 23.8134C23.4978 23.4312 23.6267 23.0045 23.6267 22.5334C23.6267 21.9556 23.4844 21.4934 23.2 21.1467C22.9155 20.7912 22.56 20.5245 22.1333 20.3467C21.7155 20.169 21.1867 20.0045 20.5467 19.8534V16.6801C21.24 16.7067 21.8889 16.8267 22.4933 17.0401C22.5822 17.0756 22.6533 17.0934 22.7067 17.0934C22.8667 17.0934 22.9955 17.0356 23.0933 16.9201C23.1911 16.8045 23.24 16.6756 23.24 16.5334C23.24 16.2667 23.1155 16.089 22.8667 16.0001C22.1911 15.7423 21.4178 15.5956 20.5467 15.5601V14.6401C20.5467 14.5245 20.5067 14.4267 20.4267 14.3467C20.3467 14.2667 20.2489 14.2267 20.1333 14.2267C20.0178 14.2267 19.92 14.2667 19.84 14.3467C19.7689 14.4267 19.7333 14.5245 19.7333 14.6401V15.5734C19.1022 15.6267 18.56 15.7823 18.1067 16.0401C17.6622 16.2979 17.3244 16.6223 17.0933 17.0134C16.8711 17.4045 16.76 17.8312 16.76 18.2934C16.76 18.8179 16.8978 19.2534 17.1733 19.6001C17.4489 19.9379 17.7911 20.2001 18.2 20.3867C18.6178 20.5734 19.1289 20.7467 19.7333 20.9067V23.9734C18.9422 23.9379 18.1867 23.7601 17.4667 23.4401C17.3867 23.4045 17.3022 23.3867 17.2133 23.3867C17.0533 23.3867 16.92 23.4445 16.8133 23.5601C16.7155 23.6667 16.6667 23.7956 16.6667 23.9467C16.6667 24.0623 16.7022 24.1734 16.7733 24.2801C16.8444 24.3779 16.9333 24.449 17.04 24.4934C17.8755 24.849 18.7733 25.0579 19.7333 25.1201V26.0667C19.7333 26.1912 19.7689 26.289 19.84 26.3601C19.92 26.4312 20.0178 26.4667 20.1333 26.4667C20.2578 26.4667 20.3555 26.4267 20.4267 26.3467C20.5067 26.2756 20.5467 26.1823 20.5467 26.0667V25.1201C21.16 25.0845 21.6978 24.9556 22.16 24.7334C22.6311 24.5023 22.9911 24.1956 23.24 23.8134ZM18.4133 19.1067C18.12 18.8934 17.9733 18.5912 17.9733 18.2001C17.9733 17.7912 18.1333 17.4623 18.4533 17.2134C18.7733 16.9556 19.2 16.7912 19.7333 16.7201V19.6534C19.1555 19.5023 18.7155 19.3201 18.4133 19.1067ZM22.4267 22.4534C22.4267 23.3779 21.8 23.8845 20.5467 23.9734V21.1067C21.1689 21.2756 21.6355 21.4579 21.9467 21.6534C22.2667 21.8401 22.4267 22.1067 22.4267 22.4534Z" fill="#1EC88C"/>
</svg>
