<svg width="25" height="24" viewBox="0 0 25 24" fill="none" xmlns="http://www.w3.org/2000/svg">
<path d="M9.0498 15C11.7422 15 13.9248 12.8174 13.9248 10.125C13.9248 7.43261 11.7422 5.25 9.0498 5.25C6.35742 5.25 4.1748 7.43261 4.1748 10.125C4.1748 12.8174 6.35742 15 9.0498 15Z" stroke="white" stroke-width="1.5" stroke-linecap="round" stroke-linejoin="round"/>
<path d="M15.3696 5.43076C16.0401 5.24184 16.7434 5.1988 17.4319 5.30454C18.1205 5.41029 18.7784 5.66236 19.3613 6.04377C19.9442 6.42519 20.4387 6.92709 20.8113 7.51568C21.1839 8.10427 21.4261 8.76588 21.5215 9.45594C21.6169 10.146 21.5633 10.8485 21.3643 11.5161C21.1654 12.1837 20.8256 12.8009 20.368 13.3262C19.9105 13.8514 19.3456 14.2726 18.7116 14.5611C18.0775 14.8497 17.389 14.9991 16.6924 14.9992" stroke="white" stroke-width="1.5" stroke-linecap="round" stroke-linejoin="round"/>
<path d="M2.29932 18.5059C3.06069 17.4229 4.07147 16.539 5.2463 15.9288C6.42114 15.3186 7.72554 15.0001 9.04939 15C10.3732 14.9999 11.6777 15.3184 12.8526 15.9285C14.0274 16.5386 15.0383 17.4225 15.7997 18.5054" stroke="white" stroke-width="1.5" stroke-linecap="round" stroke-linejoin="round"/>
<path d="M16.6924 15C18.0164 14.999 19.3211 15.3171 20.496 15.9273C21.671 16.5375 22.6817 17.4218 23.4424 18.5054" stroke="white" stroke-width="1.5" stroke-linecap="round" stroke-linejoin="round"/>
</svg>
