<svg width="40" height="40" viewBox="0 0 40 40" fill="none" xmlns="http://www.w3.org/2000/svg">
<path opacity="0.4" fill-rule="evenodd" clip-rule="evenodd" d="M9 3.33325C6.79086 3.33325 5 5.12411 5 7.33325V36.6666H31C33.2091 36.6666 35 34.8757 35 32.6666V3.33325H9ZM32.1533 31.6666H11.6666C9.95804 31.6666 8.48964 32.695 7.84668 34.1666H28.3333C30.0419 34.1666 31.5103 33.1382 32.1533 31.6666Z" fill="#7850DC"/>
<path d="M26.6667 18.3413C26.6667 18.7625 26.5341 19.1853 26.2689 19.5239C26.2192 19.5904 25.9872 19.8642 25.8049 20.0424L25.7055 20.1396C24.3134 21.6155 20.8499 23.835 19.0933 24.5462C19.0933 24.5624 18.0492 24.9853 17.5521 24.9998H17.4858C16.7235 24.9998 16.0109 24.5802 15.6463 23.8998C15.4474 23.5256 15.2652 22.4401 15.2486 22.4255C15.0994 21.4518 15 19.9614 15 18.3251C15 16.6094 15.0994 15.0525 15.2817 14.0966C15.2817 14.0804 15.464 13.2056 15.58 12.914C15.7623 12.4944 16.0938 12.1363 16.508 11.9095C16.8395 11.7491 17.1875 11.6665 17.5521 11.6665C17.9332 11.6843 18.6458 11.9257 18.9276 12.0391C20.7836 12.752 24.33 15.0849 25.6889 16.5106C25.9209 16.7374 26.1695 17.0144 26.2358 17.0776C26.5175 17.434 26.6667 17.8714 26.6667 18.3413Z" fill="#7850DC"/>
</svg>
